<svg width="39" height="88" viewBox="0 0 39 88" fill="none" xmlns="http://www.w3.org/2000/svg">
<path d="M16.0362 2.2386C14.9944 5.13794 14.2043 8.20161 13.573 11.2276C12.1663 18.0373 11.5895 25.0255 12.0166 31.9503C12.1547 34.0658 12.4319 36.6726 12.8029 38.7476C14.7841 50.6716 20.067 60.7157 28.4797 69.1382C29.7087 63.9687 32.0802 59.162 35.983 55.3308C37.0704 54.2653 38.7366 55.6535 37.9037 56.9115C36.5771 58.8398 35.5001 60.8702 34.7695 62.9864C33.2865 67.2635 33.1983 71.8092 33.7062 76.292C33.9639 78.5566 34.3812 80.8218 34.8893 83.0749C35.05 83.8716 34.9471 84.7293 34.5345 85.5033C33.5936 87.2584 31.4048 87.9163 29.6484 86.9745C28.5286 86.3813 27.4147 85.7382 26.298 85.1658C21.8454 82.8652 16.8947 80.9392 11.9247 80.9199C9.85116 80.91 8.12146 81.2279 5.94455 81.5883C3.07306 82.0766 0.352667 79.9352 0.159714 77.0308C-0.0383987 74.287 2.02741 71.9028 4.77214 71.7066C7.13448 71.5065 9.96995 71.3247 12.4653 71.5934C14.6873 71.8146 16.8309 72.2836 18.9121 72.9334C9.9635 61.1648 5.61445 46.911 6.05434 32.0468C6.38787 21.3641 8.70717 10.7509 13.054 0.992511C13.9912 -0.848453 16.6886 0.316957 16.0362 2.2386Z" fill="#FFBE0F"/>
</svg>
