<svg width="39" height="88" viewBox="0 0 39 88" fill="none" xmlns="http://www.w3.org/2000/svg">
<path d="M22.4033 2.2386C23.4451 5.13794 24.2352 8.20161 24.8664 11.2276C26.2732 18.0373 26.85 25.0255 26.4228 31.9503C26.2847 34.0658 26.0075 36.6726 25.6365 38.7476C23.6553 50.6716 18.3724 60.7157 9.95977 69.1382C8.73075 63.9687 6.35926 59.162 2.45644 55.3308C1.36905 54.2653 -0.29719 55.6535 0.535785 56.9115C1.86231 58.8398 2.93936 60.8702 3.66993 62.9864C5.15295 67.2635 5.24119 71.8092 4.73326 76.292C4.47551 78.5566 4.05826 80.8218 3.55015 83.0749C3.38943 83.8716 3.49234 84.7293 3.90493 85.5033C4.84587 87.2584 7.03463 87.9163 8.79106 86.9745C9.91089 86.3813 11.0248 85.7382 12.1414 85.1658C16.5941 82.8652 21.5448 80.9392 26.5147 80.9199C28.5883 80.91 30.318 81.2279 32.4949 81.5883C35.3664 82.0766 38.0868 79.9352 38.2797 77.0308C38.4779 74.287 36.412 71.9028 33.6673 71.7066C31.305 71.5065 28.4695 71.3247 25.9741 71.5934C23.7522 71.8146 21.6085 72.2836 19.5274 72.9334C28.476 61.1648 32.825 46.911 32.3851 32.0468C32.0516 21.3641 29.7323 10.7509 25.3854 0.992511C24.4482 -0.848453 21.7508 0.316957 22.4033 2.2386Z" fill="#FFBE0F"/>
</svg>
