<svg width="2893" height="625" viewBox="0 0 2893 625" fill="none" xmlns="http://www.w3.org/2000/svg">
<mask id="mask0_2139_1004" style="mask-type:luminance" maskUnits="userSpaceOnUse" x="0" y="0" width="2893" height="625">
<path d="M-0.000835699 0.000183105L0 625L2893 625L2893 -3.56354e-06L-0.000835699 0.000183105Z" fill="white"/>
</mask>
<g mask="url(#mask0_2139_1004)">
<path d="M-372.057 -1044.86C-372.057 -1044.86 -602.949 -570.098 -208.957 -234.04C185.034 102.018 160.659 492.952 160.659 492.952C160.659 492.952 399.184 508.952 427.376 363.393C427.376 363.393 603.417 624.01 804.601 427.393C804.601 427.393 1019.51 768.027 1400.53 500.535C1781.56 233.043 2010.18 534.052 2010.18 534.052C2010.18 534.052 2094.73 418.002 2087.51 310.66C2087.51 310.66 2819.24 747.518 2895.18 85.9935L3236.35 -899.714L-110.132 -2058.01C-110.132 -2058.01 -832.349 -1381.68 -372.057 -1044.86Z" fill="white" stroke="#AC55FF" stroke-width="0.631771" stroke-miterlimit="10"/>
</g>
</svg>
