<svg width="364" height="136" viewBox="0 0 364 136" fill="none" xmlns="http://www.w3.org/2000/svg">
<g clip-path="url(#clip0_2175_699)">
<mask id="mask0_2175_699" style="mask-type:luminance" maskUnits="userSpaceOnUse" x="-172" y="-97" width="528" height="298">
<path d="M356 -96.9996L356 200L-172 200L-172 -96.9997L356 -96.9996Z" fill="white"/>
</mask>
<g mask="url(#mask0_2175_699)">
<path d="M591.438 -252.571C591.438 -252.571 595.767 -78.4053 431.457 -31.4408C267.147 15.5237 220.944 136.246 220.944 136.246C220.944 136.246 147.134 108.394 158.596 60.83C158.596 60.83 70.0571 114.983 36.5676 28.4047C36.5676 28.4047 -74.5957 101.261 -152.382 -31.2208C-230.169 -163.702 -340.02 -104.624 -340.02 -104.624C-340.02 -104.624 -349.516 -151.044 -332.653 -182.287C-332.653 -182.287 -612.174 -151.291 -544.406 -360.319L-511.898 -702.999L651.501 -592.636C651.498 -592.636 775.76 -290.686 591.438 -252.571Z" fill="white"/>
</g>
</g>
<defs>
<clipPath id="clip0_2175_699">
<rect width="364" height="136" fill="white" transform="matrix(1 -9.28627e-08 -8.23015e-08 -1 0 136)"/>
</clipPath>
</defs>
</svg>
