<svg width="199" height="55" viewBox="0 0 199 55" fill="none" xmlns="http://www.w3.org/2000/svg">
<g clip-path="url(#clip0_698_9153)">
<mask id="mask0_698_9153" style="mask-type:luminance" maskUnits="userSpaceOnUse" x="-1" y="-40" width="200" height="112">
<path d="M198.667 -39.9997L198.667 72L-0.443832 72.0001L-0.443801 -39.9996L198.667 -39.9997Z" fill="white"/>
</mask>
<g mask="url(#mask0_698_9153)">
<path d="M287.451 -98.6665C287.451 -98.6665 289.084 -32.988 227.122 -15.2775C165.16 2.43303 147.737 47.9578 147.737 47.9578C147.737 47.9578 119.903 37.4547 124.225 19.5182C124.225 19.5182 90.8368 39.9395 78.2078 7.29055C78.2078 7.29055 36.2878 34.7647 6.95421 -15.1944C-22.3793 -65.1535 -63.8047 -42.8748 -63.8047 -42.8748C-63.8047 -42.8748 -67.3856 -60.38 -61.0265 -72.1617C-61.0265 -72.1617 -166.435 -60.4732 -140.879 -139.298L-128.62 -268.524L310.101 -226.906C310.1 -226.906 356.96 -113.04 287.451 -98.6665Z" fill="#F8F4F3"/>
</g>
</g>
<defs>
<clipPath id="clip0_698_9153">
<rect width="199" height="54.9999" fill="white" transform="matrix(1 -7.06279e-07 -1.08211e-08 -1 0 55)"/>
</clipPath>
</defs>
</svg>
