<svg width="80" height="80" viewBox="0 0 80 80" fill="none" xmlns="http://www.w3.org/2000/svg">
<circle cx="40" cy="40" r="40" fill="#240642"/>
<path d="M42.147 2.87152L21.6746 7.28097V18.9345L48.7612 23.6589L65.769 16.7298L59.7848 7.28097L42.147 2.87152Z" fill="#240642"/>
<path d="M20.0572 56.6697C20.0572 59.5674 21.506 61.1107 24.2934 61.1107C27.0493 61.1107 28.4509 59.5831 28.4509 56.5595V51.2367L29.2383 49.5201H26.3407L27.5848 51.0004V56.528C27.5848 58.7327 26.6714 59.8508 24.9234 59.8508C23.1753 59.8508 22.2777 58.7327 22.2777 56.5595V51.2367L23.0651 49.5201H18.8131L20.0572 51.0004V56.6697ZM30.6656 61.0949L32.4294 60.2445C33.3585 60.78 34.6184 61.1107 35.7365 61.1107C38.0042 61.1107 39.5317 59.7721 39.5317 57.8036C39.5317 56.15 38.4294 55.0634 35.8625 54.1343L34.2089 53.5359C32.7601 52.9689 32.1932 52.3705 32.1932 51.5201C32.1932 50.6697 32.7758 50.1343 33.7365 50.1343C34.6813 50.1343 35.8152 50.6855 37.201 51.8508L38.5554 53.0004V49.5674L36.7758 50.402C35.7995 49.6776 34.6656 49.2839 33.579 49.2839C31.6892 49.2839 30.3506 50.5122 30.3506 52.2603C30.3506 53.8508 31.453 55.0477 33.642 55.8508L35.4687 56.4965C37.0908 57.1264 37.6577 57.6776 37.6577 58.6225C37.6577 59.6461 36.9806 60.2288 35.7995 60.2288C34.7128 60.2288 33.4845 59.7406 32.2089 58.7957L30.6656 57.5674V61.0949ZM44.8054 60.9374C48.7109 60.9374 50.8211 58.9689 50.8211 55.3626C50.8211 51.6776 48.5849 49.5201 44.8211 49.5201H40.3329L41.577 51.0004V59.2209L40.7896 60.9374H44.8054ZM44.8211 50.402C47.0731 50.402 48.3959 52.1815 48.3959 55.2996C48.3959 58.3705 47.1361 60.0555 44.8054 60.0555H43.7975V50.402H44.8211ZM56.3377 60.9374L55.0936 59.4571V56.6225C58.9519 56.591 61.0936 55.2209 61.0936 52.8272C61.0936 50.717 59.4401 49.5201 56.5267 49.5201H51.6291L52.8732 51.0004V59.2209L52.0857 60.9374H56.3377ZM56.1645 50.3863C57.8338 50.3863 58.7787 51.3154 58.7787 52.9689C58.7787 54.7957 57.5976 55.7406 55.0936 55.8036V50.3863H56.1645Z" fill="white"/>
<path d="M71.3414 28.2875C62.724 5.9559 34.3402 -0.821821 16.8408 15.6564C13.1034 19.1615 10.2051 23.4966 8.33444 28.2875C8.26989 28.4541 8.08141 28.5354 7.91616 28.4708C7.75737 28.4089 7.67604 28.2346 7.72509 28.0745C8.7566 24.7257 10.3703 21.5472 12.4308 18.6825C15.0192 15.0974 18.3319 12.0313 22.0977 9.70882C35.2413 1.52392 52.9615 3.5908 63.8149 14.6482C65.0607 15.9043 66.2097 17.2534 67.2451 18.6825C69.3055 21.5459 70.918 24.7257 71.9508 28.0732C72.0489 28.4644 71.5222 28.6748 71.3414 28.2862V28.2875Z" fill="#F8F4F3"/>
<path d="M71.3414 51.7125C62.724 74.0441 34.3402 80.8218 16.8408 64.3436C13.1034 60.8385 10.2051 56.5034 8.33444 51.7125C8.26989 51.5459 8.08141 51.4646 7.91616 51.5292C7.75737 51.5911 7.67604 51.7654 7.72509 51.9255C8.7566 55.2743 10.3703 58.4528 12.4308 61.3175C15.0192 64.9026 18.3319 67.9687 22.0977 70.2912C35.2413 78.4761 52.9615 76.4092 63.8149 65.3518C65.0607 64.0957 66.2097 62.7466 67.2451 61.3175C69.3055 58.4541 70.918 55.2743 71.9508 51.9268C72.0489 51.5356 71.5222 51.3252 71.3414 51.7138V51.7125Z" fill="#F8F4F3"/>
<mask id="path-6-outside-1_2_18629" maskUnits="userSpaceOnUse" x="15.2554" y="9.6601" width="53" height="34" fill="black">
<rect fill="white" x="15.2554" y="9.6601" width="53" height="34"/>
<path d="M63.6401 18.3148C63.5139 18.4555 63.398 18.6053 63.1659 18.5368C63.0978 18.5169 63.04 18.5997 62.9974 18.6587C62.745 19.0054 62.6052 19.384 62.7163 19.8152C62.7454 19.928 62.7426 19.9945 62.6383 20.0535C62.4794 20.1432 62.477 20.2926 62.5352 20.4345C62.6033 20.6003 62.6614 20.7637 62.6713 20.9446C62.6745 21.004 62.6841 21.0868 62.7633 21.0952C62.8262 21.1016 62.8493 21.0311 62.8764 20.9836C62.9043 20.935 62.9226 20.8804 62.9505 20.8318C62.9871 20.7668 62.9751 20.6473 63.0799 20.6541C63.173 20.66 63.2216 20.7501 63.2582 20.8342C63.3343 21.0103 63.2801 21.157 63.1348 21.2598C62.8318 21.4738 62.4695 21.4846 62.1191 21.5276C62.0351 21.538 62.0339 21.4881 62.0554 21.4192C62.1028 21.2666 61.971 21.2522 61.881 21.212C61.7584 21.1578 61.7795 21.2757 61.7532 21.3287C61.6815 21.473 61.5465 21.5029 61.41 21.516C61.1934 21.5372 60.9756 21.5443 60.7582 21.5587C60.71 21.5619 60.6602 21.5639 60.6144 21.5766C60.4468 21.6236 60.2286 21.6344 60.1976 21.8468C60.1653 22.0672 60.37 22.129 60.5308 22.2031C60.6116 22.2286 60.6921 22.2354 60.7721 22.1991C60.7813 22.1863 60.7928 22.1831 60.8072 22.1891C60.888 22.1672 60.917 22.2067 60.9162 22.2812C60.5655 22.4462 60.1908 22.4577 59.8153 22.4406C59.5912 22.4306 59.582 22.5004 59.6903 22.6673C59.7644 22.7817 59.8309 22.9048 59.8758 23.0328C59.9491 23.2412 59.9467 23.4636 59.7863 23.625C59.6095 23.8027 59.5135 24.0163 59.408 24.2339C59.2181 24.6252 59.015 24.6372 58.7538 24.2877C58.7136 24.2339 58.7025 24.147 58.5989 24.1398C58.6292 24.5196 58.7753 24.8767 58.7813 25.2553C58.7542 25.433 58.7901 25.6103 58.7801 25.7881C58.718 25.9957 58.663 26.2057 58.591 26.4097C58.5412 26.5508 58.4421 26.6393 58.2744 26.6058C58.1076 26.5723 58.0901 26.4548 58.0984 26.3137C58.1211 25.9363 58.1172 25.5601 58.2171 25.1867C58.3095 24.842 58.2334 24.4969 58.0865 24.1725C58.0566 24.1068 58.0136 24.0362 57.9328 24.031C57.8369 24.0251 57.7875 24.1024 57.7604 24.1777C57.596 24.6344 57.4248 25.0907 57.6497 25.5812C57.7091 25.7104 57.6692 25.8534 57.6565 25.9889C57.6354 26.2157 57.6637 26.4245 57.8329 26.5947C57.8552 26.6174 57.8902 26.6488 57.887 26.6724C57.8452 26.9868 58.0447 27.2227 58.1478 27.4897C58.1203 27.6184 58.1426 27.7471 58.1486 27.8759C58.1558 27.9691 58.1016 28.0436 58.026 28.0564C57.7664 28.0998 57.8361 28.2477 57.8966 28.4039C57.9217 28.4688 57.934 28.539 57.9523 28.6067C57.944 28.7191 57.9432 28.8315 57.9523 28.9439L57.8181 29.2459C57.7656 29.273 57.7732 29.2962 57.8229 29.3165C57.9456 29.5205 57.848 29.6293 57.6509 29.6508C57.2201 29.6982 56.9334 29.9509 56.6953 30.2817C56.2566 30.8922 55.6828 31.3875 55.246 32.002C55.0227 32.3157 54.6663 32.4563 54.3 32.5484C54.1614 32.5831 54.0615 32.6349 54.0683 32.7983C54.0695 32.8293 54.0491 32.8604 54.0472 32.8923C54.0149 33.3948 53.8513 33.8332 53.4376 34.1504C53.2644 34.2831 53.2699 34.4465 53.3221 34.6434C53.7195 36.1477 54.1324 37.6485 54.4397 39.1752C54.47 39.3247 54.4875 39.4769 54.511 39.6275C54.4951 39.6462 54.4899 39.669 54.4911 39.6921C54.4919 39.7092 54.4827 39.7271 54.4955 39.7435C54.4975 39.7268 54.5062 39.7152 54.5226 39.7084C54.5843 39.936 54.6213 40.1667 54.6114 40.4034C54.5707 40.5975 54.5735 40.7912 54.6102 40.9852C54.6305 41.1646 54.601 41.3399 54.5608 41.5133C54.5377 41.6133 54.5242 41.736 54.4043 41.7659C54.2693 41.7998 54.1977 41.6858 54.1383 41.595C54.0284 41.4268 53.9217 41.2534 53.8385 41.0709C53.6808 40.7266 53.5387 40.3747 53.3926 40.0252C53.2604 39.7088 53.0681 39.488 52.6827 39.5331C52.4736 39.5578 52.4019 39.4203 52.3745 39.2406C52.31 38.8193 52.3745 38.4021 52.4075 37.9841C52.4354 37.6302 52.5094 37.2799 52.4887 36.922C52.4617 36.4574 52.2936 36.2677 51.8314 36.2107C51.5594 36.1772 51.2839 36.1748 51.012 36.1402C50.5565 36.0824 50.2117 35.8425 49.9959 35.4408C49.8963 35.2555 49.7625 35.1873 49.567 35.2001C49.1645 35.2268 48.7615 35.2563 48.3586 35.2774C48.0771 35.2921 47.7952 35.2949 47.5209 35.2116C47.5412 35.177 47.5818 35.1953 47.6089 35.1782C47.5671 35.1913 47.5185 35.1702 47.4811 35.2045C47.2469 35.1881 47.0443 35.0359 46.8038 35.0459C46.7719 35.047 46.7393 35.0347 46.7078 35.0375C46.5362 35.053 46.3113 34.9972 46.2344 35.1921C46.1616 35.377 46.3547 35.489 46.4725 35.603C46.7687 35.8891 46.94 36.2545 47.1231 36.612C47.1538 36.6714 47.1896 36.7575 47.063 36.7678C46.6465 36.8025 46.2304 36.8539 45.8136 36.7706C45.8287 36.7363 45.8625 36.7439 45.8896 36.7363C45.8374 36.7419 45.7809 36.7204 45.7343 36.761C45.4807 36.7535 45.2796 36.6455 45.1606 36.4211C45.0232 36.1629 44.7986 36.0605 44.5279 36.0417C44.3268 36.0278 44.1222 36.0174 43.9231 36.0405C43.6973 36.0668 43.5436 36.0003 43.4071 35.8166C43.202 35.54 43.0308 35.5292 42.8811 35.8421C42.6358 36.3546 42.1907 36.6997 41.8857 37.158C41.7089 37.4234 41.4294 37.5597 41.1435 37.6796C40.2847 38.0403 40.1147 38.3328 40.2413 39.2681C40.2891 39.6199 40.3627 39.9678 40.4193 40.3185C40.4344 40.4134 40.4412 40.5126 40.4324 40.6079C40.4149 40.8019 40.3106 40.8864 40.1178 40.8107C39.9833 40.7577 39.8495 40.6991 39.7225 40.6298C39.2694 40.3823 38.8194 40.1288 38.3353 39.9439C38.2704 39.9192 38.1939 39.9005 38.1692 39.8184C38.1533 39.7546 38.1931 39.6905 38.1692 39.6267C38.4929 39.0465 38.262 38.5874 37.8419 38.1793C37.7082 38.0494 37.6305 37.9016 37.5827 37.7258C37.4685 37.3046 37.3446 36.8862 37.105 36.5148C36.8661 36.1449 36.5499 35.9082 36.0853 35.9397C35.7205 35.9648 35.6067 36.1063 35.6314 36.4733C35.6397 36.5961 35.7281 36.7563 35.6043 36.8364C35.4801 36.9169 35.3415 36.8041 35.2216 36.7459C34.8657 36.5721 34.5356 36.353 34.2008 36.1426C34.0714 36.0613 34.0319 35.9321 33.9933 35.8002C33.8898 35.444 33.8058 35.0821 33.6465 34.7438C33.154 33.6977 32.1124 33.4968 31.2723 33.5809C31.1672 33.5913 31.0585 33.6272 31.0175 33.7391C30.941 33.9476 30.7694 33.948 30.5978 33.938C30.0961 33.9089 29.6088 33.7874 29.1174 33.6937C28.7025 33.6148 28.2821 33.6112 27.864 33.5765C27.2847 33.5279 26.779 33.2896 26.3538 32.9226C25.8119 32.4555 25.2087 32.3372 24.527 32.4241C24.2316 32.4619 23.9333 32.5022 23.6331 32.4826C23.1888 32.4539 22.9794 32.2491 23.0427 31.8104C23.1119 31.3293 22.8945 31.0564 22.4988 30.8723C22.1771 30.7224 21.8462 30.5925 21.5253 30.4411C20.9431 30.1661 20.5143 29.7712 20.5115 29.0662C20.5115 28.9638 20.4546 28.898 20.3774 28.851C19.9406 28.5848 19.7952 28.156 19.7323 27.6862C19.7005 27.4475 19.6543 27.2474 19.3672 27.1896C19.1881 27.1534 19.1598 26.9796 19.1474 26.823C19.1212 26.499 19.1554 26.1774 19.1968 25.8558C19.2442 25.4888 19.1267 25.3824 18.774 25.4657C18.6876 25.486 18.6828 25.4155 18.6621 25.3736C18.59 25.2294 18.5307 25.0791 18.4582 24.9353C18.4164 24.8528 18.3858 24.7559 18.2556 24.7611C18.1341 24.7663 18.1524 24.6491 18.1437 24.5814C18.115 24.3654 18.0971 24.1474 18.0843 23.9294C18.07 23.6831 17.9952 23.4683 17.7909 23.3177C17.5926 23.1715 17.56 22.9786 17.6185 22.7574C17.6492 22.6406 17.6782 22.5219 17.7236 22.4103C17.8701 22.0477 17.8745 21.6894 17.7292 21.3244C17.6488 21.1223 17.5779 20.9147 17.597 20.6903C17.6229 20.6114 17.646 20.5325 17.5918 20.4552C17.4795 20.2587 17.3677 20.0619 17.2554 19.8654V19.8168C17.3099 19.6956 17.2661 19.5677 17.2805 19.4438C17.2828 19.2637 17.3374 19.0983 17.4294 18.9457C17.5727 18.7077 17.636 18.4292 17.8036 18.2048C17.8104 18.2048 17.8204 18.202 17.8259 18.2056C17.8431 18.2164 17.8574 18.2184 17.8558 18.2108C17.8044 17.9813 17.8279 17.7461 17.8092 17.5266C17.8168 17.5612 17.822 17.6067 17.7805 17.6433C17.7551 17.6409 17.7228 17.6306 17.7204 17.6102C17.6707 17.1551 17.4505 16.7016 17.7041 16.243C17.7395 16.1788 17.7634 16.1091 17.7682 16.0357C17.7798 15.8588 17.8435 15.7229 18.031 15.6743C18.0692 15.6643 18.115 15.6496 18.1202 15.6041C18.1277 15.5396 18.0688 15.5304 18.0254 15.5149C17.9573 15.4902 17.8841 15.4778 17.8208 15.4404C17.7224 15.3822 17.6726 15.3025 17.767 15.2068C17.8478 15.1247 17.8068 15.0383 17.8168 14.9486C17.8482 14.6637 17.7686 14.4266 17.6507 14.1719C17.5819 14.0237 17.5468 13.8579 17.4397 13.7224C17.3426 13.5996 17.2793 13.4614 17.2801 13.3C17.2801 13.2231 17.2801 13.1461 17.2801 13.0696C17.3501 12.9278 17.5209 12.8628 17.6659 12.978C17.8924 13.1585 18.1417 13.1473 18.3993 13.1501C18.5824 13.1521 18.7576 13.182 18.8317 13.3884C18.8221 13.4992 18.8365 13.608 18.8612 13.7164C18.8723 13.8459 18.8261 13.975 18.8596 14.1034C18.885 14.1998 18.9241 14.2994 19.0403 14.3034C19.1554 14.3074 19.2135 14.2133 19.2346 14.1173C19.2896 13.8678 19.2733 13.6188 19.1976 13.3745C19.1423 13.1964 19.0618 13.0282 18.9906 12.8564C18.9535 12.7668 18.9125 12.6787 18.8779 12.5878C18.67 12.0474 18.7863 11.8749 19.362 11.8749C26.5501 11.8745 33.7377 11.8737 40.9257 11.8769C41.3314 11.8769 41.7336 11.8884 42.0943 11.6601H42.24C42.3842 11.737 42.4037 11.8741 42.3977 12.0136C42.3878 12.2411 42.4949 12.3643 42.7135 12.3906C42.9464 12.4185 43.1399 12.487 43.2721 12.7106C43.3461 12.8361 43.4883 12.8453 43.5938 12.7086C43.6432 12.6444 43.687 12.5759 43.7746 12.5587C43.8825 12.5619 43.9912 12.5755 44.0971 12.5412C44.3893 12.5695 44.4582 12.6181 44.5351 12.8943C44.5677 13.0114 44.635 13.0561 44.7437 13.0505C44.979 13.0381 45.1845 13.0896 45.3684 13.2549C45.5643 13.4307 45.5547 13.1398 45.6611 13.1039C45.7467 13.1382 45.6853 13.2179 45.716 13.2765C45.7029 13.2003 45.7248 13.1242 45.6706 13.0632C45.7216 12.9377 45.8076 12.9804 45.8804 13.029C45.9724 13.0907 46.0548 13.1665 46.1241 13.2537C46.1373 13.2828 46.1301 13.3279 46.1862 13.3215C46.2356 13.3159 46.1918 13.2749 46.2133 13.2597C46.3304 13.1115 46.4558 13.1278 46.5868 13.239C46.6358 13.2804 46.68 13.3279 46.7317 13.3661C46.9913 13.559 47.2055 13.5251 47.3863 13.2609C47.4492 13.1689 47.4946 13.0593 47.6256 13.0429C47.7419 13.0541 47.8581 13.0632 47.9728 13.0278C48.2965 13.0286 48.539 13.2031 48.756 13.4131C48.9336 13.5853 49.1139 13.7399 49.3672 13.7814C49.4149 13.7893 49.4651 13.8041 49.5001 13.8372C49.6725 14.0009 49.8565 14.138 50.1061 14.1556C50.14 14.158 50.1539 14.1942 50.1483 14.2305C50.0783 14.2783 50.0062 14.2516 49.9357 14.2576C50.013 14.2516 50.0918 14.2819 50.1655 14.2205C50.2666 14.2261 50.32 14.2998 50.3765 14.368C50.4231 14.4238 50.4585 14.4979 50.5226 14.5278C50.7388 14.6282 50.9076 14.7525 50.9136 15.0243C50.9156 15.1184 51.0215 15.1383 51.1035 15.1375C51.2755 15.1355 51.3731 15.2224 51.4213 15.3794C51.4798 15.5711 51.5694 15.7185 51.8091 15.6966C51.8959 15.6886 51.9572 15.7532 51.9875 15.8365C52.1033 16.1541 52.2917 16.3848 52.6576 16.4139C52.775 16.4231 52.826 16.5056 52.8256 16.6144C52.8256 16.7857 52.8797 16.9491 52.8945 17.1177C52.916 17.2265 52.7977 17.3484 52.9271 17.4473C53.2564 17.8709 53.1784 18.361 53.1529 18.8412C53.1481 18.9317 53.094 19.011 53.0231 19.0668C52.8682 19.1891 52.8172 19.3505 52.8336 19.5382C52.8606 19.8487 52.7591 20.1065 52.5333 20.3209C52.445 20.405 52.3916 20.5158 52.343 20.627C52.224 20.8999 52.2379 20.951 52.4776 21.1255C52.4581 21.2901 52.5919 21.1618 52.6357 21.2072C52.6675 21.2124 52.6345 21.1658 52.6329 21.198C52.6329 21.202 52.6249 21.2016 52.6094 21.2004C52.5716 21.1972 52.5286 21.206 52.5126 21.155C52.5425 21.0817 52.6094 21.0729 52.6735 21.0689C52.9729 21.0506 53.2373 20.9362 53.4834 20.7732C53.8071 20.5588 54.1555 20.4237 54.55 20.4277C54.6313 20.4285 54.72 20.4174 54.7814 20.3659C55.0664 20.1252 55.4097 20.0129 55.7561 19.9061C55.8369 19.9296 55.8349 19.8658 55.8377 19.8196C55.8385 19.81 55.7867 19.8451 55.7612 19.8148C55.6732 19.7383 55.6187 19.6379 55.5717 19.5354C55.4742 19.3234 55.5076 19.1485 55.6717 18.9819C55.895 18.7556 56.1502 18.6336 56.4799 18.7073C56.7606 18.7703 57.0433 18.7113 57.3252 18.6946C57.3666 18.6922 57.4064 18.6798 57.4343 18.6488C57.6971 18.3567 58.0666 18.1658 58.241 17.7888C58.4934 17.2432 58.9581 17.0563 59.5219 17.0328C59.9678 17.0145 60.4106 17.0603 60.8513 17.1065C61.1627 17.1388 61.4637 17.1117 61.7671 17.0647C61.8069 17.0583 61.8527 17.0527 61.8814 17.0268C62.1032 16.8272 62.3253 16.6303 62.6431 16.6012C62.6729 16.5984 62.7036 16.5606 62.7056 16.5319C62.7303 16.1728 63.1089 15.9353 63.0432 15.5436C63.0313 15.4718 63.0635 15.3901 63.1332 15.3555C63.2953 15.2746 63.3012 15.1287 63.3407 14.9757C63.445 14.5716 63.6656 14.2281 63.9821 13.9507C64.1079 13.9149 64.1625 14.0332 64.252 14.0763C64.3468 14.1635 64.3261 14.2954 64.3771 14.3987C64.3584 14.3712 64.4018 14.4349 64.3723 14.4218C64.3695 14.4206 64.3615 14.4309 64.356 14.4361C64.4272 14.3891 64.5407 14.5059 64.5901 14.3747C64.6275 14.2839 64.6749 14.1954 64.7876 14.203C64.9098 14.2114 64.9544 14.3038 64.9715 14.413C64.9604 14.509 64.9584 14.6043 64.9918 14.6971C64.9811 15.0144 65.0703 15.3112 65.1758 15.6045C65.1662 15.6958 65.1415 15.7879 65.1778 15.8791C65.2092 16.0859 65.3076 16.2561 65.4637 16.3928C65.6142 16.5247 65.6528 16.6666 65.5094 16.8272C65.3944 16.9559 65.4091 17.0591 65.5728 17.1205C65.6814 17.1611 65.7368 17.238 65.769 17.3413V17.4867C65.6504 17.4963 65.5317 17.5082 65.4131 17.5142C65.1535 17.5274 64.9305 17.6015 64.7916 17.8454C64.7537 17.9115 64.7004 17.9797 64.6048 17.9713C64.5252 17.9581 64.446 17.9454 64.3651 17.9593C64.2453 17.9095 64.2477 17.664 64.1023 17.7226C63.9327 17.7916 64.0681 17.9625 64.0808 18.0881C64.1007 18.2861 63.9885 18.3224 63.828 18.3092C63.7651 18.2825 63.7018 18.2598 63.6413 18.3148H63.6401Z"/>
</mask>
<path d="M63.6401 18.3148C63.5139 18.4555 63.398 18.6053 63.1659 18.5368C63.0978 18.5169 63.04 18.5997 62.9974 18.6587C62.745 19.0054 62.6052 19.384 62.7163 19.8152C62.7454 19.928 62.7426 19.9945 62.6383 20.0535C62.4794 20.1432 62.477 20.2926 62.5352 20.4345C62.6033 20.6003 62.6614 20.7637 62.6713 20.9446C62.6745 21.004 62.6841 21.0868 62.7633 21.0952C62.8262 21.1016 62.8493 21.0311 62.8764 20.9836C62.9043 20.935 62.9226 20.8804 62.9505 20.8318C62.9871 20.7668 62.9751 20.6473 63.0799 20.6541C63.173 20.66 63.2216 20.7501 63.2582 20.8342C63.3343 21.0103 63.2801 21.157 63.1348 21.2598C62.8318 21.4738 62.4695 21.4846 62.1191 21.5276C62.0351 21.538 62.0339 21.4881 62.0554 21.4192C62.1028 21.2666 61.971 21.2522 61.881 21.212C61.7584 21.1578 61.7795 21.2757 61.7532 21.3287C61.6815 21.473 61.5465 21.5029 61.41 21.516C61.1934 21.5372 60.9756 21.5443 60.7582 21.5587C60.71 21.5619 60.6602 21.5639 60.6144 21.5766C60.4468 21.6236 60.2286 21.6344 60.1976 21.8468C60.1653 22.0672 60.37 22.129 60.5308 22.2031C60.6116 22.2286 60.6921 22.2354 60.7721 22.1991C60.7813 22.1863 60.7928 22.1831 60.8072 22.1891C60.888 22.1672 60.917 22.2067 60.9162 22.2812C60.5655 22.4462 60.1908 22.4577 59.8153 22.4406C59.5912 22.4306 59.582 22.5004 59.6903 22.6673C59.7644 22.7817 59.8309 22.9048 59.8758 23.0328C59.9491 23.2412 59.9467 23.4636 59.7863 23.625C59.6095 23.8027 59.5135 24.0163 59.408 24.2339C59.2181 24.6252 59.015 24.6372 58.7538 24.2877C58.7136 24.2339 58.7025 24.147 58.5989 24.1398C58.6292 24.5196 58.7753 24.8767 58.7813 25.2553C58.7542 25.433 58.7901 25.6103 58.7801 25.7881C58.718 25.9957 58.663 26.2057 58.591 26.4097C58.5412 26.5508 58.4421 26.6393 58.2744 26.6058C58.1076 26.5723 58.0901 26.4548 58.0984 26.3137C58.1211 25.9363 58.1172 25.5601 58.2171 25.1867C58.3095 24.842 58.2334 24.4969 58.0865 24.1725C58.0566 24.1068 58.0136 24.0362 57.9328 24.031C57.8369 24.0251 57.7875 24.1024 57.7604 24.1777C57.596 24.6344 57.4248 25.0907 57.6497 25.5812C57.7091 25.7104 57.6692 25.8534 57.6565 25.9889C57.6354 26.2157 57.6637 26.4245 57.8329 26.5947C57.8552 26.6174 57.8902 26.6488 57.887 26.6724C57.8452 26.9868 58.0447 27.2227 58.1478 27.4897C58.1203 27.6184 58.1426 27.7471 58.1486 27.8759C58.1558 27.9691 58.1016 28.0436 58.026 28.0564C57.7664 28.0998 57.8361 28.2477 57.8966 28.4039C57.9217 28.4688 57.934 28.539 57.9523 28.6067C57.944 28.7191 57.9432 28.8315 57.9523 28.9439L57.8181 29.2459C57.7656 29.273 57.7732 29.2962 57.8229 29.3165C57.9456 29.5205 57.848 29.6293 57.6509 29.6508C57.2201 29.6982 56.9334 29.9509 56.6953 30.2817C56.2566 30.8922 55.6828 31.3875 55.246 32.002C55.0227 32.3157 54.6663 32.4563 54.3 32.5484C54.1614 32.5831 54.0615 32.6349 54.0683 32.7983C54.0695 32.8293 54.0491 32.8604 54.0472 32.8923C54.0149 33.3948 53.8513 33.8332 53.4376 34.1504C53.2644 34.2831 53.2699 34.4465 53.3221 34.6434C53.7195 36.1477 54.1324 37.6485 54.4397 39.1752C54.47 39.3247 54.4875 39.4769 54.511 39.6275C54.4951 39.6462 54.4899 39.669 54.4911 39.6921C54.4919 39.7092 54.4827 39.7271 54.4955 39.7435C54.4975 39.7268 54.5062 39.7152 54.5226 39.7084C54.5843 39.936 54.6213 40.1667 54.6114 40.4034C54.5707 40.5975 54.5735 40.7912 54.6102 40.9852C54.6305 41.1646 54.601 41.3399 54.5608 41.5133C54.5377 41.6133 54.5242 41.736 54.4043 41.7659C54.2693 41.7998 54.1977 41.6858 54.1383 41.595C54.0284 41.4268 53.9217 41.2534 53.8385 41.0709C53.6808 40.7266 53.5387 40.3747 53.3926 40.0252C53.2604 39.7088 53.0681 39.488 52.6827 39.5331C52.4736 39.5578 52.4019 39.4203 52.3745 39.2406C52.31 38.8193 52.3745 38.4021 52.4075 37.9841C52.4354 37.6302 52.5094 37.2799 52.4887 36.922C52.4617 36.4574 52.2936 36.2677 51.8314 36.2107C51.5594 36.1772 51.2839 36.1748 51.012 36.1402C50.5565 36.0824 50.2117 35.8425 49.9959 35.4408C49.8963 35.2555 49.7625 35.1873 49.567 35.2001C49.1645 35.2268 48.7615 35.2563 48.3586 35.2774C48.0771 35.2921 47.7952 35.2949 47.5209 35.2116C47.5412 35.177 47.5818 35.1953 47.6089 35.1782C47.5671 35.1913 47.5185 35.1702 47.4811 35.2045C47.2469 35.1881 47.0443 35.0359 46.8038 35.0459C46.7719 35.047 46.7393 35.0347 46.7078 35.0375C46.5362 35.053 46.3113 34.9972 46.2344 35.1921C46.1616 35.377 46.3547 35.489 46.4725 35.603C46.7687 35.8891 46.94 36.2545 47.1231 36.612C47.1538 36.6714 47.1896 36.7575 47.063 36.7678C46.6465 36.8025 46.2304 36.8539 45.8136 36.7706C45.8287 36.7363 45.8625 36.7439 45.8896 36.7363C45.8374 36.7419 45.7809 36.7204 45.7343 36.761C45.4807 36.7535 45.2796 36.6455 45.1606 36.4211C45.0232 36.1629 44.7986 36.0605 44.5279 36.0417C44.3268 36.0278 44.1222 36.0174 43.9231 36.0405C43.6973 36.0668 43.5436 36.0003 43.4071 35.8166C43.202 35.54 43.0308 35.5292 42.8811 35.8421C42.6358 36.3546 42.1907 36.6997 41.8857 37.158C41.7089 37.4234 41.4294 37.5597 41.1435 37.6796C40.2847 38.0403 40.1147 38.3328 40.2413 39.2681C40.2891 39.6199 40.3627 39.9678 40.4193 40.3185C40.4344 40.4134 40.4412 40.5126 40.4324 40.6079C40.4149 40.8019 40.3106 40.8864 40.1178 40.8107C39.9833 40.7577 39.8495 40.6991 39.7225 40.6298C39.2694 40.3823 38.8194 40.1288 38.3353 39.9439C38.2704 39.9192 38.1939 39.9005 38.1692 39.8184C38.1533 39.7546 38.1931 39.6905 38.1692 39.6267C38.4929 39.0465 38.262 38.5874 37.8419 38.1793C37.7082 38.0494 37.6305 37.9016 37.5827 37.7258C37.4685 37.3046 37.3446 36.8862 37.105 36.5148C36.8661 36.1449 36.5499 35.9082 36.0853 35.9397C35.7205 35.9648 35.6067 36.1063 35.6314 36.4733C35.6397 36.5961 35.7281 36.7563 35.6043 36.8364C35.4801 36.9169 35.3415 36.8041 35.2216 36.7459C34.8657 36.5721 34.5356 36.353 34.2008 36.1426C34.0714 36.0613 34.0319 35.9321 33.9933 35.8002C33.8898 35.444 33.8058 35.0821 33.6465 34.7438C33.154 33.6977 32.1124 33.4968 31.2723 33.5809C31.1672 33.5913 31.0585 33.6272 31.0175 33.7391C30.941 33.9476 30.7694 33.948 30.5978 33.938C30.0961 33.9089 29.6088 33.7874 29.1174 33.6937C28.7025 33.6148 28.2821 33.6112 27.864 33.5765C27.2847 33.5279 26.779 33.2896 26.3538 32.9226C25.8119 32.4555 25.2087 32.3372 24.527 32.4241C24.2316 32.4619 23.9333 32.5022 23.6331 32.4826C23.1888 32.4539 22.9794 32.2491 23.0427 31.8104C23.1119 31.3293 22.8945 31.0564 22.4988 30.8723C22.1771 30.7224 21.8462 30.5925 21.5253 30.4411C20.9431 30.1661 20.5143 29.7712 20.5115 29.0662C20.5115 28.9638 20.4546 28.898 20.3774 28.851C19.9406 28.5848 19.7952 28.156 19.7323 27.6862C19.7005 27.4475 19.6543 27.2474 19.3672 27.1896C19.1881 27.1534 19.1598 26.9796 19.1474 26.823C19.1212 26.499 19.1554 26.1774 19.1968 25.8558C19.2442 25.4888 19.1267 25.3824 18.774 25.4657C18.6876 25.486 18.6828 25.4155 18.6621 25.3736C18.59 25.2294 18.5307 25.0791 18.4582 24.9353C18.4164 24.8528 18.3858 24.7559 18.2556 24.7611C18.1341 24.7663 18.1524 24.6491 18.1437 24.5814C18.115 24.3654 18.0971 24.1474 18.0843 23.9294C18.07 23.6831 17.9952 23.4683 17.7909 23.3177C17.5926 23.1715 17.56 22.9786 17.6185 22.7574C17.6492 22.6406 17.6782 22.5219 17.7236 22.4103C17.8701 22.0477 17.8745 21.6894 17.7292 21.3244C17.6488 21.1223 17.5779 20.9147 17.597 20.6903C17.6229 20.6114 17.646 20.5325 17.5918 20.4552C17.4795 20.2587 17.3677 20.0619 17.2554 19.8654V19.8168C17.3099 19.6956 17.2661 19.5677 17.2805 19.4438C17.2828 19.2637 17.3374 19.0983 17.4294 18.9457C17.5727 18.7077 17.636 18.4292 17.8036 18.2048C17.8104 18.2048 17.8204 18.202 17.8259 18.2056C17.8431 18.2164 17.8574 18.2184 17.8558 18.2108C17.8044 17.9813 17.8279 17.7461 17.8092 17.5266C17.8168 17.5612 17.822 17.6067 17.7805 17.6433C17.7551 17.6409 17.7228 17.6306 17.7204 17.6102C17.6707 17.1551 17.4505 16.7016 17.7041 16.243C17.7395 16.1788 17.7634 16.1091 17.7682 16.0357C17.7798 15.8588 17.8435 15.7229 18.031 15.6743C18.0692 15.6643 18.115 15.6496 18.1202 15.6041C18.1277 15.5396 18.0688 15.5304 18.0254 15.5149C17.9573 15.4902 17.8841 15.4778 17.8208 15.4404C17.7224 15.3822 17.6726 15.3025 17.767 15.2068C17.8478 15.1247 17.8068 15.0383 17.8168 14.9486C17.8482 14.6637 17.7686 14.4266 17.6507 14.1719C17.5819 14.0237 17.5468 13.8579 17.4397 13.7224C17.3426 13.5996 17.2793 13.4614 17.2801 13.3C17.2801 13.2231 17.2801 13.1461 17.2801 13.0696C17.3501 12.9278 17.5209 12.8628 17.6659 12.978C17.8924 13.1585 18.1417 13.1473 18.3993 13.1501C18.5824 13.1521 18.7576 13.182 18.8317 13.3884C18.8221 13.4992 18.8365 13.608 18.8612 13.7164C18.8723 13.8459 18.8261 13.975 18.8596 14.1034C18.885 14.1998 18.9241 14.2994 19.0403 14.3034C19.1554 14.3074 19.2135 14.2133 19.2346 14.1173C19.2896 13.8678 19.2733 13.6188 19.1976 13.3745C19.1423 13.1964 19.0618 13.0282 18.9906 12.8564C18.9535 12.7668 18.9125 12.6787 18.8779 12.5878C18.67 12.0474 18.7863 11.8749 19.362 11.8749C26.5501 11.8745 33.7377 11.8737 40.9257 11.8769C41.3314 11.8769 41.7336 11.8884 42.0943 11.6601H42.24C42.3842 11.737 42.4037 11.8741 42.3977 12.0136C42.3878 12.2411 42.4949 12.3643 42.7135 12.3906C42.9464 12.4185 43.1399 12.487 43.2721 12.7106C43.3461 12.8361 43.4883 12.8453 43.5938 12.7086C43.6432 12.6444 43.687 12.5759 43.7746 12.5587C43.8825 12.5619 43.9912 12.5755 44.0971 12.5412C44.3893 12.5695 44.4582 12.6181 44.5351 12.8943C44.5677 13.0114 44.635 13.0561 44.7437 13.0505C44.979 13.0381 45.1845 13.0896 45.3684 13.2549C45.5643 13.4307 45.5547 13.1398 45.6611 13.1039C45.7467 13.1382 45.6853 13.2179 45.716 13.2765C45.7029 13.2003 45.7248 13.1242 45.6706 13.0632C45.7216 12.9377 45.8076 12.9804 45.8804 13.029C45.9724 13.0907 46.0548 13.1665 46.1241 13.2537C46.1373 13.2828 46.1301 13.3279 46.1862 13.3215C46.2356 13.3159 46.1918 13.2749 46.2133 13.2597C46.3304 13.1115 46.4558 13.1278 46.5868 13.239C46.6358 13.2804 46.68 13.3279 46.7317 13.3661C46.9913 13.559 47.2055 13.5251 47.3863 13.2609C47.4492 13.1689 47.4946 13.0593 47.6256 13.0429C47.7419 13.0541 47.8581 13.0632 47.9728 13.0278C48.2965 13.0286 48.539 13.2031 48.756 13.4131C48.9336 13.5853 49.1139 13.7399 49.3672 13.7814C49.4149 13.7893 49.4651 13.8041 49.5001 13.8372C49.6725 14.0009 49.8565 14.138 50.1061 14.1556C50.14 14.158 50.1539 14.1942 50.1483 14.2305C50.0783 14.2783 50.0062 14.2516 49.9357 14.2576C50.013 14.2516 50.0918 14.2819 50.1655 14.2205C50.2666 14.2261 50.32 14.2998 50.3765 14.368C50.4231 14.4238 50.4585 14.4979 50.5226 14.5278C50.7388 14.6282 50.9076 14.7525 50.9136 15.0243C50.9156 15.1184 51.0215 15.1383 51.1035 15.1375C51.2755 15.1355 51.3731 15.2224 51.4213 15.3794C51.4798 15.5711 51.5694 15.7185 51.8091 15.6966C51.8959 15.6886 51.9572 15.7532 51.9875 15.8365C52.1033 16.1541 52.2917 16.3848 52.6576 16.4139C52.775 16.4231 52.826 16.5056 52.8256 16.6144C52.8256 16.7857 52.8797 16.9491 52.8945 17.1177C52.916 17.2265 52.7977 17.3484 52.9271 17.4473C53.2564 17.8709 53.1784 18.361 53.1529 18.8412C53.1481 18.9317 53.094 19.011 53.0231 19.0668C52.8682 19.1891 52.8172 19.3505 52.8336 19.5382C52.8606 19.8487 52.7591 20.1065 52.5333 20.3209C52.445 20.405 52.3916 20.5158 52.343 20.627C52.224 20.8999 52.2379 20.951 52.4776 21.1255C52.4581 21.2901 52.5919 21.1618 52.6357 21.2072C52.6675 21.2124 52.6345 21.1658 52.6329 21.198C52.6329 21.202 52.6249 21.2016 52.6094 21.2004C52.5716 21.1972 52.5286 21.206 52.5126 21.155C52.5425 21.0817 52.6094 21.0729 52.6735 21.0689C52.9729 21.0506 53.2373 20.9362 53.4834 20.7732C53.8071 20.5588 54.1555 20.4237 54.55 20.4277C54.6313 20.4285 54.72 20.4174 54.7814 20.3659C55.0664 20.1252 55.4097 20.0129 55.7561 19.9061C55.8369 19.9296 55.8349 19.8658 55.8377 19.8196C55.8385 19.81 55.7867 19.8451 55.7612 19.8148C55.6732 19.7383 55.6187 19.6379 55.5717 19.5354C55.4742 19.3234 55.5076 19.1485 55.6717 18.9819C55.895 18.7556 56.1502 18.6336 56.4799 18.7073C56.7606 18.7703 57.0433 18.7113 57.3252 18.6946C57.3666 18.6922 57.4064 18.6798 57.4343 18.6488C57.6971 18.3567 58.0666 18.1658 58.241 17.7888C58.4934 17.2432 58.9581 17.0563 59.5219 17.0328C59.9678 17.0145 60.4106 17.0603 60.8513 17.1065C61.1627 17.1388 61.4637 17.1117 61.7671 17.0647C61.8069 17.0583 61.8527 17.0527 61.8814 17.0268C62.1032 16.8272 62.3253 16.6303 62.6431 16.6012C62.6729 16.5984 62.7036 16.5606 62.7056 16.5319C62.7303 16.1728 63.1089 15.9353 63.0432 15.5436C63.0313 15.4718 63.0635 15.3901 63.1332 15.3555C63.2953 15.2746 63.3012 15.1287 63.3407 14.9757C63.445 14.5716 63.6656 14.2281 63.9821 13.9507C64.1079 13.9149 64.1625 14.0332 64.252 14.0763C64.3468 14.1635 64.3261 14.2954 64.3771 14.3987C64.3584 14.3712 64.4018 14.4349 64.3723 14.4218C64.3695 14.4206 64.3615 14.4309 64.356 14.4361C64.4272 14.3891 64.5407 14.5059 64.5901 14.3747C64.6275 14.2839 64.6749 14.1954 64.7876 14.203C64.9098 14.2114 64.9544 14.3038 64.9715 14.413C64.9604 14.509 64.9584 14.6043 64.9918 14.6971C64.9811 15.0144 65.0703 15.3112 65.1758 15.6045C65.1662 15.6958 65.1415 15.7879 65.1778 15.8791C65.2092 16.0859 65.3076 16.2561 65.4637 16.3928C65.6142 16.5247 65.6528 16.6666 65.5094 16.8272C65.3944 16.9559 65.4091 17.0591 65.5728 17.1205C65.6814 17.1611 65.7368 17.238 65.769 17.3413V17.4867C65.6504 17.4963 65.5317 17.5082 65.4131 17.5142C65.1535 17.5274 64.9305 17.6015 64.7916 17.8454C64.7537 17.9115 64.7004 17.9797 64.6048 17.9713C64.5252 17.9581 64.446 17.9454 64.3651 17.9593C64.2453 17.9095 64.2477 17.664 64.1023 17.7226C63.9327 17.7916 64.0681 17.9625 64.0808 18.0881C64.1007 18.2861 63.9885 18.3224 63.828 18.3092C63.7651 18.2825 63.7018 18.2598 63.6413 18.3148H63.6401Z" fill="#240642"/>
<path d="M63.6401 18.3148C63.5139 18.4555 63.398 18.6053 63.1659 18.5368C63.0978 18.5169 63.04 18.5997 62.9974 18.6587C62.745 19.0054 62.6052 19.384 62.7163 19.8152C62.7454 19.928 62.7426 19.9945 62.6383 20.0535C62.4794 20.1432 62.477 20.2926 62.5352 20.4345C62.6033 20.6003 62.6614 20.7637 62.6713 20.9446C62.6745 21.004 62.6841 21.0868 62.7633 21.0952C62.8262 21.1016 62.8493 21.0311 62.8764 20.9836C62.9043 20.935 62.9226 20.8804 62.9505 20.8318C62.9871 20.7668 62.9751 20.6473 63.0799 20.6541C63.173 20.66 63.2216 20.7501 63.2582 20.8342C63.3343 21.0103 63.2801 21.157 63.1348 21.2598C62.8318 21.4738 62.4695 21.4846 62.1191 21.5276C62.0351 21.538 62.0339 21.4881 62.0554 21.4192C62.1028 21.2666 61.971 21.2522 61.881 21.212C61.7584 21.1578 61.7795 21.2757 61.7532 21.3287C61.6815 21.473 61.5465 21.5029 61.41 21.516C61.1934 21.5372 60.9756 21.5443 60.7582 21.5587C60.71 21.5619 60.6602 21.5639 60.6144 21.5766C60.4468 21.6236 60.2286 21.6344 60.1976 21.8468C60.1653 22.0672 60.37 22.129 60.5308 22.2031C60.6116 22.2286 60.6921 22.2354 60.7721 22.1991C60.7813 22.1863 60.7928 22.1831 60.8072 22.1891C60.888 22.1672 60.917 22.2067 60.9162 22.2812C60.5655 22.4462 60.1908 22.4577 59.8153 22.4406C59.5912 22.4306 59.582 22.5004 59.6903 22.6673C59.7644 22.7817 59.8309 22.9048 59.8758 23.0328C59.9491 23.2412 59.9467 23.4636 59.7863 23.625C59.6095 23.8027 59.5135 24.0163 59.408 24.2339C59.2181 24.6252 59.015 24.6372 58.7538 24.2877C58.7136 24.2339 58.7025 24.147 58.5989 24.1398C58.6292 24.5196 58.7753 24.8767 58.7813 25.2553C58.7542 25.433 58.7901 25.6103 58.7801 25.7881C58.718 25.9957 58.663 26.2057 58.591 26.4097C58.5412 26.5508 58.4421 26.6393 58.2744 26.6058C58.1076 26.5723 58.0901 26.4548 58.0984 26.3137C58.1211 25.9363 58.1172 25.5601 58.2171 25.1867C58.3095 24.842 58.2334 24.4969 58.0865 24.1725C58.0566 24.1068 58.0136 24.0362 57.9328 24.031C57.8369 24.0251 57.7875 24.1024 57.7604 24.1777C57.596 24.6344 57.4248 25.0907 57.6497 25.5812C57.7091 25.7104 57.6692 25.8534 57.6565 25.9889C57.6354 26.2157 57.6637 26.4245 57.8329 26.5947C57.8552 26.6174 57.8902 26.6488 57.887 26.6724C57.8452 26.9868 58.0447 27.2227 58.1478 27.4897C58.1203 27.6184 58.1426 27.7471 58.1486 27.8759C58.1558 27.9691 58.1016 28.0436 58.026 28.0564C57.7664 28.0998 57.8361 28.2477 57.8966 28.4039C57.9217 28.4688 57.934 28.539 57.9523 28.6067C57.944 28.7191 57.9432 28.8315 57.9523 28.9439L57.8181 29.2459C57.7656 29.273 57.7732 29.2962 57.8229 29.3165C57.9456 29.5205 57.848 29.6293 57.6509 29.6508C57.2201 29.6982 56.9334 29.9509 56.6953 30.2817C56.2566 30.8922 55.6828 31.3875 55.246 32.002C55.0227 32.3157 54.6663 32.4563 54.3 32.5484C54.1614 32.5831 54.0615 32.6349 54.0683 32.7983C54.0695 32.8293 54.0491 32.8604 54.0472 32.8923C54.0149 33.3948 53.8513 33.8332 53.4376 34.1504C53.2644 34.2831 53.2699 34.4465 53.3221 34.6434C53.7195 36.1477 54.1324 37.6485 54.4397 39.1752C54.47 39.3247 54.4875 39.4769 54.511 39.6275C54.4951 39.6462 54.4899 39.669 54.4911 39.6921C54.4919 39.7092 54.4827 39.7271 54.4955 39.7435C54.4975 39.7268 54.5062 39.7152 54.5226 39.7084C54.5843 39.936 54.6213 40.1667 54.6114 40.4034C54.5707 40.5975 54.5735 40.7912 54.6102 40.9852C54.6305 41.1646 54.601 41.3399 54.5608 41.5133C54.5377 41.6133 54.5242 41.736 54.4043 41.7659C54.2693 41.7998 54.1977 41.6858 54.1383 41.595C54.0284 41.4268 53.9217 41.2534 53.8385 41.0709C53.6808 40.7266 53.5387 40.3747 53.3926 40.0252C53.2604 39.7088 53.0681 39.488 52.6827 39.5331C52.4736 39.5578 52.4019 39.4203 52.3745 39.2406C52.31 38.8193 52.3745 38.4021 52.4075 37.9841C52.4354 37.6302 52.5094 37.2799 52.4887 36.922C52.4617 36.4574 52.2936 36.2677 51.8314 36.2107C51.5594 36.1772 51.2839 36.1748 51.012 36.1402C50.5565 36.0824 50.2117 35.8425 49.9959 35.4408C49.8963 35.2555 49.7625 35.1873 49.567 35.2001C49.1645 35.2268 48.7615 35.2563 48.3586 35.2774C48.0771 35.2921 47.7952 35.2949 47.5209 35.2116C47.5412 35.177 47.5818 35.1953 47.6089 35.1782C47.5671 35.1913 47.5185 35.1702 47.4811 35.2045C47.2469 35.1881 47.0443 35.0359 46.8038 35.0459C46.7719 35.047 46.7393 35.0347 46.7078 35.0375C46.5362 35.053 46.3113 34.9972 46.2344 35.1921C46.1616 35.377 46.3547 35.489 46.4725 35.603C46.7687 35.8891 46.94 36.2545 47.1231 36.612C47.1538 36.6714 47.1896 36.7575 47.063 36.7678C46.6465 36.8025 46.2304 36.8539 45.8136 36.7706C45.8287 36.7363 45.8625 36.7439 45.8896 36.7363C45.8374 36.7419 45.7809 36.7204 45.7343 36.761C45.4807 36.7535 45.2796 36.6455 45.1606 36.4211C45.0232 36.1629 44.7986 36.0605 44.5279 36.0417C44.3268 36.0278 44.1222 36.0174 43.9231 36.0405C43.6973 36.0668 43.5436 36.0003 43.4071 35.8166C43.202 35.54 43.0308 35.5292 42.8811 35.8421C42.6358 36.3546 42.1907 36.6997 41.8857 37.158C41.7089 37.4234 41.4294 37.5597 41.1435 37.6796C40.2847 38.0403 40.1147 38.3328 40.2413 39.2681C40.2891 39.6199 40.3627 39.9678 40.4193 40.3185C40.4344 40.4134 40.4412 40.5126 40.4324 40.6079C40.4149 40.8019 40.3106 40.8864 40.1178 40.8107C39.9833 40.7577 39.8495 40.6991 39.7225 40.6298C39.2694 40.3823 38.8194 40.1288 38.3353 39.9439C38.2704 39.9192 38.1939 39.9005 38.1692 39.8184C38.1533 39.7546 38.1931 39.6905 38.1692 39.6267C38.4929 39.0465 38.262 38.5874 37.8419 38.1793C37.7082 38.0494 37.6305 37.9016 37.5827 37.7258C37.4685 37.3046 37.3446 36.8862 37.105 36.5148C36.8661 36.1449 36.5499 35.9082 36.0853 35.9397C35.7205 35.9648 35.6067 36.1063 35.6314 36.4733C35.6397 36.5961 35.7281 36.7563 35.6043 36.8364C35.4801 36.9169 35.3415 36.8041 35.2216 36.7459C34.8657 36.5721 34.5356 36.353 34.2008 36.1426C34.0714 36.0613 34.0319 35.9321 33.9933 35.8002C33.8898 35.444 33.8058 35.0821 33.6465 34.7438C33.154 33.6977 32.1124 33.4968 31.2723 33.5809C31.1672 33.5913 31.0585 33.6272 31.0175 33.7391C30.941 33.9476 30.7694 33.948 30.5978 33.938C30.0961 33.9089 29.6088 33.7874 29.1174 33.6937C28.7025 33.6148 28.2821 33.6112 27.864 33.5765C27.2847 33.5279 26.779 33.2896 26.3538 32.9226C25.8119 32.4555 25.2087 32.3372 24.527 32.4241C24.2316 32.4619 23.9333 32.5022 23.6331 32.4826C23.1888 32.4539 22.9794 32.2491 23.0427 31.8104C23.1119 31.3293 22.8945 31.0564 22.4988 30.8723C22.1771 30.7224 21.8462 30.5925 21.5253 30.4411C20.9431 30.1661 20.5143 29.7712 20.5115 29.0662C20.5115 28.9638 20.4546 28.898 20.3774 28.851C19.9406 28.5848 19.7952 28.156 19.7323 27.6862C19.7005 27.4475 19.6543 27.2474 19.3672 27.1896C19.1881 27.1534 19.1598 26.9796 19.1474 26.823C19.1212 26.499 19.1554 26.1774 19.1968 25.8558C19.2442 25.4888 19.1267 25.3824 18.774 25.4657C18.6876 25.486 18.6828 25.4155 18.6621 25.3736C18.59 25.2294 18.5307 25.0791 18.4582 24.9353C18.4164 24.8528 18.3858 24.7559 18.2556 24.7611C18.1341 24.7663 18.1524 24.6491 18.1437 24.5814C18.115 24.3654 18.0971 24.1474 18.0843 23.9294C18.07 23.6831 17.9952 23.4683 17.7909 23.3177C17.5926 23.1715 17.56 22.9786 17.6185 22.7574C17.6492 22.6406 17.6782 22.5219 17.7236 22.4103C17.8701 22.0477 17.8745 21.6894 17.7292 21.3244C17.6488 21.1223 17.5779 20.9147 17.597 20.6903C17.6229 20.6114 17.646 20.5325 17.5918 20.4552C17.4795 20.2587 17.3677 20.0619 17.2554 19.8654V19.8168C17.3099 19.6956 17.2661 19.5677 17.2805 19.4438C17.2828 19.2637 17.3374 19.0983 17.4294 18.9457C17.5727 18.7077 17.636 18.4292 17.8036 18.2048C17.8104 18.2048 17.8204 18.202 17.8259 18.2056C17.8431 18.2164 17.8574 18.2184 17.8558 18.2108C17.8044 17.9813 17.8279 17.7461 17.8092 17.5266C17.8168 17.5612 17.822 17.6067 17.7805 17.6433C17.7551 17.6409 17.7228 17.6306 17.7204 17.6102C17.6707 17.1551 17.4505 16.7016 17.7041 16.243C17.7395 16.1788 17.7634 16.1091 17.7682 16.0357C17.7798 15.8588 17.8435 15.7229 18.031 15.6743C18.0692 15.6643 18.115 15.6496 18.1202 15.6041C18.1277 15.5396 18.0688 15.5304 18.0254 15.5149C17.9573 15.4902 17.8841 15.4778 17.8208 15.4404C17.7224 15.3822 17.6726 15.3025 17.767 15.2068C17.8478 15.1247 17.8068 15.0383 17.8168 14.9486C17.8482 14.6637 17.7686 14.4266 17.6507 14.1719C17.5819 14.0237 17.5468 13.8579 17.4397 13.7224C17.3426 13.5996 17.2793 13.4614 17.2801 13.3C17.2801 13.2231 17.2801 13.1461 17.2801 13.0696C17.3501 12.9278 17.5209 12.8628 17.6659 12.978C17.8924 13.1585 18.1417 13.1473 18.3993 13.1501C18.5824 13.1521 18.7576 13.182 18.8317 13.3884C18.8221 13.4992 18.8365 13.608 18.8612 13.7164C18.8723 13.8459 18.8261 13.975 18.8596 14.1034C18.885 14.1998 18.9241 14.2994 19.0403 14.3034C19.1554 14.3074 19.2135 14.2133 19.2346 14.1173C19.2896 13.8678 19.2733 13.6188 19.1976 13.3745C19.1423 13.1964 19.0618 13.0282 18.9906 12.8564C18.9535 12.7668 18.9125 12.6787 18.8779 12.5878C18.67 12.0474 18.7863 11.8749 19.362 11.8749C26.5501 11.8745 33.7377 11.8737 40.9257 11.8769C41.3314 11.8769 41.7336 11.8884 42.0943 11.6601H42.24C42.3842 11.737 42.4037 11.8741 42.3977 12.0136C42.3878 12.2411 42.4949 12.3643 42.7135 12.3906C42.9464 12.4185 43.1399 12.487 43.2721 12.7106C43.3461 12.8361 43.4883 12.8453 43.5938 12.7086C43.6432 12.6444 43.687 12.5759 43.7746 12.5587C43.8825 12.5619 43.9912 12.5755 44.0971 12.5412C44.3893 12.5695 44.4582 12.6181 44.5351 12.8943C44.5677 13.0114 44.635 13.0561 44.7437 13.0505C44.979 13.0381 45.1845 13.0896 45.3684 13.2549C45.5643 13.4307 45.5547 13.1398 45.6611 13.1039C45.7467 13.1382 45.6853 13.2179 45.716 13.2765C45.7029 13.2003 45.7248 13.1242 45.6706 13.0632C45.7216 12.9377 45.8076 12.9804 45.8804 13.029C45.9724 13.0907 46.0548 13.1665 46.1241 13.2537C46.1373 13.2828 46.1301 13.3279 46.1862 13.3215C46.2356 13.3159 46.1918 13.2749 46.2133 13.2597C46.3304 13.1115 46.4558 13.1278 46.5868 13.239C46.6358 13.2804 46.68 13.3279 46.7317 13.3661C46.9913 13.559 47.2055 13.5251 47.3863 13.2609C47.4492 13.1689 47.4946 13.0593 47.6256 13.0429C47.7419 13.0541 47.8581 13.0632 47.9728 13.0278C48.2965 13.0286 48.539 13.2031 48.756 13.4131C48.9336 13.5853 49.1139 13.7399 49.3672 13.7814C49.4149 13.7893 49.4651 13.8041 49.5001 13.8372C49.6725 14.0009 49.8565 14.138 50.1061 14.1556C50.14 14.158 50.1539 14.1942 50.1483 14.2305C50.0783 14.2783 50.0062 14.2516 49.9357 14.2576C50.013 14.2516 50.0918 14.2819 50.1655 14.2205C50.2666 14.2261 50.32 14.2998 50.3765 14.368C50.4231 14.4238 50.4585 14.4979 50.5226 14.5278C50.7388 14.6282 50.9076 14.7525 50.9136 15.0243C50.9156 15.1184 51.0215 15.1383 51.1035 15.1375C51.2755 15.1355 51.3731 15.2224 51.4213 15.3794C51.4798 15.5711 51.5694 15.7185 51.8091 15.6966C51.8959 15.6886 51.9572 15.7532 51.9875 15.8365C52.1033 16.1541 52.2917 16.3848 52.6576 16.4139C52.775 16.4231 52.826 16.5056 52.8256 16.6144C52.8256 16.7857 52.8797 16.9491 52.8945 17.1177C52.916 17.2265 52.7977 17.3484 52.9271 17.4473C53.2564 17.8709 53.1784 18.361 53.1529 18.8412C53.1481 18.9317 53.094 19.011 53.0231 19.0668C52.8682 19.1891 52.8172 19.3505 52.8336 19.5382C52.8606 19.8487 52.7591 20.1065 52.5333 20.3209C52.445 20.405 52.3916 20.5158 52.343 20.627C52.224 20.8999 52.2379 20.951 52.4776 21.1255C52.4581 21.2901 52.5919 21.1618 52.6357 21.2072C52.6675 21.2124 52.6345 21.1658 52.6329 21.198C52.6329 21.202 52.6249 21.2016 52.6094 21.2004C52.5716 21.1972 52.5286 21.206 52.5126 21.155C52.5425 21.0817 52.6094 21.0729 52.6735 21.0689C52.9729 21.0506 53.2373 20.9362 53.4834 20.7732C53.8071 20.5588 54.1555 20.4237 54.55 20.4277C54.6313 20.4285 54.72 20.4174 54.7814 20.3659C55.0664 20.1252 55.4097 20.0129 55.7561 19.9061C55.8369 19.9296 55.8349 19.8658 55.8377 19.8196C55.8385 19.81 55.7867 19.8451 55.7612 19.8148C55.6732 19.7383 55.6187 19.6379 55.5717 19.5354C55.4742 19.3234 55.5076 19.1485 55.6717 18.9819C55.895 18.7556 56.1502 18.6336 56.4799 18.7073C56.7606 18.7703 57.0433 18.7113 57.3252 18.6946C57.3666 18.6922 57.4064 18.6798 57.4343 18.6488C57.6971 18.3567 58.0666 18.1658 58.241 17.7888C58.4934 17.2432 58.9581 17.0563 59.5219 17.0328C59.9678 17.0145 60.4106 17.0603 60.8513 17.1065C61.1627 17.1388 61.4637 17.1117 61.7671 17.0647C61.8069 17.0583 61.8527 17.0527 61.8814 17.0268C62.1032 16.8272 62.3253 16.6303 62.6431 16.6012C62.6729 16.5984 62.7036 16.5606 62.7056 16.5319C62.7303 16.1728 63.1089 15.9353 63.0432 15.5436C63.0313 15.4718 63.0635 15.3901 63.1332 15.3555C63.2953 15.2746 63.3012 15.1287 63.3407 14.9757C63.445 14.5716 63.6656 14.2281 63.9821 13.9507C64.1079 13.9149 64.1625 14.0332 64.252 14.0763C64.3468 14.1635 64.3261 14.2954 64.3771 14.3987C64.3584 14.3712 64.4018 14.4349 64.3723 14.4218C64.3695 14.4206 64.3615 14.4309 64.356 14.4361C64.4272 14.3891 64.5407 14.5059 64.5901 14.3747C64.6275 14.2839 64.6749 14.1954 64.7876 14.203C64.9098 14.2114 64.9544 14.3038 64.9715 14.413C64.9604 14.509 64.9584 14.6043 64.9918 14.6971C64.9811 15.0144 65.0703 15.3112 65.1758 15.6045C65.1662 15.6958 65.1415 15.7879 65.1778 15.8791C65.2092 16.0859 65.3076 16.2561 65.4637 16.3928C65.6142 16.5247 65.6528 16.6666 65.5094 16.8272C65.3944 16.9559 65.4091 17.0591 65.5728 17.1205C65.6814 17.1611 65.7368 17.238 65.769 17.3413V17.4867C65.6504 17.4963 65.5317 17.5082 65.4131 17.5142C65.1535 17.5274 64.9305 17.6015 64.7916 17.8454C64.7537 17.9115 64.7004 17.9797 64.6048 17.9713C64.5252 17.9581 64.446 17.9454 64.3651 17.9593C64.2453 17.9095 64.2477 17.664 64.1023 17.7226C63.9327 17.7916 64.0681 17.9625 64.0808 18.0881C64.1007 18.2861 63.9885 18.3224 63.828 18.3092C63.7651 18.2825 63.7018 18.2598 63.6413 18.3148H63.6401Z" stroke="#F8F4F3" stroke-width="3.14961" stroke-linejoin="round" mask="url(#path-6-outside-1_2_18629)"/>
<g clip-path="url(#clip0_2_18629)">
<path d="M30.1283 27.5868H20.4098C19.1052 27.5868 18.0476 28.6444 18.0476 29.949V38.7525C18.0476 40.0571 19.1052 41.1147 20.4098 41.1147H30.1283C31.4329 41.1147 32.4905 40.0571 32.4905 38.7525V29.949C32.4905 28.6444 31.4329 27.5868 30.1283 27.5868Z" fill="#F8F4F3" stroke="#240642" stroke-width="1.5748" stroke-miterlimit="10"/>
<path d="M25.2691 22.6939C26.2787 22.6939 27.247 23.095 27.961 23.8089C28.6749 24.5229 29.076 25.4912 29.076 26.5009V29.3928H21.4621V26.5009C21.4621 25.4912 21.8632 24.5229 22.5771 23.8089C23.2911 23.095 24.2594 22.6939 25.2691 22.6939Z" stroke="#F8F4F3" stroke-width="1.5748" stroke-miterlimit="10"/>
<path d="M25.2691 34.3561C26.0354 34.3561 26.6565 33.7349 26.6565 32.9686C26.6565 32.2023 26.0354 31.5811 25.2691 31.5811C24.5028 31.5811 23.8816 32.2023 23.8816 32.9686C23.8816 33.7349 24.5028 34.3561 25.2691 34.3561Z" stroke="#240642" stroke-width="0.944882" stroke-miterlimit="10"/>
<path d="M25.269 37.563V33.8836" stroke="#240642" stroke-width="0.944882" stroke-miterlimit="10"/>
</g>
<defs>
<clipPath id="clip0_2_18629">
<rect width="23.1163" height="23.1163" fill="white" transform="translate(13.7109 18.6557)"/>
</clipPath>
</defs>
</svg>
