<svg width="80" height="80" viewBox="0 0 80 80" fill="none" xmlns="http://www.w3.org/2000/svg">
<circle cx="40" cy="40" r="40" fill="#240642"/>
<path d="M71.4592 28.2875C62.8418 5.9559 34.458 -0.821821 16.9585 15.6564C13.2211 19.1615 10.3228 23.4966 8.45218 28.2875C8.38763 28.4541 8.19914 28.5354 8.0339 28.4708C7.87511 28.4089 7.79377 28.2346 7.84283 28.0745C8.87433 24.7257 10.4881 21.5472 12.5485 18.6825C15.1369 15.0974 18.4496 12.0313 22.2155 9.70882C35.3591 1.52392 53.0793 3.5908 63.9327 14.6482C65.1785 15.9043 66.3275 17.2534 67.3628 18.6825C69.4233 21.5459 71.0357 24.7257 72.0685 28.0732C72.1666 28.4644 71.6399 28.6748 71.4592 28.2862V28.2875Z" fill="#F8F4F3"/>
<path d="M71.4592 51.7125C62.8418 74.0441 34.458 80.8218 16.9585 64.3436C13.2211 60.8385 10.3228 56.5034 8.45218 51.7125C8.38763 51.5459 8.19914 51.4646 8.0339 51.5292C7.87511 51.5911 7.79377 51.7654 7.84283 51.9255C8.87433 55.2743 10.4881 58.4528 12.5485 61.3175C15.1369 64.9026 18.4496 67.9687 22.2155 70.2912C35.3591 78.4761 53.0793 76.4092 63.9327 65.3518C65.1785 64.0957 66.3275 62.7466 67.3628 61.3175C69.4233 58.4541 71.0357 55.2743 72.0685 51.9268C72.1666 51.5356 71.6399 51.3252 71.4592 51.7138V51.7125Z" fill="#F8F4F3"/>
<path d="M16.3195 42.4576C15.6386 43.6714 14.6468 44.308 13.5069 44.308C11.6417 44.308 10.6499 42.6796 10.6499 39.5117C10.6499 36.4031 11.5973 34.7007 13.3441 34.7007C14.3359 34.7007 15.2093 35.278 15.8902 36.4179L16.7192 37.7946V34.0938L15.6978 34.5675C15.1057 34.1678 14.1879 33.9458 13.2405 33.9458C10.3095 33.9458 8.35544 36.1662 8.35544 39.6894C8.35544 43.0941 10.1466 45.0629 13.2997 45.0629C14.5136 45.0629 15.831 44.7669 16.9413 44.2339V41.3769L16.3195 42.4576ZM19.205 40.8884C19.205 43.6122 20.5669 45.0629 23.187 45.0629C25.7776 45.0629 27.0951 43.627 27.0951 40.7848V35.7813L27.8352 34.1678H25.1115L26.2809 35.5593V40.7552C26.2809 42.8276 25.4223 43.8787 23.7792 43.8787C22.136 43.8787 21.2922 42.8276 21.2922 40.7848V35.7813L22.0324 34.1678H18.0355L19.205 35.5593V40.8884ZM29.4729 45.0481L31.1309 44.2487C32.0043 44.7521 33.1885 45.0629 34.2396 45.0629C36.3712 45.0629 37.8071 43.8047 37.8071 41.9543C37.8071 40.3999 36.7709 39.3785 34.358 38.5051L32.8037 37.9426C31.4418 37.4097 30.9089 36.8472 30.9089 36.0478C30.9089 35.2484 31.4566 34.7451 32.3596 34.7451C33.2477 34.7451 34.3136 35.2632 35.6163 36.3587L36.8893 37.4393V34.2122L35.2166 34.9968C34.2988 34.3158 33.2329 33.9458 32.2115 33.9458C30.4351 33.9458 29.1769 35.1004 29.1769 36.7436C29.1769 38.2387 30.2131 39.3637 32.2707 40.1187L33.9879 40.7256C35.5126 41.3177 36.0455 41.8358 36.0455 42.724C36.0455 43.6862 35.409 44.2339 34.2988 44.2339C33.2774 44.2339 32.1227 43.775 30.9237 42.8869L29.4729 41.7322V45.0481ZM45.4716 44.9001L44.3021 43.5086V34.9968H45.7528L47.6476 37.4689V34.1678H38.8546V37.4689L40.7346 34.9968H42.2001V43.2865L41.4747 44.9001H45.4716ZM48.587 39.5265C48.587 42.9757 50.4819 45.0629 53.5757 45.0629C56.6992 45.0629 58.6088 42.9757 58.6088 39.5265C58.6088 36.0478 56.6992 33.9458 53.5757 33.9458C50.5411 33.9458 48.587 36.1218 48.587 39.5265ZM56.3143 39.4969C56.3143 42.6648 55.3817 44.2784 53.5757 44.2784C51.7993 44.2784 50.8815 42.6944 50.8815 39.4969C50.8815 36.3143 51.8141 34.7303 53.5757 34.7303C55.3521 34.7303 56.3143 36.3291 56.3143 39.4969ZM62.8118 44.9001L61.6424 43.5086V36.4771L65.3432 45.0629L68.4666 36.8176V43.2865L67.7265 44.9001H71.7233L70.5539 43.5086V35.7813L71.2792 34.1678H67.7561L68.2446 35.1892L65.9057 41.2733L63.4336 35.278L63.7888 34.1678H59.6588L60.8282 35.5593V43.2865L60.0881 44.9001H62.8118Z" fill="white"/>
<path d="M49.9843 10.4858L35.8005 24.868L30.0262 25.6334L30.7822 19.7869L44.9869 5.42591C45.3129 5.08973 45.7017 4.8226 46.1307 4.6401C46.5597 4.4576 47.0202 4.36338 47.4856 4.36292C47.9511 4.36291 48.412 4.45592 48.8419 4.63661C49.2719 4.8173 49.6624 5.08212 49.9911 5.4159C50.3197 5.74967 50.5801 6.14583 50.7573 6.58168C50.9345 7.01753 51.025 7.4845 51.0236 7.95583C51.0245 8.42621 50.9331 8.89209 50.7547 9.3264C50.5763 9.76071 50.3144 10.1548 49.9843 10.4858Z" fill="#240642" stroke="#F8F4F3" stroke-width="1.5748" stroke-miterlimit="10"/>
<path d="M43.0236 7.4137L48.0209 12.4735" stroke="#F8F4F3" stroke-width="1.5748" stroke-miterlimit="10"/>
<path d="M35.8005 24.8574L30.0262 25.6334L30.7822 19.7869C31.9763 20.1077 33.0638 20.7463 33.9318 21.6365C34.8311 22.5191 35.477 23.6323 35.8005 24.8574Z" fill="#240642" stroke="#F8F4F3" stroke-width="1.5748" stroke-miterlimit="10" stroke-linejoin="round"/>
</svg>
