<svg width="80" height="80" viewBox="0 0 80 80" fill="none" xmlns="http://www.w3.org/2000/svg">
<g clip-path="url(#clip0_2_18608)">
<circle cx="40" cy="40" r="40" fill="#240642"/>
<path d="M24.6746 41.3914L26.2337 42.9347V44.8087C25.7297 45.5016 24.9423 45.8953 24.0447 45.8953C22.1234 45.8953 20.9581 44.0213 20.9581 40.8245C20.9581 37.6749 22.0605 35.7536 23.84 35.7536C24.8006 35.7536 25.6668 36.3205 26.4857 37.4701L27.5723 38.9662V35.0292L26.4384 35.6906C25.6982 35.2024 24.7376 34.9505 23.6825 34.9505C20.5329 34.9505 18.5171 37.2969 18.5171 40.9347C18.5171 44.5095 20.4857 46.7772 23.6195 46.7772C24.9896 46.7772 26.1077 46.3363 26.8794 45.4859L28.1392 46.7772V43.1552L28.9108 41.3914H24.6746ZM33.852 46.604C37.7576 46.604 39.8678 44.6355 39.8678 41.0292C39.8678 37.3442 37.6316 35.1867 33.8678 35.1867H29.3796L30.6237 36.667V44.8875L29.8363 46.604H33.852ZM33.8678 36.0686C36.1198 36.0686 37.4426 37.8481 37.4426 40.9662C37.4426 44.0371 36.1827 45.7221 33.852 45.7221H32.8442V36.0686H33.8678ZM44.912 46.604L43.6679 45.1237V42.289C47.5261 42.2575 49.6679 40.8875 49.6679 38.4938C49.6679 36.3835 48.0143 35.1867 45.1009 35.1867H40.2033L41.4474 36.667V44.8875L40.66 46.604H44.912ZM44.7387 36.0528C46.408 36.0528 47.3529 36.982 47.3529 38.6355C47.3529 40.4623 46.1718 41.4072 43.6679 41.4701V36.0528H44.7387ZM54.6745 46.604L53.4304 45.1237V41.4859C54.958 41.4859 55.7611 42.2418 56.2651 44.2418C56.7375 46.0686 57.2887 46.73 58.4068 46.73C59.2887 46.73 59.8241 46.3363 59.9186 45.5489C59.3044 45.5489 59.021 45.2339 58.643 44.2103C58.0288 42.5095 57.1469 41.5331 55.8714 41.2182C57.9816 40.73 59.1627 39.6119 59.1627 37.9898C59.1627 36.1631 57.6351 35.1867 54.7847 35.1867H49.9658L51.2099 36.667V44.8875L50.4225 46.604H54.6745ZM54.517 36.0528C56.0918 36.0528 56.9422 36.793 56.9422 38.1631C56.9422 39.7221 55.8241 40.6355 53.9816 40.6355H53.4304V36.0528H54.517Z" fill="white"/>
<path d="M39.8155 8.87863C39.8724 8.85186 39.9359 8.83847 39.9995 8.83847C40.0631 8.83847 40.1267 8.85186 40.1836 8.87863L41.827 9.74215C41.9274 9.79235 41.9943 9.74215 41.9742 9.63505L41.663 7.80761C41.6563 7.74401 41.663 7.68377 41.6797 7.62352C41.6998 7.56328 41.7299 7.50973 41.7734 7.46287L43.1022 6.17094C43.1825 6.09396 43.1591 6.01698 43.0453 6.00025L41.2111 5.73249C41.1509 5.7191 41.0906 5.69568 41.0404 5.65886C40.9902 5.62204 40.9467 5.57518 40.9166 5.52163L40.0966 3.85485C40.0464 3.75444 39.9661 3.75444 39.9125 3.85485L39.0892 5.51829C39.059 5.57184 39.0155 5.6187 38.9653 5.65551C38.9151 5.69233 38.8549 5.71576 38.7946 5.72914L36.9538 5.99021C36.8434 6.00694 36.8166 6.08392 36.8969 6.1609L38.2256 7.45283C38.2692 7.49969 38.2993 7.55324 38.3194 7.61348C38.3394 7.67373 38.3461 7.73732 38.3394 7.79757L38.0248 9.62501C38.0047 9.73546 38.0717 9.78231 38.1721 9.73211L39.8155 8.87194V8.87863Z" fill="#F8F4F3"/>
<path d="M72.2651 39.9332C72.322 39.9064 72.3856 39.893 72.4492 39.893C72.5129 39.893 72.5765 39.9064 72.6334 39.9332L74.2773 40.797C74.3778 40.8506 74.4414 40.797 74.4246 40.6932L74.1099 38.8652C74.1032 38.8016 74.1099 38.7413 74.13 38.681C74.1501 38.6208 74.1802 38.5672 74.2238 38.5203L75.553 37.2279C75.6333 37.1476 75.6099 37.0706 75.4994 37.0538L73.6613 36.7893C73.601 36.7759 73.5407 36.7525 73.4905 36.7157C73.4403 36.6788 73.3968 36.632 73.3666 36.5784L72.543 34.9144C72.4928 34.8139 72.4124 34.8139 72.3588 34.9144L71.5386 36.5784C71.5084 36.632 71.4649 36.6788 71.4147 36.7157C71.3645 36.7525 71.3075 36.7793 71.2439 36.7893L69.4058 37.0538C69.292 37.0706 69.2685 37.1476 69.3489 37.2279L70.6781 38.5203C70.7216 38.5672 70.7518 38.6208 70.7718 38.681C70.7919 38.7413 70.7986 38.8049 70.7886 38.8652L70.4739 40.6932C70.4571 40.8037 70.5207 40.8506 70.6212 40.797L72.2584 39.9332H72.2651Z" fill="#F8F4F3"/>
<path d="M67.9642 25.6939C68.0212 25.6671 68.0849 25.6537 68.1486 25.6537C68.2123 25.6537 68.2759 25.6671 68.3329 25.6939L69.9719 26.552C70.0724 26.6022 70.1395 26.552 70.116 26.4447L69.801 24.6147C69.7943 24.551 69.801 24.4907 69.8211 24.4304C69.8412 24.37 69.8713 24.3164 69.9149 24.2695L71.2455 22.9757C71.326 22.8986 71.3025 22.8215 71.1919 22.8048L69.3518 22.54C69.2915 22.5266 69.2312 22.5031 69.1809 22.4663C69.1306 22.4294 69.087 22.3825 69.0569 22.3288L68.2357 20.6631C68.1854 20.5625 68.1017 20.5625 68.0514 20.6631L67.2302 22.3288C67.2001 22.3825 67.1598 22.4294 67.1129 22.4663C67.0626 22.5031 67.009 22.5299 66.9487 22.5434L65.0985 22.8115C64.9846 22.8282 64.9611 22.9053 65.0416 22.9824L66.3722 24.2762C66.4158 24.3231 66.4459 24.3767 66.466 24.4371C66.4861 24.4974 66.4928 24.5577 66.4861 24.6214L66.1711 26.4514C66.151 26.562 66.218 26.609 66.3186 26.5587L67.9676 25.6973L67.9642 25.6939Z" fill="#F8F4F3"/>
<path d="M56.283 13.9615C56.3405 13.9344 56.4015 13.9209 56.4624 13.9209C56.5233 13.9209 56.5876 13.9344 56.6451 13.9615L58.2896 14.8243C58.3877 14.8751 58.4554 14.8243 58.4351 14.7194L58.1204 12.8888C58.1136 12.8279 58.1204 12.7636 58.1407 12.7027C58.161 12.6418 58.1914 12.5877 58.2354 12.5403L59.5652 11.2444C59.6464 11.1665 59.6227 11.0887 59.5077 11.0718L57.6703 10.8045C57.6094 10.791 57.5519 10.7673 57.5012 10.73C57.4504 10.6928 57.4098 10.6455 57.376 10.5913L56.5537 8.92654C56.503 8.82503 56.4218 8.82503 56.3676 8.92654L55.5454 10.5913C55.5149 10.6455 55.4709 10.6928 55.4236 10.73C55.3728 10.7673 55.3153 10.791 55.2544 10.8045L53.417 11.0718C53.3054 11.0853 53.2817 11.1665 53.3595 11.2444L54.6893 12.5403C54.7299 12.5877 54.7637 12.6418 54.7807 12.7027C54.801 12.7636 54.8077 12.8246 54.801 12.8888L54.4863 14.7194C54.466 14.8311 54.5336 14.8785 54.6352 14.8243L56.283 13.9615Z" fill="#F8F4F3"/>
<path d="M7.43169 39.9361C7.37474 39.9093 7.31109 39.8959 7.24744 39.8959C7.18379 39.8959 7.12014 39.9093 7.06319 39.9361L5.41833 40.8004C5.31783 40.854 5.25418 40.8004 5.27093 40.6966L5.58583 38.8674C5.59253 38.8038 5.58583 38.7435 5.56573 38.6832C5.54563 38.6229 5.51548 38.5693 5.47193 38.5224L4.14197 37.2293C4.06157 37.1489 4.08502 37.0718 4.19892 37.0551L6.03473 36.7904C6.09503 36.777 6.15533 36.7536 6.20558 36.7167C6.25583 36.6799 6.29938 36.633 6.32953 36.5794L7.15364 34.9144C7.20389 34.8139 7.28429 34.8139 7.33789 34.9144L8.15864 36.5794C8.18879 36.633 8.23234 36.6799 8.28259 36.7167C8.33284 36.7536 8.38979 36.7804 8.45344 36.7904L10.2893 37.0551C10.4032 37.0718 10.4266 37.1489 10.3462 37.2293L9.01625 38.5224C8.9727 38.5693 8.94255 38.6262 8.92245 38.6865C8.90235 38.7468 8.899 38.8105 8.90905 38.8741L9.22395 40.7033C9.24405 40.8138 9.17705 40.8607 9.07655 40.8071L7.42834 39.9394L7.43169 39.9361Z" fill="#F8F4F3"/>
<path d="M11.7459 25.6945C11.6889 25.6677 11.6251 25.6543 11.5614 25.6543C11.4977 25.6543 11.4339 25.6677 11.3769 25.6945L9.74014 26.5532C9.63951 26.6035 9.57243 26.5532 9.59256 26.4459L9.91119 24.6179C9.9179 24.5575 9.91119 24.4938 9.89442 24.4334C9.8743 24.373 9.84411 24.3194 9.80051 24.2724L8.46894 22.9777C8.38844 22.9006 8.41192 22.8234 8.52596 22.8067L10.364 22.5383C10.4244 22.5249 10.4814 22.4981 10.5317 22.4612C10.582 22.4243 10.6223 22.3773 10.6524 22.3203L11.4742 20.6533C11.5245 20.5527 11.605 20.5527 11.6587 20.6533L12.4838 22.3203C12.514 22.374 12.5576 22.4243 12.6079 22.4578C12.6582 22.4947 12.7186 22.5182 12.7789 22.5316L14.617 22.8C14.7277 22.8167 14.7545 22.8939 14.674 22.971L13.3424 24.2657C13.2988 24.3127 13.2686 24.3663 13.2485 24.4267C13.2284 24.4871 13.2217 24.5474 13.2284 24.6112L13.5437 26.4425C13.5638 26.5532 13.4967 26.6001 13.3961 26.5498L11.7459 25.6878V25.6945Z" fill="#F8F4F3"/>
<path d="M23.4697 13.9245C23.4128 13.8977 23.3491 13.8843 23.2855 13.8843C23.2218 13.8843 23.1582 13.8977 23.1012 13.9245L21.4631 14.7955C21.3626 14.8458 21.2989 14.7955 21.3157 14.6883L21.6306 12.8592C21.6373 12.7956 21.6306 12.7353 21.6105 12.675C21.5904 12.6147 21.5602 12.5611 21.5167 12.5142L20.1867 11.221C20.1063 11.1406 20.1298 11.0636 20.2437 11.0502L22.0795 10.7822C22.1398 10.7688 22.2001 10.7453 22.2503 10.7085C22.3006 10.6716 22.3441 10.6247 22.3743 10.5711L23.1984 8.90619C23.2486 8.80569 23.329 8.80569 23.3826 8.90619L24.2034 10.5711C24.2335 10.6247 24.2771 10.6716 24.3273 10.7085C24.3776 10.7453 24.4345 10.7721 24.4982 10.7822L26.334 11.0502C26.4479 11.0636 26.4713 11.144 26.3909 11.221L25.061 12.5142C25.0174 12.5611 24.9873 12.6147 24.9672 12.675C24.9471 12.7353 24.9404 12.7989 24.9504 12.8592L25.2519 14.6816C25.272 14.7922 25.205 14.8391 25.1045 14.7888L23.4697 13.9245Z" fill="#F8F4F3"/>
<path d="M39.8119 75.0175C39.8689 74.9907 39.9325 74.9773 39.9962 74.9773C40.0598 74.9773 40.1235 74.9907 40.1805 75.0175L41.8256 75.882C41.9261 75.9322 41.9931 75.882 41.973 75.7748L41.6614 73.9454C41.6547 73.8817 41.6614 73.8214 41.6781 73.7611C41.6982 73.7008 41.7284 73.6472 41.772 73.6003L43.1021 72.307C43.1825 72.2299 43.1591 72.1529 43.0452 72.1361L41.2091 71.8714C41.1488 71.858 41.0885 71.8312 41.0382 71.7943C40.9879 71.7575 40.9444 71.7106 40.9142 71.657L40.0934 69.9918C40.0431 69.8913 39.9627 69.8913 39.9091 69.9918L39.0848 71.657C39.0547 71.7106 39.0111 71.7608 38.9609 71.7977C38.9106 71.8346 38.8537 71.8614 38.79 71.8748L36.9539 72.1394C36.8433 72.1562 36.8165 72.2333 36.897 72.3103L38.2271 73.6036C38.2707 73.6505 38.3008 73.7041 38.3209 73.7645C38.341 73.8248 38.3477 73.8851 38.341 73.9487L38.0261 75.7781C38.006 75.892 38.073 75.9356 38.1735 75.8853L39.8153 75.0209L39.8119 75.0175Z" fill="#F8F4F3"/>
<path d="M67.9581 56.067C68.015 56.0402 68.0786 56.0268 68.1422 56.0268C68.2057 56.0268 68.2693 56.0402 68.3262 56.067L69.966 56.9304C70.0664 56.9806 70.1333 56.9304 70.1132 56.8233L69.7986 54.9961C69.792 54.9325 69.7986 54.8723 69.8187 54.8121C69.8388 54.7518 69.8689 54.6983 69.9124 54.6514L71.241 53.3597C71.3213 53.2827 71.2979 53.2058 71.1841 53.189L69.3402 52.918C69.2799 52.9046 69.2197 52.8811 69.1695 52.8443C69.1193 52.8075 69.0758 52.7607 69.0457 52.7071L68.2325 51.0506C68.1823 50.9502 68.0986 50.9502 68.0484 51.0506L67.2286 52.7138C67.1984 52.7674 67.1549 52.8142 67.1047 52.851C67.0546 52.8878 66.9977 52.9113 66.9341 52.9247L65.0935 53.1857C64.9797 53.2024 64.9563 53.2794 65.0366 53.3563L66.3652 54.6481C66.4087 54.6949 66.4388 54.7485 66.4589 54.8087C66.479 54.8689 66.4857 54.9325 66.479 54.9928L66.1644 56.8199C66.1443 56.9304 66.2112 56.9806 66.3116 56.927L67.9581 56.0636V56.067Z" fill="#F8F4F3"/>
<path d="M56.2297 70.6287C56.2866 70.602 56.3502 70.5886 56.4137 70.5886C56.4773 70.5886 56.5408 70.602 56.5977 70.6287L58.2402 71.4918C58.3372 71.542 58.4041 71.4918 58.3874 71.3848L58.0729 69.5583C58.0662 69.4947 58.0729 69.4312 58.093 69.3743C58.1131 69.3141 58.1432 69.2606 58.1867 69.2137L59.5147 67.9225C59.595 67.8456 59.5716 67.7686 59.4578 67.7519L57.6213 67.4843C57.5611 67.4709 57.5009 67.4475 57.4507 67.4107C57.4005 67.3739 57.3571 67.327 57.3269 67.2735L56.504 65.611C56.4539 65.5106 56.3736 65.5106 56.3201 65.611L55.4971 67.2735C55.467 67.327 55.4235 67.3739 55.3734 67.4107C55.3232 67.4475 55.2663 67.4709 55.2028 67.4843L53.3663 67.7519C53.2559 67.7686 53.2291 67.8456 53.3094 67.9225L54.6374 69.2137C54.6776 69.2606 54.711 69.3141 54.7311 69.3743C54.7512 69.4345 54.7578 69.4981 54.7512 69.5583L54.4367 71.3848C54.4166 71.4951 54.4835 71.542 54.5839 71.4918L56.2197 70.6287H56.2297Z" fill="#F8F4F3"/>
<path d="M11.7311 56.0677C11.6742 56.041 11.6106 56.0276 11.547 56.0276C11.4834 56.0276 11.4198 56.041 11.3629 56.0677L9.71955 56.9313C9.61914 56.9815 9.5522 56.9313 9.57229 56.8242L9.88355 54.9967C9.89025 54.9331 9.88355 54.8729 9.86682 54.8126C9.84674 54.7524 9.81661 54.6988 9.7731 54.652L8.44436 53.36C8.36403 53.2831 8.38746 53.2061 8.50126 53.1894L10.3354 52.9216C10.399 52.9116 10.4559 52.8848 10.5094 52.8513C10.5596 52.8145 10.6031 52.7676 10.6366 52.7141L11.4566 51.0506C11.5068 50.9502 11.5872 50.9502 11.6407 51.0506L12.4641 52.7141C12.4942 52.7676 12.5377 52.8178 12.5879 52.8547C12.6381 52.8915 12.6983 52.9149 12.7586 52.9283L14.5927 53.196C14.7032 53.2128 14.7299 53.2898 14.6496 53.3667L13.3209 54.6587C13.2774 54.7055 13.2472 54.7591 13.2272 54.8193C13.2071 54.8796 13.2004 54.9432 13.2071 55.0034L13.5217 56.8308C13.5418 56.9413 13.4748 56.9882 13.3744 56.9379L11.7277 56.0711L11.7311 56.0677Z" fill="#F8F4F3"/>
<path d="M23.4697 70.6407C23.4128 70.6139 23.3491 70.6005 23.2855 70.6005C23.2218 70.6005 23.1582 70.6139 23.1012 70.6407L21.4631 71.5151C21.3626 71.5653 21.2989 71.5151 21.3157 71.4079L21.6306 69.5787C21.6373 69.5151 21.6306 69.4548 21.6105 69.3945C21.5904 69.3342 21.5602 69.2806 21.5167 69.2337L20.1867 67.9406C20.1063 67.8635 20.1298 67.7865 20.2437 67.7697L22.0795 67.5017C22.1398 67.4883 22.2001 67.4649 22.2503 67.428C22.3006 67.3912 22.3441 67.3443 22.3743 67.2907L23.1984 65.6257C23.2486 65.5252 23.329 65.5252 23.3826 65.6257L24.2034 67.2907C24.2335 67.3443 24.2771 67.3912 24.3273 67.428C24.3776 67.4649 24.4345 67.4883 24.4982 67.5017L26.334 67.7697C26.4479 67.7865 26.4713 67.8635 26.3909 67.9406L25.061 69.2337C25.0174 69.2806 24.9873 69.3342 24.9672 69.3945C24.9471 69.4548 24.9404 69.5184 24.9504 69.5787L25.262 71.4079C25.2821 71.5184 25.2151 71.5687 25.1146 71.5151L23.4664 70.6407H23.4697Z" fill="#F8F4F3"/>
<path d="M62.8502 31.3879C56.5139 14.9676 35.6434 9.98395 22.7762 22.1003C20.0281 24.6776 17.897 27.8652 16.5215 31.3879C16.4741 31.5103 16.3355 31.5701 16.214 31.5227C16.0972 31.4771 16.0374 31.349 16.0735 31.2312C16.8319 28.7689 18.0185 26.4318 19.5335 24.3254C21.4368 21.6893 23.8726 19.4348 26.6416 17.7271C36.306 11.7088 49.3355 13.2285 57.316 21.3589C58.232 22.2826 59.0769 23.2745 59.8382 24.3254C61.3532 26.4308 62.5388 28.7689 63.2982 31.2303C63.3704 31.5179 62.9831 31.6726 62.8502 31.3869V31.3879Z" fill="#F8F4F3"/>
<path d="M62.8502 48.6121C56.5139 65.0324 35.6434 70.016 22.7762 57.8997C20.0281 55.3224 17.897 52.1348 16.5215 48.6121C16.4741 48.4897 16.3355 48.4299 16.214 48.4773C16.0972 48.5229 16.0374 48.651 16.0735 48.7688C16.8319 51.2311 18.0185 53.5682 19.5335 55.6746C21.4368 58.3107 23.8726 60.5652 26.6416 62.2729C36.306 68.2912 49.3355 66.7715 57.316 58.6411C58.232 57.7174 59.0769 56.7255 59.8382 55.6746C61.3532 53.5692 62.5388 51.2311 63.2982 48.7697C63.3704 48.4821 62.9831 48.3274 62.8502 48.6131V48.6121Z" fill="#F8F4F3"/>
</g>
<defs>
<clipPath id="clip0_2_18608">
<rect width="80" height="80" fill="white"/>
</clipPath>
</defs>
</svg>
