<svg width="80" height="80" viewBox="0 0 80 80" fill="none" xmlns="http://www.w3.org/2000/svg">
<circle cx="40" cy="40" r="40" fill="#240642"/>
<path d="M71.3415 28.2875C62.7241 5.95584 34.3403 -0.821882 16.8409 15.6564C13.1034 19.1614 10.2052 23.4966 8.3345 28.2875C8.26995 28.454 8.08147 28.5353 7.91622 28.4708C7.75743 28.4088 7.6761 28.2345 7.72515 28.0744C8.75666 24.7256 10.3704 21.5472 12.4308 18.6825C15.0193 15.0974 18.332 12.0313 22.0978 9.70876C35.2414 1.52385 52.9616 3.59074 63.815 14.6481C65.0608 15.9042 66.2098 17.2533 67.2452 18.6825C69.3056 21.5459 70.918 24.7256 71.9508 28.0732C72.0489 28.4643 71.5222 28.6748 71.3415 28.2862V28.2875Z" fill="#F8F4F3"/>
<path d="M71.3415 51.7125C62.7241 74.0442 34.3403 80.8219 16.8409 64.3436C13.1034 60.8386 10.2052 56.5034 8.3345 51.7125C8.26995 51.546 8.08147 51.4647 7.91622 51.5292C7.75743 51.5912 7.6761 51.7655 7.72515 51.9256C8.75666 55.2744 10.3704 58.4528 12.4308 61.3175C15.0193 64.9026 18.332 67.9687 22.0978 70.2912C35.2414 78.4761 52.9616 76.4093 63.815 65.3519C65.0608 64.0958 66.2098 62.7467 67.2452 61.3175C69.3056 58.4541 70.918 55.2744 71.9508 51.9268C72.0489 51.5357 71.5222 51.3252 71.3415 51.7138V51.7125Z" fill="#F8F4F3"/>
<g clip-path="url(#clip0_2_18569)">
<path d="M46.6008 6.65328C44.9422 6.26654 43.8593 9.04319 43.8593 9.04319V13.9519C50.0433 14.4041 49.9807 12.7242 49.9807 12.7242C55.9102 12.6588 59.6073 7.8294 59.6073 7.8294C54.1243 9.39226 48.2574 7.04003 46.6008 6.65328Z" fill="#240642" stroke="#F8F4F3" stroke-width="1.5748" stroke-linejoin="round"/>
<path d="M36.0574 13.9497V9.04099C36.0574 9.04099 34.9725 6.26434 33.3158 6.65109C31.6592 7.03784 25.7924 9.39006 20.3093 7.8272C20.3093 7.8272 24.0065 12.6566 29.936 12.722C29.936 12.722 29.8733 14.3999 36.0574 13.9497Z" fill="#240642" stroke="#F8F4F3" stroke-width="1.5748" stroke-linejoin="round"/>
<path d="M39.0814 8.2328V22.2331C39.3641 22.27 39.666 22.3069 40 22.3459C40.3254 22.309 40.6209 22.2722 40.8993 22.2375V8.2328C41.7814 7.86847 42.4045 6.99454 42.4045 5.97097C42.4045 4.62211 41.3254 3.52698 39.9914 3.52698C38.6575 3.52698 37.5784 4.61994 37.5784 5.97097C37.5784 6.99454 38.2014 7.87064 39.0836 8.2328H39.0814Z" fill="#F8F4F3"/>
<path d="M39.9984 30.6195C39.9981 30.6192 39.9982 30.6188 39.9985 30.6187C40.0861 30.5841 40.1715 30.5516 40.2569 30.5127C40.4129 30.4488 40.5678 30.3791 40.7257 30.3018C40.8315 30.25 40.8971 30.1416 40.8971 30.0237V27.7309C40.8971 27.5816 40.7924 27.4521 40.6451 27.4275C40.4471 27.3944 40.2417 27.3687 40.0275 27.349C40.0092 27.3474 39.9907 27.3473 39.9724 27.349C39.7499 27.3689 39.5365 27.396 39.3322 27.431C39.1855 27.4561 39.0814 27.5853 39.0814 27.7341V30.0172C39.0814 30.1351 39.147 30.2435 39.2527 30.2956C39.4146 30.3756 39.5725 30.4478 39.728 30.5105C39.8194 30.5514 39.9086 30.5859 39.9978 30.6203C39.9983 30.6205 39.9987 30.6199 39.9984 30.6195V30.6195Z" fill="#F8F4F3"/>
<path d="M40.8618 40.6117C40.8615 40.6117 40.8614 40.6113 40.8617 40.6111C40.8747 40.6035 40.8844 40.5959 40.8938 40.5868C40.896 40.5847 40.8971 40.5819 40.8971 40.5789V40.2935C40.8971 40.1748 40.8307 40.065 40.7202 40.0218C40.62 39.9827 40.4962 39.9415 40.3511 39.9048C40.2582 39.8799 40.161 39.8565 40.0619 39.8346C40.0183 39.8249 39.9731 39.825 39.9295 39.8347C39.8332 39.856 39.7403 39.8779 39.6531 39.9026C39.4912 39.9436 39.3572 39.9886 39.251 40.0318C39.1441 40.0752 39.0814 40.1826 39.0814 40.298V40.5013C39.0814 40.5449 39.1015 40.5865 39.1371 40.6117V40.6117C39.3384 40.7483 39.602 40.8814 39.8892 41.0188C39.9593 41.0523 40.0408 41.0525 40.111 41.0192C40.3972 40.8833 40.659 40.7486 40.862 40.6123C40.8623 40.6121 40.8621 40.6117 40.8618 40.6117V40.6117Z" fill="#F8F4F3"/>
<path d="M40.0013 36.6528C40.0009 36.6532 40.0013 36.6539 40.0019 36.6538C40.0139 36.6516 40.0242 36.6476 40.0364 36.6455C40.1799 36.613 40.3191 36.5826 40.4561 36.5501C40.5294 36.5325 40.6017 36.515 40.6724 36.497C40.8076 36.4626 40.8993 36.3394 40.8993 36.1999V34.7908C40.8993 34.6772 40.8386 34.5717 40.7373 34.5204C40.54 34.4204 40.3301 34.3323 40.12 34.2512C40.0471 34.2231 39.9661 34.2237 39.8938 34.2537C39.6575 34.3517 39.4385 34.4568 39.2397 34.5658C39.1421 34.6194 39.0836 34.723 39.0836 34.8344V36.1919C39.0836 36.3321 39.1762 36.4559 39.312 36.4908C39.5181 36.5438 39.7369 36.593 39.9636 36.6433C39.9761 36.6454 39.9885 36.6496 40.001 36.6518C40.0015 36.6519 40.0017 36.6525 40.0013 36.6528V36.6528Z" fill="#F8F4F3"/>
<path d="M43.9655 34.6221C43.7856 34.132 43.4837 33.6983 43.0426 33.2819C42.9655 33.2125 42.8885 33.1475 42.8092 33.0824C42.3596 33.3188 41.9228 33.5183 41.5074 33.6744C41.4304 33.7048 41.3468 33.7351 41.2676 33.7633C41.7601 34.0279 42.2119 34.3835 42.4966 34.917C42.5373 34.9929 42.5694 35.0732 42.5973 35.1534H42.5951C42.5951 35.1534 42.6016 35.1707 42.6037 35.1794C42.6101 35.1968 42.6165 35.2141 42.623 35.2315C42.6487 35.3204 42.6658 35.4115 42.6722 35.5047C42.6872 35.6869 42.6679 35.8777 42.6165 36.062C42.6123 36.0729 42.608 36.0859 42.6058 36.0967C42.593 36.1423 42.5716 36.1878 42.5544 36.2312C42.5395 36.2702 42.5288 36.3114 42.5095 36.3504C42.5009 36.3721 42.4902 36.396 42.4774 36.4155L42.4517 36.4589L42.4431 36.4741C42.426 36.5001 42.4067 36.5239 42.3874 36.5478C42.1926 36.808 41.9721 36.9902 41.698 37.1225C41.6851 37.129 41.6702 37.1333 41.6552 37.1398C41.5909 37.168 41.5267 37.1984 41.456 37.2222C41.304 37.2764 41.1434 37.322 40.9786 37.3653C40.9529 37.3718 40.9293 37.3784 40.9036 37.3849C40.9015 37.3849 40.8994 37.3849 40.8951 37.387C40.6874 37.4391 40.469 37.489 40.2442 37.5388C40.242 37.5388 40.2377 37.5388 40.2356 37.5388C40.1585 37.5562 40.0814 37.5735 40.0044 37.5909C39.7067 37.6581 39.4048 37.7297 39.0901 37.8207C39.0901 37.8207 39.0901 37.8207 39.0858 37.8207C38.7047 37.9357 38.2936 38.0831 37.8804 38.3651C37.8547 38.3824 37.8311 38.3976 37.8054 38.4149C37.6941 38.4952 37.5849 38.5928 37.4864 38.7012C37.4007 38.7923 37.3215 38.8899 37.253 38.9918C37.2359 39.0178 37.2187 39.0482 37.2016 39.0764C37.0881 39.265 36.9982 39.4862 36.9383 39.7334C36.9233 39.8158 36.8954 39.9676 36.8847 40.0999L36.874 40.3753L36.8804 40.4816L36.889 40.6182C36.8997 40.6984 36.9147 40.7809 36.9318 40.8589C36.9661 41.0151 37.0068 41.1148 37.071 41.2623C37.2851 41.7112 37.6213 42.0018 37.9189 42.2078C38.2508 41.9541 38.6041 41.748 38.9573 41.5637C38.8439 41.5008 38.7347 41.4358 38.634 41.3685C38.4649 41.2536 38.1673 41.0194 38.0666 40.7397C38.0666 40.7375 38.0581 40.7136 38.0559 40.7115C38.0516 40.6963 38.0452 40.6768 38.0388 40.6507C38.0238 40.6009 38.0195 40.5445 38.0131 40.4816C38.0131 40.4621 38.011 40.4469 38.0088 40.4274C38.0088 40.4187 38.0088 40.4079 38.0088 40.3992C38.0088 40.384 38.0088 40.3688 38.0088 40.3536C38.0088 40.3493 38.0088 40.345 38.0088 40.3428C38.0088 40.3298 38.0088 40.3189 38.0088 40.3081C38.0088 40.2712 38.0152 40.2322 38.0238 40.1932C38.0302 40.1455 38.0367 40.1064 38.0452 40.0717L38.0516 40.0414C38.0559 40.0153 38.0624 39.9915 38.0709 39.9655C38.1437 39.7508 38.2336 39.6142 38.3921 39.4797C38.4263 39.4515 38.4585 39.4233 38.4991 39.393C38.634 39.3019 38.8053 39.2195 38.998 39.1479C39.0259 39.1371 39.058 39.1262 39.088 39.1154C39.1972 39.0764 39.3106 39.0395 39.4305 39.0091C39.6104 38.9592 39.8031 38.918 40.0044 38.8768C40.1307 38.8508 40.2549 38.827 40.3855 38.8009C40.5546 38.7684 40.7281 38.7359 40.9036 38.699C41.212 38.6361 41.5267 38.5624 41.8629 38.4583C41.9485 38.4323 42.0363 38.3998 42.1262 38.3672C42.2804 38.3108 42.441 38.2414 42.6037 38.1547C42.7386 38.0831 42.8735 38.0007 43.0062 37.901C43.0747 37.8511 43.1411 37.7969 43.2075 37.7383L43.3638 37.5844C43.4195 37.5237 43.4751 37.4499 43.5265 37.3805C43.5758 37.3176 43.5929 37.2873 43.61 37.2613L43.7342 37.0531C43.8648 36.8037 43.9612 36.563 44.0318 36.3114C44.1367 35.9428 44.1582 35.5307 44.1025 35.1491C44.0747 34.9626 44.0318 34.7804 43.9676 34.6178L43.9655 34.6221Z" fill="#F8F4F3"/>
<path d="M45.3635 28.1381C45.3592 28.0709 45.3485 27.9863 45.3378 27.9039C45.3292 27.854 45.3185 27.802 45.3078 27.7521C45.2543 27.5092 45.1644 27.2642 45.0423 27.0386C44.9695 26.9042 44.8882 26.7784 44.7982 26.6548C44.051 26.8369 43.308 26.9627 42.5864 27.0668C42.9761 27.2598 43.2609 27.4897 43.445 27.7521C43.5114 27.8453 43.5671 27.9429 43.6056 28.047C43.702 28.3029 43.7576 28.7128 43.4771 29.2159C43.1496 29.8014 42.5479 30.3457 41.6872 30.8336C41.5244 30.9247 41.366 31.0093 41.2118 31.0852C41.1048 31.1394 41.002 31.1871 40.8971 31.2348C40.8114 31.2739 40.7258 31.3129 40.6401 31.3476C40.6294 31.3519 40.6187 31.3563 40.608 31.3606C40.4089 31.4495 40.2076 31.5211 39.9978 31.5991C39.9871 31.6035 39.9785 31.6057 39.9678 31.61C39.8008 31.6707 39.621 31.7358 39.4111 31.8182C39.3019 31.8637 39.1906 31.9093 39.0814 31.957C38.7388 32.1066 38.3898 32.2757 38.0408 32.4839C37.8909 32.5728 37.7389 32.6683 37.5912 32.7745C37.4563 32.8699 37.3214 32.974 37.1886 33.0825C37.1094 33.1475 37.0302 33.2147 36.9531 33.2863C36.5142 33.6983 36.2144 34.1342 36.0346 34.6135C35.9703 34.7805 35.9254 34.9648 35.8975 35.1534C35.8419 35.5373 35.8633 35.9493 35.9682 36.3136C36.0388 36.5674 36.1373 36.8102 36.2658 37.0553L36.3215 37.1572C36.3215 37.1572 36.3279 37.1681 36.33 37.1681L36.3921 37.2678C36.4093 37.2938 36.4264 37.322 36.4735 37.3827C36.527 37.4521 36.5848 37.5259 36.6405 37.5888L36.8118 37.7579C36.8718 37.8121 36.9338 37.8598 36.9959 37.9075C37.0859 37.8251 37.1801 37.7449 37.2764 37.6733C37.6276 37.4218 37.9744 37.2505 38.302 37.1247C37.786 36.8796 37.4242 36.4459 37.3235 35.932C37.2721 35.6696 37.2936 35.405 37.3792 35.1556C37.4777 34.865 37.6618 34.5918 37.9252 34.3576C38.1757 34.1364 38.469 33.9455 38.7688 33.7807C38.8737 33.7222 38.9786 33.668 39.0814 33.6181C39.1692 33.5747 39.257 33.5335 39.3426 33.4945C39.5589 33.3991 39.7644 33.3167 39.9486 33.2494C39.9635 33.2429 39.9828 33.2386 39.9978 33.2321C40.1134 33.1909 40.2483 33.1453 40.4003 33.0955C40.5588 33.0434 40.7279 32.9849 40.8971 32.9241C40.9934 32.8895 41.0876 32.8569 41.1776 32.8201C41.4324 32.7225 41.6914 32.6119 41.9548 32.4861C42.1132 32.4102 42.2738 32.3321 42.4366 32.2454C42.443 32.2432 42.4473 32.2389 42.4537 32.2367C42.5907 32.1608 42.732 32.0784 42.8755 31.9895C43.5028 31.6057 44.1687 31.1025 44.6997 30.3479C44.8582 30.118 44.9909 29.8795 45.0937 29.6366C45.098 29.6279 45.1001 29.6214 45.1044 29.6149C45.1387 29.5455 45.1686 29.4501 45.2008 29.3503C45.2136 29.307 45.2286 29.2614 45.2436 29.2202C45.28 29.1118 45.3121 28.9123 45.3378 28.754C45.3464 28.6932 45.3485 28.6737 45.3506 28.6542C45.3506 28.6304 45.3528 28.6087 45.3571 28.5761L45.3699 28.3484C45.3699 28.3484 45.3699 28.3311 45.3699 28.3224L45.3635 28.1424V28.1381Z" fill="#F8F4F3"/>
<path d="M35.5336 25.0761C35.9618 24.7682 36.4264 24.5188 36.996 24.2867C37.118 24.239 37.2465 24.1978 37.3749 24.1523C36.0175 23.8964 34.9383 23.5689 34.1632 23.1764C34.0455 23.1157 33.932 23.0528 33.8249 22.9878C33.4759 22.7731 33.2062 22.5345 33.0734 22.3198C33.0306 22.2548 32.9878 22.1789 32.9556 22.0943C32.9364 22.0553 32.9235 22.0141 32.915 21.9685C32.9064 21.9122 32.9064 21.8644 32.9085 21.8189C32.9085 21.8189 32.9085 21.7907 32.9085 21.7885V21.691C32.9085 21.6649 32.9107 21.6411 32.9128 21.6172C32.9128 21.6107 32.9128 21.6064 32.9128 21.602V21.5804C32.9214 21.5196 32.9342 21.4654 32.9535 21.4199C32.9771 21.3158 33.0135 21.203 33.0648 21.1141C33.0734 21.1011 33.082 21.0859 33.0905 21.0729C33.1441 20.9992 33.2019 20.9471 33.2747 20.9081C33.4288 20.817 33.6644 20.7736 33.8335 20.7606C33.8935 20.7563 33.962 20.7541 34.0326 20.7541C34.1718 20.7541 34.3088 20.765 34.4437 20.7802C35.1653 21.7257 36.4949 21.9468 36.9403 22.0032C37.4627 22.0705 39.3533 21.3765 37.9852 19.4291C37.1223 18.2039 35.8762 18.3232 35.0668 18.5812C34.9983 18.5704 34.9276 18.5617 34.8527 18.553C34.5529 18.5205 34.0605 18.4901 33.5873 18.5422C33.1141 18.6007 32.4846 18.7308 31.8658 19.2275C31.5703 19.4638 31.3134 19.7891 31.14 20.1383C30.9815 20.457 30.8787 20.8127 30.8231 21.2225L30.7888 21.6086L30.8124 22.1073C30.8231 22.2006 30.8402 22.3394 30.8573 22.3957C30.8616 22.4088 30.8659 22.4218 30.868 22.4369C30.9066 22.6191 30.9708 22.8056 31.0565 22.9899C31.1528 23.2025 31.2749 23.415 31.4226 23.6102C31.9686 24.3301 32.643 24.7226 33.2897 25.0371C33.8121 25.2778 34.3495 25.4686 34.8934 25.6226C35.0839 25.4296 35.298 25.2474 35.5379 25.0761H35.5336Z" fill="#F8F4F3"/>
<path d="M39.7571 43.3573C39.8169 43.3277 39.8785 43.2981 39.9422 43.2683C39.9615 43.2596 39.9808 43.2509 39.9979 43.2422C40.1713 43.1598 40.3555 43.0818 40.5503 42.9994C40.6659 42.9517 40.7794 42.9018 40.8972 42.8497C40.928 42.8359 40.9588 42.8222 40.9898 42.8085C41.0556 42.7793 41.1221 42.7499 41.1905 42.7174C41.3404 42.6459 41.4967 42.5678 41.6551 42.4811C41.669 42.4733 41.6829 42.4655 41.6969 42.4577C41.7841 42.409 41.873 42.3593 41.9635 42.3032C42.002 42.2794 42.0405 42.2534 42.0812 42.2252C42.3746 42.0213 42.715 41.7264 42.9334 41.2645C42.9891 41.1366 43.0319 41.0303 43.0661 40.8763C43.0833 40.7961 43.0983 40.7158 43.109 40.6356L43.1175 40.499L43.1261 40.3949L43.1154 40.1043C43.1068 39.9894 43.079 39.8441 43.0576 39.7335C43.0019 39.5036 42.912 39.2846 42.7985 39.0938C42.5566 39.2065 42.3275 39.2889 42.1262 39.354C41.9485 39.4082 41.7793 39.4537 41.6123 39.4949C41.775 39.6359 41.8628 39.7703 41.9335 39.9829C41.9421 40.0067 41.9463 40.0306 41.9506 40.0566L41.957 40.0891C41.9656 40.1282 41.972 40.1672 41.9785 40.2106C41.9913 40.2648 41.9934 40.3147 41.9934 40.3559V40.3927C41.9934 40.4057 41.9934 40.4188 41.9892 40.4339L41.9849 40.5012L41.9806 40.5727C41.9763 40.6399 41.9592 40.7028 41.9313 40.7592C41.8329 41.0411 41.531 41.2753 41.3618 41.3903C41.2612 41.4575 41.152 41.5226 41.0385 41.5854C41.0149 41.5985 40.9909 41.6109 40.9668 41.6234C40.9427 41.6359 40.9186 41.6483 40.895 41.6613C40.7794 41.7242 40.6595 41.7828 40.5332 41.8435C40.4069 41.9042 40.2784 41.965 40.1478 42.0257L40.1418 42.0285C40.0943 42.0516 40.043 42.0764 39.9958 42.0972C39.9735 42.1076 39.9513 42.118 39.9289 42.1284C39.7837 42.1962 39.6371 42.2646 39.4905 42.3379C39.3556 42.4052 39.2164 42.4811 39.0772 42.5591C38.9851 42.6112 38.8931 42.6632 38.8032 42.7218C38.7862 42.7325 38.7693 42.7434 38.7524 42.7545L39.7571 43.3573Z" fill="#F8F4F3"/>
</g>
<path d="M49.1799 21.2095L49.2098 21.5044L49.1991 21.5088V21.5196L49.2034 21.5977L49.1799 22.1073C49.1692 22.2027 49.152 22.348 49.1349 22.4044C49.1328 22.4174 49.1285 22.4304 49.1263 22.4434C49.0535 22.7839 48.8929 23.1417 48.6724 23.4692C48.6403 23.519 48.6103 23.5689 48.5739 23.6166C48.0258 24.3409 47.3513 24.7313 46.7154 25.0435C46.1887 25.2864 45.647 25.4794 45.1031 25.6334C44.9297 25.6833 44.7563 25.7266 44.5828 25.77C44.3944 25.8156 44.206 25.8589 44.0176 25.898C43.4652 26.0129 42.9192 26.0996 42.3839 26.1777C41.9385 26.2406 41.4504 26.2948 40.8937 26.349C40.6346 26.3729 40.3605 26.3989 40.0672 26.4228C40.0415 26.4228 40.0201 26.4293 39.9965 26.4293C39.8445 26.4401 39.6968 26.4553 39.5512 26.4748C39.3885 26.4965 39.2322 26.5225 39.078 26.5507C38.8211 26.5984 38.5727 26.657 38.335 26.7264C38.213 26.7632 38.0909 26.7979 37.9753 26.8413H37.9732C37.9667 26.8435 37.9625 26.8478 37.956 26.8478C37.8704 26.8782 37.7805 26.915 37.6905 26.9541C37.6691 26.9627 37.6499 26.9736 37.6284 26.9823C37.5685 27.0083 37.5128 27.0365 37.4529 27.0668C37.4443 27.0712 37.4379 27.0755 37.4293 27.0798C37.4058 27.0907 37.3844 27.1015 37.3608 27.1145C37.0289 27.2967 36.7206 27.5222 36.5472 27.7608C36.1231 28.3441 36.2967 28.8407 36.6542 29.3959C36.9647 29.8882 37.5535 30.3999 38.3115 30.8402C38.4763 30.9334 38.6326 31.0158 38.7868 31.0939C38.2579 31.3216 37.6884 31.6057 37.1231 31.996C36.4915 31.61 35.8299 31.1069 35.301 30.3566C35.1405 30.1245 35.0077 29.8838 34.9049 29.6431C34.9006 29.6344 34.8985 29.6279 34.8942 29.6192C34.86 29.5499 34.83 29.4566 34.8 29.3568C34.785 29.3113 34.7722 29.2679 34.7572 29.2246C34.7208 29.1183 34.6887 28.921 34.6608 28.7496C34.6523 28.6976 34.6501 28.6781 34.6501 28.6564C34.6501 28.6325 34.6458 28.6109 34.6458 28.5935L34.6309 28.3506V28.3441L34.6373 28.162C34.6437 28.0796 34.6544 27.9971 34.663 27.9234C34.6715 27.8692 34.6844 27.815 34.6951 27.7608C34.7508 27.5136 34.8385 27.2707 34.9585 27.0473C35.0313 26.9129 35.1148 26.7849 35.2047 26.6635C35.3053 26.5247 35.4188 26.3946 35.5451 26.2688C35.6757 26.1408 35.8213 26.0172 35.9819 25.8958C36.0098 25.8741 36.0376 25.8546 36.0654 25.8329C36.4337 25.5683 36.8362 25.3515 37.3351 25.1498C37.8683 24.9373 38.4571 24.7768 39.0866 24.664C39.3478 24.6185 39.6154 24.5773 39.8916 24.5491L40.0051 24.5361C40.3284 24.4992 40.626 24.4624 40.9022 24.4277L40.9365 24.4231L40.9366 24.4231C41.17 24.3923 41.3899 24.3633 41.5981 24.3322C41.7737 24.3062 41.9428 24.2802 42.1098 24.252C42.2876 24.2217 42.461 24.1913 42.6301 24.1588C43.9855 23.905 45.0646 23.5776 45.8397 23.1851C45.9596 23.1244 46.0709 23.0593 46.178 22.9942C46.527 22.7774 46.7968 22.541 46.9231 22.335C46.9681 22.2634 47.013 22.1875 47.0451 22.1029C47.0666 22.0596 47.0815 22.0097 47.0901 21.9577C47.0901 21.936 47.0944 21.8818 47.0901 21.8254V21.5977C47.0858 21.5218 47.0708 21.4567 47.0451 21.4025C47.0237 21.3071 46.9895 21.203 46.9402 21.1184C46.9317 21.1032 46.921 21.0881 46.9124 21.075C46.8567 20.9991 46.7989 20.9471 46.7261 20.9081C46.572 20.817 46.3386 20.7736 46.1758 20.7628C45.9746 20.7476 45.7605 20.7584 45.5592 20.7823C44.8376 21.7278 43.5101 21.949 43.0626 22.0054C42.5423 22.0726 40.6517 21.3786 42.0199 19.4313C42.8806 18.2038 44.1289 18.3253 44.9361 18.5833C45.0046 18.5747 45.0732 18.5638 45.1481 18.5552C45.4521 18.5205 45.9532 18.4923 46.4092 18.5421C46.8888 18.6007 47.5183 18.7308 48.1371 19.2274C48.4326 19.4638 48.6895 19.7891 48.863 20.1382C49.0214 20.457 49.1242 20.8126 49.1799 21.2095Z" fill="#F8F4F3"/>
<path d="M20.5156 58.5699L19.2715 57.0896V53.1684H24.1219V56.8534L23.3502 58.5699H27.5864L26.3423 57.0896V48.8692L27.114 47.1526H22.8778L24.1219 48.6329V52.2865H19.2715V48.8692L20.0431 47.1526H15.8069L17.051 48.6329V56.8534L16.2636 58.5699H20.5156ZM33.3071 58.5699L32.0631 57.0896V48.8692L32.8347 47.1526H28.5985L29.8426 48.6329V56.8534L29.0552 58.5699H33.3071ZM39.0244 58.5699L37.7803 57.0896V54.255C41.6386 54.2235 43.7803 52.8534 43.7803 50.4597C43.7803 48.3495 42.1268 47.1526 39.2134 47.1526H34.3158L35.5599 48.6329V56.8534L34.7724 58.5699H39.0244ZM38.8512 48.0188C40.5205 48.0188 41.4654 48.9479 41.4654 50.6014C41.4654 52.4282 40.2843 53.3731 37.7803 53.4361V48.0188H38.8512ZM46.6985 58.5699L45.3599 56.9794L45.8166 55.7038H49.7064L50.1631 56.9794L49.4387 58.5699H53.8954L52.541 56.9164L49.1552 47.1526H46.2576L47.2969 49.0739L44.4938 56.8062L43.7221 58.5699H46.6985ZM47.7694 50.2235L49.4072 54.8377H46.1316L47.7694 50.2235ZM57.3986 58.5699L56.06 56.9794L56.5167 55.7038H60.4064L60.8631 56.9794L60.1387 58.5699H64.5954L63.2411 56.9164L59.8553 47.1526H56.9576L57.997 49.0739L55.1938 56.8062L54.4222 58.5699H57.3986ZM58.4694 50.2235L60.1072 54.8377H56.8316L58.4694 50.2235Z" fill="white"/>
<defs>
<clipPath id="clip0_2_18569">
<rect width="49.7638" height="46.9291" fill="white" transform="translate(15.1182 3.50134)"/>
</clipPath>
</defs>
</svg>
