<svg width="80" height="80" viewBox="0 0 80 80" fill="none" xmlns="http://www.w3.org/2000/svg">
<g clip-path="url(#clip0_2_18536)">
<path d="M80 40C80 62.0914 62.0914 80 40 80C17.9086 80 0 62.0914 0 40C0 17.9086 17.9086 0 40 0C62.0914 0 80 17.9086 80 40Z" fill="#240642"/>
<path d="M18.8269 45.5258L20.5907 44.6754C21.5198 45.2108 22.7797 45.5415 23.8978 45.5415C26.1655 45.5415 27.693 44.2029 27.693 42.2344C27.693 40.5809 26.5907 39.4943 24.0237 38.5651L22.3702 37.9667C20.9214 37.3998 20.3545 36.8014 20.3545 35.951C20.3545 35.1006 20.9371 34.5651 21.8978 34.5651C22.8426 34.5651 23.9765 35.1163 25.3623 36.2817L26.7167 37.4313V33.9982L24.9371 34.8329C23.9608 34.1084 22.8269 33.7147 21.7403 33.7147C19.8505 33.7147 18.5119 34.9431 18.5119 36.6911C18.5119 38.2817 19.6143 39.4785 21.8033 40.2817L23.63 40.9273C25.2521 41.5573 25.819 42.1084 25.819 43.0533C25.819 44.0769 25.1419 44.6596 23.9608 44.6596C22.8741 44.6596 21.6458 44.1714 20.3702 43.2266L18.8269 41.9982V45.5258ZM28.6499 39.6518C28.6499 43.321 30.6656 45.5415 33.9569 45.5415C37.2798 45.5415 39.3113 43.321 39.3113 39.6518C39.3113 35.951 37.2798 33.7147 33.9569 33.7147C30.7286 33.7147 28.6499 36.0297 28.6499 39.6518ZM36.8703 39.6203C36.8703 42.9903 35.8782 44.7069 33.9569 44.7069C32.0672 44.7069 31.0908 43.0218 31.0908 39.6203C31.0908 36.2344 32.0829 34.5494 33.9569 34.5494C35.8467 34.5494 36.8703 36.2502 36.8703 39.6203ZM48.9567 42.7699C48.2323 44.0612 47.1772 44.7384 45.9646 44.7384C43.9803 44.7384 42.9252 43.0061 42.9252 39.636C42.9252 36.3289 43.9331 34.5179 45.7913 34.5179C46.8465 34.5179 47.7756 35.1321 48.5 36.3447L49.3819 37.8092V33.8722L48.2953 34.3762C47.6654 33.951 46.689 33.7147 45.6811 33.7147C42.563 33.7147 40.4843 36.0769 40.4843 39.825C40.4843 43.447 42.3898 45.5415 45.7441 45.5415C47.0354 45.5415 48.437 45.2266 49.6181 44.6596V41.6203L48.9567 42.7699ZM62.382 45.3683V41.5258L60.634 43.321H57.2639L58.2875 42.3919C61.1694 40.2344 62.2403 38.7541 62.2403 37.0218C62.2403 34.9746 60.697 33.7147 58.2718 33.7147C55.7363 33.7147 53.9568 35.1006 53.9568 36.9903C53.9568 37.825 54.3348 38.2817 54.9804 38.2817C55.6419 38.2817 55.9568 37.8407 55.9726 36.8486C56.0041 35.4155 56.6812 34.5494 57.9096 34.5494C59.1222 34.5494 59.8151 35.4313 59.8151 37.0848C59.8151 39.0061 58.9804 40.6439 57.1852 42.2974L53.8623 45.3683H62.382Z" fill="white"/>
<path d="M14.0159 27.501L13.8584 20.2821C13.8521 19.9483 14.06 19.6617 14.3561 19.5514L39.2568 9.18923C39.5624 9.0601 39.8962 9.0727 40.1828 9.18923L65.3765 19.6144C65.6883 19.731 65.8836 20.0333 65.8742 20.3483L65.7167 27.5042C65.7104 27.8507 65.4206 28.1278 65.0742 28.1215C64.7372 28.1152 64.4663 27.8412 64.4568 27.5042L64.2994 20.3483L64.797 21.0821L39.26 11.5325H40.186L14.9356 21.016L15.4332 20.2853L15.2757 27.5042C15.2474 28.3105 14.0537 28.3231 14.0159 27.5042V27.501Z" fill="#F8F4F3"/>
<path d="M63.7639 51.4569C61.5245 56.2254 58.293 60.4963 54.0505 63.6743C49.7859 66.7451 45.0521 69.1199 40.0316 70.6916C39.8143 70.7546 39.5907 70.7514 39.3891 70.6916C38.0883 70.2947 36.9104 69.8443 35.6726 69.331C32.0663 67.8191 28.6363 65.9451 25.471 63.6333C21.26 60.4554 18.0474 56.2097 15.8174 51.4601C15.5025 50.7042 16.6017 50.1876 16.9671 50.9435C19.2253 55.2963 22.523 59.3121 26.5671 62.0932C28.6174 63.4758 30.8285 64.6695 33.0867 65.7121C35.323 66.7262 37.6757 67.627 40.0379 68.2601H39.3954C43.5907 67.1388 47.6537 65.3656 51.3859 63.142C55.1466 60.953 58.2804 57.7782 60.7151 54.1624C61.4143 53.1199 62.0852 52.0207 62.63 50.9247C62.9891 50.216 64.0915 50.7042 63.7671 51.4632L63.7639 51.4569Z" fill="#F8F4F3"/>
</g>
<defs>
<clipPath id="clip0_2_18536">
<rect width="80" height="80" fill="white"/>
</clipPath>
</defs>
</svg>
