<svg width="80" height="80" viewBox="0 0 80 80" fill="none" xmlns="http://www.w3.org/2000/svg">
<g clip-path="url(#clip0_2_18542)">
<circle cx="40" cy="40" r="40" fill="#240642"/>
<path d="M30.6106 38.1946L29.3665 36.7143V28.4938L30.1382 26.7773H25.902L27.1461 28.2576V36.478L26.3587 38.1946H30.6106ZM32.3751 38.3521L34.1389 37.5017C35.0681 38.0371 36.3279 38.3678 37.446 38.3678C39.7137 38.3678 41.2413 37.0292 41.2413 35.0607C41.2413 33.4072 40.1389 32.3206 37.572 31.3914L35.9184 30.793C34.4696 30.2261 33.9027 29.6277 33.9027 28.7773C33.9027 27.9269 34.4854 27.3914 35.446 27.3914C36.3909 27.3914 37.5247 27.9426 38.9106 29.108L40.2649 30.2576V26.8245L38.4854 27.6591C37.509 26.9347 36.3751 26.541 35.2885 26.541C33.3988 26.541 32.0602 27.7694 32.0602 29.5174C32.0602 31.108 33.1625 32.3048 35.3515 33.108L37.1783 33.7536C38.8003 34.3836 39.3673 34.9347 39.3673 35.8796C39.3673 36.9032 38.6901 37.4859 37.509 37.4859C36.4224 37.4859 35.194 36.9977 33.9184 36.0528L32.3751 34.8245V38.3521ZM42.5131 32.478C42.5131 36.1473 44.5288 38.3678 47.8201 38.3678C51.143 38.3678 53.1745 36.1473 53.1745 32.478C53.1745 28.7773 51.143 26.541 47.8201 26.541C44.5918 26.541 42.5131 28.856 42.5131 32.478ZM50.7335 32.4465C50.7335 35.8166 49.7414 37.5332 47.8201 37.5332C45.9304 37.5332 44.954 35.8481 44.954 32.4465C44.954 29.0607 45.9461 27.3757 47.8201 27.3757C49.7099 27.3757 50.7335 29.0765 50.7335 32.4465ZM25.0478 51.1946V47.3521L23.2998 49.1473H19.9297L20.9533 48.2182C23.8352 46.0607 24.9061 44.5804 24.9061 42.8481C24.9061 40.8009 23.3628 39.541 20.9376 39.541C18.4021 39.541 16.6226 40.9269 16.6226 42.8166C16.6226 43.6513 17.0006 44.108 17.6462 44.108C18.3077 44.108 18.6226 43.667 18.6384 42.6749C18.6699 41.2418 19.347 40.3757 20.5754 40.3757C21.788 40.3757 22.4809 41.2576 22.4809 42.9111C22.4809 44.8324 21.6462 46.4702 19.851 48.1237L16.5281 51.1946H25.0478ZM27.6609 41.8402H32.7317C30.2278 44.2812 28.2436 47.541 27.0625 51.1946H29.7869C30.6215 47.8245 31.8971 44.6434 33.5506 41.8402L34.653 39.7773H26.2593V43.4465L27.6609 41.8402ZM34.7079 45.5725C34.7079 49.3521 36.4402 51.3678 39.6528 51.3678C42.8969 51.3678 44.6291 49.3521 44.6291 45.5568C44.6291 41.6355 42.8969 39.541 39.6528 39.541C36.4244 39.541 34.7079 41.6513 34.7079 45.5725ZM42.2039 45.4938C42.2039 48.7694 41.3221 50.5017 39.6528 50.5017C37.952 50.5017 37.1173 48.8639 37.1173 45.4938C37.1173 42.1552 37.9992 40.4072 39.6528 40.4072C41.3221 40.4072 42.2039 42.171 42.2039 45.4938ZM45.9037 45.5725C45.9037 49.3521 47.636 51.3678 50.8486 51.3678C54.0927 51.3678 55.825 49.3521 55.825 45.5568C55.825 41.6355 54.0927 39.541 50.8486 39.541C47.6203 39.541 45.9037 41.6513 45.9037 45.5725ZM53.3998 45.4938C53.3998 48.7694 52.5179 50.5017 50.8486 50.5017C49.1478 50.5017 48.3132 48.8639 48.3132 45.4938C48.3132 42.1552 49.1951 40.4072 50.8486 40.4072C52.5179 40.4072 53.3998 42.171 53.3998 45.4938ZM62.4697 51.1946L61.2256 49.7143V39.541L57.0209 42.8166L59.0209 42.5804V49.478L58.2492 51.1946H62.4697Z" fill="white"/>
<path d="M49.4867 7.02881C47.893 9.26503 44.0819 10.5501 39.6347 10.5501C35.1874 10.5501 31.4394 9.29023 29.8237 7.0855" stroke="#F8F4F3" stroke-width="1.25984" stroke-miterlimit="10" stroke-linecap="round"/>
<path d="M60.4819 12.7233C57.1087 14.9595 49.0331 19.1422 39.6126 19.1422C30.1922 19.1422 22.252 14.9847 18.8284 12.78" stroke="#F8F4F3" stroke-width="1.25984" stroke-miterlimit="10" stroke-linecap="round"/>
<path d="M33.4835 9.46655C33.4835 9.46655 24.9985 12.3264 20.8788 20.6792" stroke="#F8F4F3" stroke-width="1.25984" stroke-miterlimit="10" stroke-linecap="round"/>
<path d="M36.2363 10.4147C36.2363 10.4147 31.3481 14.4241 29.7134 20.6792" stroke="#F8F4F3" stroke-width="1.25984" stroke-miterlimit="10" stroke-linecap="round"/>
<path d="M46.2394 9.46655C46.2394 9.46655 54.7245 12.3264 58.8442 20.6792" stroke="#F8F4F3" stroke-width="1.25984" stroke-miterlimit="10" stroke-linecap="round"/>
<path d="M43.4867 10.4147C43.4867 10.4147 48.3749 14.4241 50.0095 20.6792" stroke="#F8F4F3" stroke-width="1.25984" stroke-miterlimit="10" stroke-linecap="round"/>
<path d="M39.8615 10.8367V20.6792" stroke="#F8F4F3" stroke-width="1.25984" stroke-miterlimit="10" stroke-linecap="round"/>
<path d="M49.4866 72.7705C47.8929 70.5343 44.0819 69.2493 39.6346 69.2493C35.1874 69.2493 31.4394 70.5091 29.8236 72.7138" stroke="#F8F4F3" stroke-width="1.25984" stroke-miterlimit="10" stroke-linecap="round"/>
<path d="M60.4819 67.0792C57.1087 64.843 49.0331 60.6603 39.6126 60.6603C30.1922 60.6603 22.252 64.8178 18.8284 67.0225" stroke="#F8F4F3" stroke-width="1.25984" stroke-miterlimit="10" stroke-linecap="round"/>
<path d="M33.4834 70.3327C33.4834 70.3327 24.9984 67.4729 20.8787 59.1201" stroke="#F8F4F3" stroke-width="1.25984" stroke-miterlimit="10" stroke-linecap="round"/>
<path d="M36.2362 69.3847C36.2362 69.3847 31.348 65.3752 29.7134 59.1201" stroke="#F8F4F3" stroke-width="1.25984" stroke-miterlimit="10" stroke-linecap="round"/>
<path d="M46.2394 70.3327C46.2394 70.3327 54.7244 67.4729 58.8441 59.1201" stroke="#F8F4F3" stroke-width="1.25984" stroke-miterlimit="10" stroke-linecap="round"/>
<path d="M43.4866 69.3847C43.4866 69.3847 48.3748 65.3752 50.0095 59.1201" stroke="#F8F4F3" stroke-width="1.25984" stroke-miterlimit="10" stroke-linecap="round"/>
<path d="M39.8615 68.9626V59.1201" stroke="#F8F4F3" stroke-width="1.25984" stroke-miterlimit="10" stroke-linecap="round"/>
<path d="M71.1896 28.2507C62.5722 5.9191 34.1884 -0.858625 16.689 15.6196C12.9516 19.1247 10.0533 23.4598 8.18265 28.2507C8.1181 28.4173 7.92961 28.4986 7.76437 28.434C7.60557 28.3721 7.52424 28.1978 7.5733 28.0377C8.6048 24.6889 10.2185 21.5104 12.279 18.6457C14.8674 15.0606 18.1801 11.9945 21.9459 9.67202C35.0896 1.48711 52.8097 3.55399 63.6631 14.6114C64.9089 15.8675 66.0579 17.2166 67.0933 18.6457C69.1537 21.5091 70.7662 24.6889 71.799 28.0364C71.8971 28.4276 71.3704 28.638 71.1896 28.2494V28.2507Z" fill="#F8F4F3"/>
<path d="M71.1896 51.6757C62.5722 74.0073 34.1884 80.785 16.689 64.3068C12.9516 60.8017 10.0533 56.4666 8.18265 51.6757C8.1181 51.5091 7.92961 51.4278 7.76437 51.4924C7.60557 51.5543 7.52424 51.7286 7.5733 51.8887C8.6048 55.2375 10.2185 58.416 12.279 61.2807C14.8674 64.8658 18.1801 67.9319 21.9459 70.2544C35.0896 78.4393 52.8097 76.3724 63.6631 65.315C64.9089 64.0589 66.0579 62.7098 67.0933 61.2807C69.1537 58.4172 70.7662 55.2375 71.799 51.89C71.8971 51.4988 71.3704 51.2884 71.1896 51.677V51.6757Z" fill="#F8F4F3"/>
</g>
<defs>
<clipPath id="clip0_2_18542">
<rect width="80" height="80" fill="white"/>
</clipPath>
</defs>
</svg>
