<svg width="55" height="55" viewBox="0 0 55 55" fill="none" xmlns="http://www.w3.org/2000/svg">
<g clip-path="url(#clip0_1112_36998)">
<path d="M27.5 54.9998C42.6878 54.9998 55 42.6876 55 27.4998C55 12.3119 42.6878 -0.000244141 27.5 -0.000244141C12.3122 -0.000244141 0 12.3119 0 27.4998C0 42.6876 12.3122 54.9998 27.5 54.9998Z" fill="white"/>
<path d="M39.402 21.0647H34.705C34.8315 20.3277 35.288 19.9152 36.212 19.4477L37.0755 19.0077C38.621 18.2157 39.446 17.3192 39.446 15.8562C39.446 14.9377 39.0885 14.2117 38.379 13.6892C37.6695 13.1667 36.8335 12.9082 35.8545 12.9082C35.0972 12.8993 34.3536 13.1115 33.715 13.5187C33.0715 13.9147 32.593 14.4262 32.296 15.0642L33.6545 16.4282C34.1825 15.3612 34.947 14.8387 35.9535 14.8387C36.806 14.8387 37.3285 15.2787 37.3285 15.8892C37.3285 16.4007 37.0755 16.8242 36.0965 17.3192L35.541 17.5887C34.3365 18.1992 33.5005 18.8977 33.0165 19.6897C32.5325 20.4817 32.296 21.4772 32.296 22.6817V23.0117H39.402V21.0647Z" fill="#9F55FF"/>
<path d="M38.775 25.2557H30.998L27.1095 31.9877H34.8865L38.775 38.7252L42.6635 31.9877L38.775 25.2557Z" fill="#9F55FF"/>
<path d="M27.7805 36.4813C22.8305 36.4813 18.799 32.4498 18.799 27.4998C18.799 22.5498 22.8305 18.5183 27.7805 18.5183L30.855 12.0888C29.8426 11.8874 28.8128 11.7861 27.7805 11.7863C19.1015 11.7863 12.067 18.8208 12.067 27.4998C12.067 36.1788 19.1015 43.2133 27.7805 43.2133C31.1065 43.2195 34.3475 42.1635 37.0315 40.1993L33.6325 34.3033C32.0064 35.7079 29.9293 36.481 27.7805 36.4813Z" fill="#9F55FF"/>
</g>
<defs>
<clipPath id="clip0_1112_36998">
<rect width="55" height="55" fill="white" transform="translate(0 -0.000244141)"/>
</clipPath>
</defs>
</svg>
