<svg width="124" height="256" viewBox="0 0 124 256" fill="none" xmlns="http://www.w3.org/2000/svg">
<g clip-path="url(#clip0_698_9163)">
<path d="M99.2292 186.02C98.607 186.246 97.9148 186.37 97.1371 186.363C96.3205 186.355 95.2162 186.137 94.5707 185.717C94.5785 185.694 94.594 185.663 94.6173 185.631C94.6484 185.593 94.6562 185.577 94.6951 185.546C95.1073 185.227 95.7139 185.157 96.4527 185.18C97.4482 185.227 98.3737 185.538 99.2292 186.02Z" fill="#240642"/>
<path d="M64.4966 31.1629C64.4732 31.1473 64.4577 31.1318 64.4421 31.1162C64.5044 31.194 64.5666 31.264 64.621 31.3417C64.6366 31.3184 64.6521 31.2951 64.6755 31.2795C64.6288 31.2562 64.5743 31.2173 64.4966 31.1629Z" fill="#240642"/>
<path d="M64.108 30.6885C64.2091 30.844 64.318 31.0073 64.4424 31.1162C64.3336 30.9762 64.2169 30.8362 64.108 30.6885Z" fill="#240642"/>
<path d="M118.057 180.452C121.036 177.225 123.253 172.94 123.758 168.553C123.906 167.317 123.898 166.002 123.735 164.68C123.323 161.313 121.884 157.938 119.247 155.931C119.154 155.853 119.037 155.682 119.061 155.604C119.729 153.497 119.862 151.358 119.31 149.235C119.084 148.395 118.516 147.648 118.127 146.855C118.003 146.606 117.824 146.303 117.871 146.062C118.571 142.383 118.112 138.798 116.891 135.322C116.533 134.295 116.378 133.681 117.14 132.646C119.037 130.026 119.512 126.938 119.03 123.734C118.664 121.269 118.47 118.71 115.748 117.458C115.615 117.396 115.522 116.874 115.631 116.711C116.486 115.412 117.233 114.098 117.466 112.504C117.676 111.088 117.622 109.844 116.533 108.771C116.385 108.623 116.378 108.024 116.51 107.931C118.151 106.772 118.96 105.116 119.372 103.226C119.473 102.751 119.442 102.44 118.742 102.269C117.816 102.044 116.735 101.655 116.16 100.97C114.558 99.0571 113.656 96.8096 113.313 94.2587C112.917 91.2723 112.232 88.3092 111.47 85.4006C110.972 83.5185 110.047 81.7687 108.243 80.6954L108.235 80.6876C108.359 80.1899 108.437 79.6766 108.484 79.1633C108.655 77.1024 107.628 74.9948 106.594 73.2838C106.516 73.1361 106.477 72.9028 106.532 72.7394C107.029 71.0363 106.718 69.4108 106.104 67.7932C106.081 67.731 106.065 67.6532 106.065 67.5754C106.796 66.6811 107.325 65.6156 107.566 64.4879C107.621 64.2235 107.652 64.0291 107.706 63.8735C107.745 63.8191 107.792 63.7724 107.838 63.7336C109.215 62.5903 110.739 61.6415 111.665 59.9694C113.337 56.9364 112.217 53.4833 110.195 50.9324C110.07 50.7769 109.946 50.6291 109.884 50.4425C109.806 50.2403 109.814 50.0148 109.814 49.797C109.814 48.5604 109.588 47.285 108.927 46.2429C108.585 45.714 108.149 45.2552 107.683 44.8274C105.738 43.0231 103.421 41.6855 101.189 40.2389C100.878 40.0367 100.52 39.7801 100.388 39.4223C100.271 39.119 100.31 38.738 100.232 38.4113C100.085 37.7503 99.8201 37.1125 99.439 36.5526C98.6613 35.4249 97.4636 34.6939 96.1493 34.3361C95.8927 34.2661 95.5894 33.9317 95.5116 33.6673C95.1072 32.283 94.2984 30.9842 92.9762 30.3231C92.3385 30.0043 91.6308 29.8565 90.9231 29.8332C90.1454 29.8098 89.3677 30.2998 88.9244 29.5065C88.1467 28.0911 86.4901 27.3678 84.8647 27.1967C84.787 27.1734 84.7092 27.1578 84.6314 27.1345C84.577 27.119 84.5225 27.1034 84.4837 27.0567C84.5225 26.9868 84.5925 26.9168 84.6625 26.8701C85.1914 26.559 85.8058 26.4112 86.3579 26.1468C87.7578 25.4702 87.9678 23.6426 88.2167 22.2583C88.3489 21.5117 88.4344 20.7495 88.4811 19.9874C88.5511 18.9841 88.5433 17.9731 88.4578 16.9698C88.2244 14.0534 88.03 11.1292 87.0345 8.34504C86.2802 6.21411 85.4402 4.1143 83.9859 2.32556C83.1693 1.32232 82.1661 0.661264 80.9451 0.2413C78.9852 -0.435307 77.7098 0.443505 76.9476 2.04559C76.3255 3.3677 76.2088 4.82201 75.9988 6.24522C75.4933 9.74492 75.0578 13.2679 74.4979 16.7599C74.4667 16.9387 74.4434 17.1176 74.4045 17.2965C73.9457 20.0262 73.3235 22.7482 72.3747 25.3536C71.9314 26.5823 71.4337 27.8267 70.726 28.931C70.656 29.0399 70.586 29.141 70.516 29.2499C70.166 28.3244 69.6916 27.4923 68.9606 26.8001C68.665 26.5201 67.7551 25.7424 67.3118 26.1079C67.0941 26.2868 67.1796 26.6757 67.1563 26.9245C67.1329 27.2356 67.0941 27.5467 67.0241 27.8578C66.8841 28.4722 66.6585 29.0632 66.3397 29.6076C66.2541 29.7554 66.1608 29.9032 66.0597 30.0509C66.0286 30.0665 65.9975 30.082 65.9742 30.1054C65.4686 30.432 65.0331 30.8442 64.6598 31.2953C64.6443 31.3186 64.6287 31.3419 64.6054 31.3575C64.5432 31.2875 64.481 31.2097 64.4265 31.1319C64.3021 31.0231 64.1932 30.8675 64.0921 30.6964C64.0221 30.5876 63.9521 30.4787 63.8899 30.3931C63.0189 29.141 62.49 27.6867 61.9378 26.279C59.9625 21.2239 59.107 15.9355 58.5237 10.5693C58.2982 8.4617 57.956 6.3541 57.5827 4.26206C57.4349 3.4688 57.2327 2.68331 56.8127 1.99115C56.8283 1.96782 56.8205 1.96004 56.8127 1.94449C56.5872 1.49341 56.2917 1.07345 55.8717 0.707926C55.234 0.155752 54.5651 -0.100892 53.733 0.0390957C52.3409 0.272409 51.1043 0.816806 50.1866 1.89782C49.5878 2.60554 49.0279 3.3677 48.569 4.17651C46.6481 7.60622 45.7692 11.3392 45.4504 15.2278C45.2171 18.0353 45.1704 20.8195 45.9015 23.5882C46.6325 26.3724 48.1568 28.8144 49.5256 31.3108C50.8866 33.7917 51.9909 36.3582 52.7997 39.0724C54.7051 45.4807 54.0596 51.9901 51.9054 58.274C51.3532 59.8994 50.7077 61.5015 50.3344 63.1736C49.3389 67.6221 50.3422 72.475 53.0175 76.1614C51.5165 78.5334 51.361 81.7064 52.6209 84.2184C53.0253 85.0273 53.593 85.7505 54.0052 86.5594C54.3863 87.2982 54.1996 88.0914 54.0363 88.8925C53.7019 90.5412 52.9864 92.12 51.9598 93.4576C51.6643 93.8387 51.3688 94.2276 51.0655 94.6087C50.8944 94.8264 50.7077 95.0597 50.6921 95.3397C50.6766 95.5886 50.801 95.8219 50.9332 96.0319C51.5476 97.0351 52.4498 97.9295 53.4997 98.4739C53.6474 98.5516 53.8108 98.6216 53.9196 98.7538C54.0752 98.9405 53.9974 99.1038 53.873 99.2905C53.7563 99.4693 53.6397 99.656 53.523 99.8426C51.3843 103.412 50.7388 107.62 51.9909 111.609C52.3176 112.659 52.7375 113.686 53.1342 114.712C53.7641 116.322 54.3785 117.979 54.5496 119.713C54.6274 120.514 54.5885 121.323 54.5807 122.124C54.5807 122.248 54.4796 123.446 54.6118 123.501C55.9028 123.991 57.1394 124.613 58.3137 125.344C61.8134 123.648 65.9042 123.485 69.6061 124.55C73.1913 125.577 76.3255 127.731 78.8686 130.383C86.6612 128.151 95.2316 132.989 96.9037 140.96C97.0592 141.73 95.9471 142.049 95.6749 141.287C93.4662 134.396 85.3702 130.881 79.0552 134.14C78.3164 134.474 77.4609 134.256 76.971 133.665C72.7402 128.54 65.1187 125.492 59.1381 129.007C58.5081 129.388 57.7304 129.333 57.1705 128.929C54.3941 126.969 51.0032 125.834 47.5969 125.67C47.5891 125.67 47.5813 125.67 47.5735 125.67C46.3448 125.686 45.1082 125.873 43.9261 126.238C43.7783 126.285 43.6305 126.331 43.4828 126.378C41.9662 126.907 40.4342 127.871 39.2443 128.976C38.8243 129.365 38.4354 129.777 38.0855 130.228C37.7977 130.601 37.6111 131.161 37.2144 131.425C36.6467 131.814 36.0868 131.558 35.4879 131.457C34.8269 131.348 34.158 131.254 33.4892 131.293C32.2449 131.371 31.0083 131.597 29.8106 131.939C27.392 132.623 25.121 133.782 23.0679 135.228C19.5682 137.686 16.6984 140.921 14.0309 144.258C13.0121 145.525 12.0089 146.84 10.7179 147.843C9.21687 149.025 7.21816 149.818 5.3361 149.079C5.19611 149.025 5.05612 148.963 4.91614 148.947C4.76837 148.932 4.60505 148.978 4.5195 149.095C4.34841 149.321 4.5195 149.733 4.58172 149.982C4.65949 150.285 4.75282 150.573 4.87725 150.868C5.10279 151.444 5.40609 151.996 5.7794 152.494C5.79495 152.517 5.8105 152.54 5.82606 152.556C5.84161 152.571 5.85717 152.587 5.87272 152.602C7.3737 154.306 9.65239 155.27 12.0011 155.052C12.3277 155.021 12.6232 155.239 12.6932 155.566C12.7555 155.916 12.5299 156.25 12.1799 156.312C10.4457 156.67 8.5636 156.491 6.88374 155.83C3.36072 160.022 1.12091 164.999 0.833159 170.575C0.522075 176.618 2.54412 183.773 7.14817 187.942C7.38148 188.152 7.53702 188.735 7.42036 189.007C6.84486 190.321 6.54933 191.698 6.78264 193.075C7.21816 195.711 8.3925 197.935 10.8423 199.296C10.9434 199.351 10.9978 199.545 10.9978 199.677C11.0056 200.914 10.9123 202.166 11.0212 203.387C11.13 204.701 11.3711 206.008 11.6589 207.299C12.1333 209.438 13.2532 211.304 14.5831 212.984C15.773 214.5 17.1495 215.916 18.6272 217.16C19.8715 218.21 21.3414 219.011 22.7724 219.804C23.7523 220.349 24.8488 220.66 25.8754 221.119C26.1087 221.228 26.4509 221.515 26.4354 221.694C26.2798 223.514 26.5365 225.248 27.392 226.866C27.913 227.846 28.3641 228.927 29.1029 229.728C29.9428 230.653 31.0239 231.4 32.0738 232.092C33.4037 232.979 34.858 233.593 36.4834 233.733C36.7711 233.764 37.1833 233.967 37.3078 234.208C37.8444 235.234 39.7342 235.981 40.7763 236.385C41.6552 236.735 42.5806 236.968 43.5217 237.108C43.7705 238.594 43.9961 240.087 44.1672 241.596C44.2683 242.467 44.3538 243.361 44.4238 244.248C44.4549 244.637 44.5171 245.041 44.4782 245.43C44.4471 245.764 44.2683 246.06 44.0272 246.293C43.9339 246.379 43.8483 246.48 43.7628 246.565C43.2806 247.055 42.7984 247.545 42.3162 248.028C41.7563 248.587 41.2041 249.147 40.6519 249.707C40.3875 249.972 40.1231 250.244 39.8587 250.508C39.4776 250.897 38.7621 251.621 38.731 252.748C38.7076 253.518 39.0109 254.226 39.5942 254.739C40.3253 255.369 41.1574 255.408 41.6552 255.408H48.5534C48.7945 255.408 49.0045 255.408 49.2223 255.392C49.4012 255.392 49.5722 255.385 49.7822 255.385C51.6643 255.385 52.5431 253.643 52.9708 252.81L53.0797 252.6C53.5152 251.768 53.943 250.921 54.3474 250.065C54.7518 250.913 55.1795 251.761 55.6151 252.6L55.7162 252.81C56.1439 253.643 57.0227 255.385 58.9048 255.385C59.1148 255.385 59.2859 255.392 59.4647 255.392C59.6747 255.4 59.8847 255.408 60.1335 255.408H67.0318C67.5296 255.408 68.3617 255.369 69.0928 254.739C69.6761 254.226 69.9871 253.526 69.956 252.748C69.9249 251.621 69.2094 250.897 68.8283 250.508C68.5562 250.244 68.2917 249.972 68.0273 249.707C67.4751 249.147 66.9152 248.587 66.363 248.028C65.8808 247.538 65.3986 247.048 64.9165 246.565C64.8309 246.48 64.7376 246.379 64.652 246.293C64.1699 245.842 64.1388 245.189 64.1776 244.575C64.3487 241.814 64.792 239.061 65.282 236.346C65.3753 235.802 65.4842 235.265 65.5931 234.721C65.632 234.55 65.632 234.254 65.7486 234.122C65.8731 233.99 66.2541 233.92 66.4252 233.834C67.3118 233.422 68.1206 232.839 68.7972 232.131C69.0928 231.828 69.365 231.486 69.7305 231.268C70.1582 231.011 70.6637 230.957 71.1537 230.98C70.3682 234.869 69.295 238.703 67.9418 242.428C67.7318 242.996 67.5218 243.556 67.304 244.123C67.2185 244.341 67.1796 244.567 67.1796 244.784C67.1796 245.508 67.6151 246.184 68.3151 246.464C69.2483 246.838 70.3216 246.379 70.6871 245.438C70.7415 245.306 70.796 245.166 70.8426 245.026C72.5847 240.476 74.2334 235.856 75.2289 231.073C75.2756 231.073 75.3222 231.073 75.3689 231.066C75.8822 231.035 76.3955 231.058 76.901 231.035C77.5776 231.003 78.3086 230.778 78.9541 230.576C80.494 230.109 82.1039 229.409 83.2627 228.258C83.9082 227.613 84.3281 226.765 85.0047 226.166C85.0514 226.127 85.098 226.081 85.1447 226.042C87.1045 224.3 88.5355 221.928 89.1577 219.384C89.7954 216.771 89.6399 213.925 88.66 211.452C88.2944 210.526 88.7455 209.469 89.6788 209.095C89.951 208.994 90.2465 208.955 90.5187 208.979C92.8674 209.235 95.0372 207.276 94.9983 204.888C94.9905 204.04 95.5816 203.348 96.3593 203.146C99.0424 202.43 101.438 200.401 102.682 197.857C103.802 195.657 103.942 193.199 103.25 190.858C102.892 189.948 102.379 189.054 101.749 188.253C100.372 189.1 98.7624 189.598 97.1526 189.59C94.8972 189.567 91.7164 188.914 91.2653 186.223C90.8609 183.198 93.9873 181.564 96.5615 181.728C98.638 181.782 100.512 182.537 102.114 183.711C102.472 183.221 102.791 182.684 103.102 182.109C105.109 178.617 105.933 174.316 105.427 170.272C104.984 166.376 103.46 162.495 100.66 159.687C99.5479 158.575 98.2258 157.642 96.7948 156.942C96.0793 156.592 96.5304 155.472 97.3081 155.744C107.714 159.641 110.794 173.655 106.034 182.98C105.622 183.773 105.202 184.535 104.712 185.297C104.603 185.484 104.486 185.655 104.354 185.834C105.295 186.954 106.057 188.229 106.602 189.536C108.398 194.84 106.656 200.401 102.418 203.97C101.267 204.95 99.9368 205.72 98.5135 206.241C97.9847 209.235 95.6671 211.67 92.7585 212.393C92.914 212.393 93.1785 215.869 93.1707 216.18C93.1629 217.479 93.0074 218.778 92.7118 220.038C92.0974 222.62 90.9464 224.86 89.1577 226.819C88.7066 227.317 88.2322 227.792 87.7345 228.235C88.31 228.383 88.73 228.258 89.2821 228.219C89.8499 228.18 90.4331 228.211 91.0086 228.165C92.183 228.064 93.3418 227.846 94.4695 227.504C94.7105 227.434 94.9516 227.356 95.1849 227.27C94.3061 232.808 93.5595 238.353 92.7974 243.913C92.5407 245.858 93.0773 247.475 94.6017 248.766C95.2783 249.334 95.8693 250.003 96.4837 250.648C96.6937 250.874 96.8415 251.154 97.1059 251.535C96.6859 251.636 96.4759 251.722 96.266 251.722C94.9516 251.729 93.6451 251.706 92.3307 251.729C91.5997 251.737 91.0709 251.442 90.7364 250.788C90.7053 250.726 90.6664 250.656 90.6353 250.594C88.9788 247.351 87.4934 244.03 86.2568 240.608C85.4947 238.516 84.8181 236.385 84.2426 234.223C84.0092 233.36 83.2315 232.792 82.3838 232.792C82.1661 232.792 81.9483 232.831 81.7228 232.909C80.7662 233.267 80.2451 234.301 80.5484 235.281C81.3806 237.956 82.3527 240.593 83.3482 243.206C84.6314 246.55 86.1246 249.801 87.7811 252.974C88.6133 254.56 89.7954 255.416 91.6464 255.377C94.1973 255.322 96.7481 255.377 99.2913 255.369C99.6334 255.369 99.9912 255.322 100.326 255.237C102.068 254.809 102.908 253.036 102.083 251.434C101.842 250.967 101.469 250.547 101.103 250.166C99.8745 248.883 98.6458 247.592 97.3548 246.379C96.6004 245.679 96.3048 244.917 96.4448 243.913C97.3003 237.645 98.2258 231.431 99.2601 225.202C99.6879 224.906 100.108 224.587 100.512 224.253C103.88 221.422 105.7 217.557 106.415 213.279C106.462 212.999 106.516 212.618 106.703 212.494C107.418 212.004 108.235 211.638 108.95 211.141C109.899 210.48 110.972 209.881 111.68 209.002C112.715 207.703 113.632 206.272 113.881 204.538C113.928 204.25 114.153 203.861 114.41 203.745C114.861 203.543 115.39 203.511 115.888 203.41C117.995 202.99 119.582 201.139 119.893 199.086C119.947 198.728 120.181 198.184 119.488 197.92C118.477 197.539 117.653 197.088 117.007 196.193C116.455 195.423 116.136 194.49 116.121 193.533C116.098 191.286 117.661 189.334 118.104 187.125C118.314 186.13 118.275 185.087 118.011 184.1C117.879 183.61 117.692 183.128 117.459 182.684C117.357 182.498 116.774 181.806 116.969 181.58C117.295 181.207 117.7 180.849 118.057 180.452ZM64.722 251.418C64.7609 251.558 64.7143 251.714 64.6132 251.807C64.4654 251.932 64.2632 251.877 64.0843 251.877C63.9054 251.885 63.7343 251.877 63.5555 251.877H60.1413C59.8302 251.877 59.5736 251.862 59.3014 251.683C58.8426 251.379 58.6403 250.773 58.3993 250.298C58.0882 249.7 57.7926 249.085 57.4971 248.479C56.9683 247.374 56.455 246.254 55.9728 245.119C55.7317 244.551 55.2262 244.178 54.6507 244.085C54.6274 244.077 54.604 244.077 54.5807 244.077C54.5029 244.069 54.4252 244.053 54.3474 244.053C54.2696 244.053 54.1918 244.061 54.1141 244.077C54.0907 244.077 54.0674 244.077 54.0441 244.085C53.4764 244.178 52.9631 244.551 52.722 245.119C52.2398 246.254 51.7265 247.382 51.2054 248.479C50.9177 249.093 50.6144 249.7 50.3033 250.298C50.0622 250.773 49.86 251.379 49.4012 251.683C49.129 251.862 48.8801 251.877 48.5612 251.877H45.1471C44.9682 251.877 44.7971 251.885 44.6182 251.877C44.4394 251.877 44.2294 251.924 44.0816 251.807C43.9727 251.714 43.9261 251.551 43.965 251.418C44.0194 251.232 44.5871 250.742 44.7193 250.61C44.9838 250.345 45.2482 250.073 45.5126 249.801C45.8159 249.497 46.1192 249.186 46.4225 248.883L46.5625 248.743C46.9203 248.385 47.3713 247.95 47.6746 247.296C48.0324 246.527 48.0479 245.85 48.0246 245.267C48.0168 244.831 47.9857 244.388 47.9468 243.937C47.8691 243.011 47.7835 242.094 47.6746 241.184C47.5191 239.838 47.3247 238.501 47.1069 237.178C48.0557 237.077 48.989 236.898 49.8911 236.634C51.431 236.167 52.7453 235.141 54.4018 234.9C56.0117 234.674 57.7071 235.195 59.317 235.289C60.188 235.343 61.059 235.312 61.9145 235.195C61.8834 235.366 61.8523 235.53 61.8212 235.709C61.5023 237.505 61.2301 239.348 61.0201 241.184C60.919 242.094 60.8179 243.019 60.7479 243.937C60.7091 244.388 60.6779 244.831 60.6702 245.267C60.6468 245.85 60.6546 246.527 61.0124 247.296C61.3234 247.95 61.7667 248.385 62.1245 248.743L62.2645 248.883C62.5678 249.186 62.8711 249.497 63.1822 249.801C63.4466 250.065 63.711 250.337 63.9754 250.61C64.0999 250.742 64.6676 251.232 64.722 251.418ZM69.5283 218.513C66.8685 223.514 61.4945 226.236 55.895 226.656L54.8996 231.276C54.7829 231.874 53.8963 231.867 53.7797 231.276L52.792 226.656C47.1847 226.236 41.8185 223.514 39.1587 218.513C38.8243 217.852 39.6876 217.222 40.2164 217.736C42.1762 219.587 44.4316 220.901 46.8425 221.764C51.6487 223.467 57.0383 223.46 61.8367 221.764C64.2476 220.901 66.5108 219.587 68.4628 217.736C68.9839 217.215 69.8627 217.86 69.5283 218.513ZM70.7026 168.444C70.2593 176.991 62.2023 184.815 53.3753 183.478C49.6811 182.918 46.2825 180.538 44.6493 177.178C41.8263 178.71 38.5365 179.332 35.3402 178.905C33.8392 178.741 33.2248 176.766 34.3447 175.778C36.6389 173.694 37.9222 170.645 37.8833 167.496C37.8677 163.872 36.9811 159.983 38.4277 156.429C39.4309 153.909 41.904 151.731 44.7427 151.973C45.5437 152.058 45.497 153.225 44.7116 153.271C42.6584 153.427 41.033 155.247 40.5353 157.168C39.6176 160.535 40.8308 163.934 41.0174 167.395C41.2508 170.078 40.6286 172.854 39.3065 175.226C41.1885 174.899 42.9928 174.122 44.4782 172.955C45.2793 172.317 46.4614 172.481 47.068 173.305C47.2236 173.523 47.3324 173.764 47.3791 174.005C48.0013 176.968 50.8088 179.457 53.9585 179.993C63.1511 181.417 70.3604 171.478 68.1129 162.845C67.724 161.072 66.9774 159.369 65.9586 157.829C65.7564 157.525 65.8342 157.113 66.1375 156.911C66.4174 156.724 66.7985 156.779 67.0085 157.028C69.6449 160.17 70.9671 164.338 70.7026 168.444ZM86.1168 104.003C83.2471 103.366 80.6107 101.764 78.7675 99.4538C73.3935 100.893 68.1673 96.133 70.1738 90.3701C70.4849 89.6157 71.6126 89.9657 71.4492 90.759C71.2237 91.7778 71.3559 92.8433 71.737 93.7765C72.7636 96.5374 76.2321 97.4628 78.4953 95.7208C79.3274 95.0675 80.4707 95.3941 80.9606 96.3041C85.3003 102.977 95.1538 102.347 98.8557 95.363C99.3924 94.3909 99.7734 93.341 100.015 92.2522C100.186 91.4823 101.352 91.6222 101.344 92.4155C101.166 100.154 93.5829 105.652 86.1168 104.003Z" fill="#240642"/>
<path d="M53.8341 29.895C53.8418 30.0194 53.8418 30.1438 53.8341 30.2683C53.8341 30.3305 53.8185 30.3927 53.7874 30.4471C53.7563 30.5016 53.7096 30.5482 53.6474 30.5638C53.6319 30.5638 53.6163 30.5638 53.6008 30.5638C53.4997 30.4394 53.4452 30.2916 53.3674 30.1516C53.2741 29.9727 53.173 29.7939 53.0719 29.615C53.0486 29.5761 53.033 29.5294 53.0019 29.4828C52.7064 28.9384 52.4186 28.394 52.1309 27.8418C51.8431 27.2896 51.5709 26.7375 51.3065 26.1697C49.8444 23.0045 49.0511 19.7458 49.0511 16.4172C49.0511 16.2539 49.0511 16.0906 49.0589 15.9273V15.7795C49.0667 15.624 49.0667 15.4607 49.0823 15.2973C49.09 15.1496 49.0978 14.994 49.1134 14.8463C49.1134 14.8385 49.1134 14.8307 49.1134 14.8229C49.1211 14.7452 49.1211 14.6752 49.1289 14.6052C49.1367 14.5352 49.1367 14.473 49.1445 14.4108C49.1522 14.2552 49.1756 14.0997 49.1911 13.9441C49.2067 13.8119 49.23 13.6797 49.2456 13.5475C49.2611 13.4075 49.2845 13.2675 49.3078 13.1275C49.3389 12.9409 49.3622 12.762 49.3933 12.5831C49.4089 12.4976 49.4244 12.4043 49.4478 12.3109C49.51 11.9687 49.5878 11.6266 49.6733 11.2844C49.7511 10.9811 49.8444 10.6855 49.9688 10.39C50.0155 10.2733 50.0622 10.1645 50.1166 10.0478C50.4277 9.37119 50.731 8.79569 51.3765 8.37573C51.5165 8.29018 51.6643 8.20463 51.8276 8.21241C51.9831 8.21241 52.1309 8.29796 52.2553 8.39906C52.2942 8.43017 52.3331 8.46905 52.3564 8.50016C52.4342 8.64015 52.4886 8.78791 52.5353 8.93568C52.7453 9.68228 52.7375 10.5378 52.7997 11.3077C52.8619 12.1476 52.9164 12.9875 52.9553 13.8275C52.9708 14.1386 52.9864 14.4496 52.9941 14.7685C53.0019 14.8852 53.0097 14.994 53.0097 15.1029C53.0097 15.2196 53.0175 15.3207 53.0252 15.4296C53.0486 16.0362 53.0641 16.6428 53.0875 17.2494L53.1341 19.077C53.1497 19.5981 53.173 20.1191 53.1886 20.648C53.2041 21.1768 53.2275 21.6979 53.243 22.219C53.2508 22.5301 53.2663 22.8489 53.2819 23.1678C53.3208 24.0855 53.3674 25.0032 53.4374 25.9209C53.453 26.1231 53.4685 26.3331 53.4841 26.5353C53.523 27.0097 53.5619 27.4841 53.6008 27.9585C53.6163 28.114 53.6319 28.2851 53.6474 28.4484C53.6552 28.5418 53.6707 28.6273 53.6785 28.7206C53.7019 28.9228 53.7252 29.125 53.7407 29.3272C53.7485 29.4206 53.7718 29.5217 53.7796 29.615C53.8185 29.6928 53.8341 29.7939 53.8341 29.895Z" fill="white"/>
<path d="M79.9575 44.8428C80.2064 45.6049 79.7631 46.4604 79.0087 46.6859C78.301 46.8959 77.4689 46.4448 77.2356 45.7371C76.9789 44.9439 77.3989 44.1506 78.1844 43.9251C78.9543 43.6995 79.7165 44.0884 79.9575 44.8428Z" fill="white"/>
<path d="M81.653 42.1754C82.0886 42.7975 82.423 43.5363 82.3685 44.2985C82.3608 44.4307 82.3219 44.5863 82.213 44.6562C82.003 44.7885 81.8708 44.5785 81.793 44.4074C81.6919 44.2052 81.5908 44.003 81.4586 43.8085C81.1942 43.4352 80.8598 43.1086 80.4865 42.8442C80.2532 42.6809 79.9965 42.5331 79.7321 42.4164C79.3121 42.2298 78.8377 42.1442 78.3867 42.1209C77.8734 42.0976 77.3601 42.1598 76.8701 42.3076C76.0146 42.572 75.2447 43.1086 74.6925 43.8008C74.4281 44.143 74.1559 44.5396 74.0393 44.9596C73.8915 45.4651 73.8604 45.9939 73.907 46.5228C73.9459 47.0127 74.1326 47.456 74.1481 47.946C74.1481 48.0237 74.1404 48.1171 74.0704 48.1326C74.0315 48.1482 73.9926 48.1326 73.9537 48.1093C73.7826 48.0315 73.6582 47.8837 73.5493 47.7282C72.8649 46.7872 72.5849 45.5584 72.7949 44.4152C73.036 43.1397 73.8604 42.0509 74.9492 41.351C75.0658 41.2732 75.1825 41.2032 75.2991 41.141C75.6958 40.931 76.1235 40.7599 76.559 40.6433C77.329 40.4255 78.1533 40.3322 78.9466 40.4566C80.0276 40.6277 81.0075 41.2654 81.653 42.1754Z" fill="white"/>
<path d="M79.0087 46.6858C78.301 46.8958 77.4689 46.4447 77.2356 45.737C76.9789 44.9437 77.3989 44.1504 78.1844 43.9249C78.9543 43.7071 79.7087 44.096 79.9575 44.8426C80.2064 45.597 79.7631 46.4525 79.0087 46.6858Z" fill="white"/>
<path d="M82.3606 44.2902C82.3528 44.4224 82.3139 44.578 82.2051 44.6479C81.9951 44.7802 81.8629 44.5702 81.7851 44.3991C81.684 44.1969 81.5829 43.9947 81.4507 43.8002C81.1863 43.4269 80.8518 43.1003 80.4785 42.8359C80.2452 42.6726 79.9886 42.5248 79.7242 42.4081C79.3042 42.2215 78.8298 42.1359 78.3787 42.1126C77.8654 42.0893 77.3521 42.1515 76.8622 42.2993C76.0067 42.5637 75.2368 43.1003 74.6846 43.7925C74.4202 44.1347 74.148 44.5313 74.0313 44.9513C73.8836 45.4568 73.8525 45.9856 73.8991 46.5145C73.938 47.0044 74.1246 47.4477 74.1402 47.9377C74.1402 48.0154 74.1324 48.1088 74.0624 48.1243C74.0235 48.1399 73.9847 48.1243 73.9458 48.101C73.7747 48.0232 73.6502 47.8754 73.5414 47.7199C72.857 46.7789 72.577 45.5501 72.787 44.4069C73.0281 43.1314 73.8524 42.0426 74.9412 41.3427C75.0579 41.2649 75.1746 41.1949 75.2912 41.1327C75.6878 40.9227 76.1156 40.7516 76.5511 40.635C77.321 40.4172 78.1454 40.3239 78.9387 40.4483C80.043 40.6194 81.0229 41.2571 81.6684 42.1593C82.0884 42.7892 82.4228 43.5358 82.3606 44.2902Z" fill="white"/>
<path d="M109.697 54.1289C109.526 53.8645 109.262 53.6467 108.958 53.5923C108.904 53.5845 108.849 53.5767 108.803 53.569C108.468 53.6234 108.212 53.8801 108.072 54.2145C107.496 55.5444 107.87 57.1853 107.115 58.4219C107.03 58.5774 106.921 58.7174 106.765 58.803C106.649 58.8652 106.501 58.8807 106.369 58.8418C106.283 58.8418 106.198 58.8107 106.135 58.7641C106.034 58.6785 105.988 58.5541 105.949 58.4297C105.56 57.4264 104.984 56.5009 104.253 55.7077C103.522 54.9066 102.628 54.5567 101.648 54.1367C100.925 53.8256 100.194 53.5223 99.5403 53.0712C98.8248 52.5735 98.4982 52.1069 98.436 51.2281C98.3815 50.497 98.7315 49.9371 99.307 49.7193C99.5247 49.6415 99.7658 49.6104 100.03 49.6338C100.489 49.6804 100.971 49.6338 101.438 49.6804C102.503 49.7971 103.569 49.9448 104.642 50.0615C104.976 50.1004 105.35 50.1704 105.653 50.0693C105.653 50.0693 105.669 50.0693 105.669 50.0615C106.384 49.8282 107.146 49.0816 107.224 48.3194C107.349 47.1762 106.135 46.2274 105.365 45.5663C104.393 44.7264 103.336 43.9642 102.239 43.2799C102.045 43.1554 101.842 43.031 101.632 42.8988C98.887 41.1489 93.9952 38.2092 91.2499 41.5611C90.8922 42.0044 90.6277 42.5022 90.4178 43.0232C90.3711 43.1399 90.3244 43.2565 90.2856 43.381C90.2 43.6143 90.1222 43.8554 90.0445 44.1042C89.9278 44.4698 89.8189 44.8353 89.7023 45.2008C89.6634 45.3252 89.6245 45.4419 89.5778 45.5586C89.5389 45.6752 89.4923 45.7919 89.4456 45.9163C88.8235 47.4717 87.7813 48.8094 86.9181 50.2404C85.5726 52.4724 84.6394 55 84.5694 57.5975C84.4527 61.7816 86.8481 65.499 90.5811 67.3267C90.62 67.3422 90.6589 67.3655 90.6977 67.3811C92.4865 68.151 94.6329 68.6177 96.6861 68.4932C96.865 68.3688 96.9505 68.1666 96.8572 67.8477C96.795 67.6222 96.6706 67.42 96.6006 67.1945C96.5383 66.9845 96.5228 66.7512 96.5617 66.5334C96.5772 66.4167 96.6083 66.3079 96.7017 66.2379C96.8883 66.0823 97.1683 66.2379 97.3549 66.3856C97.8216 66.7512 98.3037 67.1167 98.8481 67.3422C99.3148 67.5289 99.8358 67.6066 100.318 67.4822C100.489 67.3655 100.645 67.2256 100.777 67.07C101.057 66.72 101.197 66.2301 101.034 65.8101C100.94 65.569 100.769 65.3824 100.559 65.2346C100.31 65.048 99.9992 64.908 99.7192 64.7758C99.1748 64.5191 98.6537 64.2158 98.156 63.8814C98.086 63.8425 98.016 63.7881 97.946 63.7336C97.7982 63.6325 97.6582 63.5237 97.5183 63.4148C97.0983 63.0726 96.6939 62.7071 96.3284 62.3104C95.854 61.8127 95.434 61.2916 95.0063 60.7472C94.9596 60.6772 94.8974 60.6072 94.8274 60.5761C94.7885 60.545 94.7496 60.5217 94.7107 60.5139C94.6018 60.4828 94.493 60.545 94.423 60.6228C94.3452 60.7006 94.3141 60.8095 94.2752 60.9106C94.1741 61.2139 94.1119 61.5249 94.0886 61.836C94.073 62.0693 94.1119 62.3882 93.7852 62.4271C93.653 62.4426 93.5208 62.3804 93.4119 62.2871C93.3964 62.2715 93.3886 62.256 93.3731 62.2404C93.272 62.0927 93.2253 61.9138 93.1942 61.7349C93.1086 61.2761 93.062 60.8094 93.062 60.3428C93.062 59.6973 93.1553 59.0363 93.5208 58.5152C93.7075 58.243 94.0108 58.0019 94.3374 58.0564C94.3763 58.0641 94.4074 58.0719 94.4385 58.0797C94.4619 58.0875 94.4774 58.0952 94.5007 58.1108C94.7029 58.2197 94.8974 58.4219 95.0529 58.5696C96.1961 59.6973 97.3549 60.8406 98.7315 61.6805C98.8015 61.7194 98.8637 61.7583 98.9337 61.7971C98.9726 61.8205 99.0115 61.8438 99.0503 61.8671C99.1281 61.9138 99.2059 61.9527 99.2837 61.9916C99.3381 62.0227 99.4003 62.0538 99.4548 62.0771C100.948 62.8082 102.659 63.1115 104.284 62.676C105.933 62.2327 107.457 61.4938 108.741 60.2028C110.358 58.5308 111.082 56.2054 109.697 54.1289ZM93.863 55.661C93.2175 55.451 92.4787 55.661 91.9421 56.0888C91.5843 56.3765 91.3044 56.742 91.0788 57.1464C91.071 57.1542 91.071 57.162 91.071 57.1698C90.9622 57.3564 90.8688 57.5586 90.7833 57.753C90.7755 57.7764 90.7677 57.7919 90.7522 57.8153C90.6977 57.9319 90.6355 58.0486 90.5344 58.1263C90.3322 58.2819 90.0211 58.2197 89.8423 58.0486C89.6556 57.8697 89.5778 57.6131 89.5312 57.3642C89.2745 56.0032 89.9278 54.4944 91.1488 53.8412C92.3698 53.1879 94.0652 53.5379 94.8507 54.6733C94.9751 54.8522 95.0762 55.0544 95.0918 55.2644C95.1074 55.4821 95.014 55.7154 94.8274 55.8165C94.5396 55.9721 94.1819 55.7699 93.863 55.661Z" fill="white"/>
</g>
<defs>
<clipPath id="clip0_698_9163">
<rect width="123.049" height="255.4" fill="white" transform="translate(0.817871)"/>
</clipPath>
</defs>
</svg>
