<svg xmlns="http://www.w3.org/2000/svg" xmlns:xlink="http://www.w3.org/1999/xlink" width="378" height="423" fill="none" xmlns:v="https://vecta.io/nano"><style><![CDATA[.B{stroke-linejoin:round}.C{fill:#fff}.D{stroke:#5230d7}.E{stroke-linecap:round}.F{fill-rule:evenodd}.G{fill:#2fb474}.H{fill:#e1e1e1}.I{color-interpolation-filters:sRGB}.J{flood-opacity:0}.K{fill:#5230d7}.L{stroke-width:1.035}.M{fill:#785afa}.N{fill-opacity:.08}.O{stroke:#63676d}.P{fill:#63676d}.Q{stroke-width:1.09}.R{stroke-width:1.203}]]></style><g filter="url(#B)"><rect x="76.04" y="251.012" width="277.494" height="150.486" rx="2.761" class="C"/><g filter="url(#C)"><rect x="92.606" y="267.578" width="16.567" height="16.567" rx="2.071" class="M N"/><path d="M101.408 277.07v3.106a.69.69 0 0 0 .69.691h3.106a.69.69 0 0 0 .69-.691v-3.106h-4.486z" class="B D K L"/><path d="M102.27 276.897v-1.035a1.38 1.38 0 1 1 2.761 0v1.035" class="B D E L"/><path d="M98.129 275.862v.008" class="B D E L"/><path d="M102.443 272.583v-1.726h-6.558v10.009h3.106" class="B D E L"/></g><path d="M119.088 280.578h-3.402v-10.04h3.471c.997 0 1.853.201 2.569.603a4.03 4.03 0 0 1 1.657 1.721c.386.748.578 1.644.578 2.686s-.194 1.945-.583 2.697-.943 1.328-1.672 1.73-1.598.603-2.618.603zm-1.583-1.573H119c.699 0 1.283-.128 1.75-.383a2.44 2.44 0 0 0 1.054-1.152c.236-.513.353-1.154.353-1.922s-.117-1.405-.353-1.912-.583-.89-1.044-1.142-1.026-.382-1.706-.382h-1.549v6.893zm10.273 1.725c-.477 0-.907-.085-1.289-.255s-.68-.428-.902-.764-.329-.752-.329-1.246c0-.425.079-.776.236-1.054a1.8 1.8 0 0 1 .642-.666 3.23 3.23 0 0 1 .917-.378c.343-.088.697-.152 1.063-.191l1.074-.123c.275-.039.474-.098.598-.176s.191-.208.191-.378v-.029c0-.369-.109-.655-.328-.858s-.534-.304-.946-.304c-.435 0-.78.095-1.035.284s-.421.414-.51.672l-1.657-.235a2.66 2.66 0 0 1 .647-1.148c.301-.31.669-.542 1.104-.696s.915-.235 1.441-.235c.363 0 .724.042 1.083.127s.688.226.986.422.536.456.716.789.274.75.274 1.251v5.039h-1.706v-1.034h-.059c-.108.209-.26.405-.456.588s-.436.325-.73.437c-.291.107-.633.161-1.025.161zm.461-1.304c.356 0 .665-.07.927-.211a1.56 1.56 0 0 0 .603-.568c.143-.236.215-.492.215-.77v-.887c-.055.045-.15.088-.284.127a4.01 4.01 0 0 1-.441.103l-.486.079-.416.058a3.08 3.08 0 0 0-.711.177c-.209.082-.374.196-.495.343s-.182.33-.182.559c0 .327.119.574.358.74s.543.25.912.25zm9.06-6.378v1.373h-4.329v-1.373h4.329zm-3.26-1.804h1.774v7.069c0 .239.036.422.108.549s.174.21.294.255.255.069.402.069a1.76 1.76 0 0 0 .304-.024l.216-.045.299 1.388a4.06 4.06 0 0 1-.407.108c-.173.039-.385.062-.637.068-.445.013-.845-.054-1.201-.201s-.639-.382-.848-.696-.308-.706-.304-1.176v-7.364zm6.911 9.486c-.477 0-.907-.085-1.289-.255s-.68-.428-.902-.764-.329-.752-.329-1.246c0-.425.079-.776.236-1.054a1.8 1.8 0 0 1 .642-.666 3.23 3.23 0 0 1 .917-.378c.343-.088.697-.152 1.063-.191l1.074-.123c.275-.039.474-.098.598-.176s.191-.208.191-.378v-.029c0-.369-.109-.655-.328-.858s-.534-.304-.946-.304c-.435 0-.78.095-1.035.284s-.421.414-.51.672l-1.657-.235a2.66 2.66 0 0 1 .647-1.148c.301-.31.669-.542 1.104-.696s.915-.235 1.441-.235c.363 0 .724.042 1.083.127s.688.226.986.422.536.456.716.789.274.75.274 1.251v5.039h-1.706v-1.034h-.059c-.108.209-.26.405-.456.588s-.436.325-.73.437c-.291.107-.633.161-1.025.161zm.461-1.304c.356 0 .665-.07.927-.211a1.56 1.56 0 0 0 .603-.568c.143-.236.215-.492.215-.77v-.887c-.055.045-.15.088-.284.127a4.01 4.01 0 0 1-.441.103l-.486.079-.416.058a3.08 3.08 0 0 0-.711.177c-.209.082-.374.196-.495.343s-.182.33-.182.559c0 .327.12.574.358.74s.543.25.912.25zm10.891 1.304c-.477 0-.907-.085-1.289-.255s-.68-.428-.902-.764-.329-.752-.329-1.246c0-.425.079-.776.235-1.054a1.81 1.81 0 0 1 .643-.666c.271-.167.577-.293.916-.378s.698-.152 1.064-.191l1.074-.123c.275-.039.474-.098.598-.176s.191-.208.191-.378v-.029c0-.369-.109-.655-.328-.858s-.535-.304-.946-.304c-.435 0-.78.095-1.035.284s-.421.414-.51.672l-1.657-.235a2.66 2.66 0 0 1 .647-1.148c.301-.31.669-.542 1.103-.696s.916-.235 1.442-.235c.363 0 .724.042 1.083.127s.688.226.986.422.536.456.716.789.274.75.274 1.251v5.039h-1.706v-1.034h-.059c-.108.209-.26.405-.456.588s-.436.325-.73.437c-.291.107-.633.161-1.025.161zm.461-1.304c.356 0 .665-.07.927-.211a1.56 1.56 0 0 0 .603-.568c.143-.236.215-.492.215-.77v-.887c-.055.045-.15.088-.284.127a4.01 4.01 0 0 1-.441.103l-.486.079-.416.058a3.08 3.08 0 0 0-.711.177c-.209.082-.375.196-.495.343s-.182.33-.182.559c0 .327.119.574.358.74s.543.25.912.25zm7.074-3.26v4.412h-1.774v-7.53h1.696v1.28h.088a2.15 2.15 0 0 1 .829-1.005c.382-.249.854-.373 1.417-.373.519 0 .972.111 1.358.333s.689.545.902.966.322.933.318 1.535v4.794h-1.774v-4.52c0-.503-.131-.897-.393-1.181s-.616-.427-1.073-.427c-.311 0-.587.069-.829.206a1.44 1.44 0 0 0-.564.583c-.134.255-.201.564-.201.927zm9.433 4.545a2.85 2.85 0 0 1-1.589-.456c-.467-.304-.836-.745-1.107-1.324s-.407-1.281-.407-2.108c0-.837.137-1.543.411-2.118s.652-1.015 1.123-1.309a2.89 2.89 0 0 1 1.574-.446c.441 0 .804.075 1.088.225s.51.326.677.535.296.4.387.583h.074v-3.755h1.779v10.04h-1.745v-1.186h-.108a3.02 3.02 0 0 1-.397.583c-.173.203-.402.376-.686.52s-.643.216-1.074.216zm.495-1.456c.376 0 .696-.102.961-.304s.466-.492.603-.858.206-.793.206-1.28-.069-.91-.206-1.27-.333-.639-.598-.838-.584-.299-.966-.299c-.395 0-.725.103-.99.309s-.464.49-.598.853-.201.778-.201 1.245.067.891.201 1.26.338.655.603.868.596.314.985.314zm8.831 4.147v-10.354h1.745v1.245h.103a3.33 3.33 0 0 1 .387-.583 2.08 2.08 0 0 1 .677-.535c.284-.15.647-.225 1.088-.225.582 0 1.107.149 1.574.446s.843.731 1.118 1.309.417 1.281.417 2.118c0 .827-.136 1.53-.407 2.108s-.641 1.02-1.108 1.324a2.85 2.85 0 0 1-1.589.456c-.431 0-.789-.072-1.073-.216s-.514-.317-.687-.52-.302-.4-.397-.583h-.073v4.01h-1.775zm1.74-6.589c0 .487.069.914.206 1.28s.342.652.603.858.585.304.961.304c.392 0 .721-.105.986-.314s.464-.502.598-.868.206-.789.206-1.26-.067-.882-.201-1.245-.334-.647-.599-.853-.594-.309-.99-.309c-.379 0-.701.1-.966.299s-.465.479-.603.838-.201.783-.201 1.27zm6.888 3.765v-7.53h1.721v1.255h.079c.137-.435.372-.77.706-1.005s.72-.358 1.152-.358l.328.015a2.2 2.2 0 0 1 .309.034v1.633c-.075-.026-.194-.049-.358-.069a3.27 3.27 0 0 0-.466-.034c-.323 0-.614.07-.872.211a1.54 1.54 0 0 0-.603.573c-.147.245-.221.528-.221.848v4.427h-1.775zm5.474 0v-7.53h1.775v7.53h-1.775zm.892-8.599c-.281 0-.523-.093-.725-.279a.9.9 0 0 1-.304-.682c0-.268.101-.495.304-.681a1.02 1.02 0 0 1 .725-.284 1.01 1.01 0 0 1 .726.284c.203.186.304.413.304.681a.9.9 0 0 1-.304.682c-.199.186-.441.279-.726.279zm9.434 1.069l-2.681 7.53h-1.962l-2.681-7.53h1.892l1.731 5.594h.078l1.736-5.594h1.887zm3.18 7.682c-.478 0-.907-.085-1.29-.255s-.68-.428-.902-.764-.328-.752-.328-1.246c0-.425.078-.776.235-1.054s.371-.5.642-.666a3.23 3.23 0 0 1 .917-.378 7.46 7.46 0 0 1 1.064-.191l1.074-.123c.274-.039.473-.098.598-.176s.191-.208.191-.378v-.029c0-.369-.11-.655-.329-.858s-.534-.304-.946-.304c-.435 0-.779.095-1.034.284s-.422.414-.51.672l-1.657-.235a2.65 2.65 0 0 1 .647-1.148c.301-.31.668-.542 1.103-.696s.915-.235 1.441-.235a4.7 4.7 0 0 1 1.084.127 3.05 3.05 0 0 1 .985.422c.298.193.536.456.716.789s.275.75.275 1.251v5.039h-1.707v-1.034h-.058c-.108.209-.26.405-.456.588a2.21 2.21 0 0 1-.731.437c-.291.107-.632.161-1.024.161zm.46-1.304c.357 0 .666-.07.927-.211a1.56 1.56 0 0 0 .603-.568 1.45 1.45 0 0 0 .216-.77v-.887c-.056.045-.151.088-.285.127s-.277.074-.441.103l-.485.079-.417.058a3.08 3.08 0 0 0-.711.177c-.209.082-.374.196-.495.343s-.181.33-.181.559c0 .327.119.574.358.74s.542.25.911.25zm8.585 1.299c-.752 0-1.397-.165-1.937-.495s-.949-.786-1.24-1.368-.431-1.258-.431-2.019.147-1.44.441-2.025.709-1.046 1.245-1.373 1.177-.495 1.912-.495c.611 0 1.152.113 1.623.338a2.77 2.77 0 0 1 1.132.946c.281.406.442.88.481 1.422h-1.697a1.62 1.62 0 0 0-.49-.907c-.255-.245-.596-.368-1.024-.368-.363 0-.682.099-.956.295s-.489.47-.643.833-.225.798-.225 1.304c0 .513.075.955.225 1.324s.361.649.633.848.596.294.966.294c.261 0 .495-.049.701-.147s.384-.247.524-.436.237-.42.289-.691h1.697c-.043.532-.2 1.005-.471 1.416s-.641.729-1.108.961-1.016.343-1.647.343zm5.786 2.677a3.53 3.53 0 0 1-.672-.059c-.202-.036-.364-.078-.485-.127l.412-1.383c.258.076.489.112.691.108a.85.85 0 0 0 .535-.191c.156-.121.289-.323.397-.608l.152-.407-2.731-7.687h1.883l1.735 5.687h.078l1.741-5.687h1.887l-3.015 8.442c-.14.399-.327.741-.559 1.025a2.27 2.27 0 0 1-.853.657c-.333.153-.732.23-1.196.23z" fill="#333"/><path d="M329.374 271.937l4.141 4.141-4.141 4.142" stroke-width="1.381" class="B E O"/><g clip-path="url(#H)"><g clip-path="url(#I)"><path d="M98.129 312.188c3.049 0 5.522-2.473 5.522-5.522s-2.473-5.523-5.522-5.523-5.522 2.473-5.522 5.523 2.472 5.522 5.522 5.522zm2.462-6.564a.52.52 0 0 0-.052-.73.52.52 0 0 0-.731.052l-2.563 2.957-.768-1.063c-.167-.232-.491-.284-.723-.116s-.284.491-.117.722l.768 1.063c.391.542 1.185.577 1.622.072l2.563-2.957z" class="F G"/><rect x="110.554" y="303.947" width="224.57" height="5.437" rx="2.718" class="H"/><path d="M98.129 334.277c3.049 0 5.522-2.472 5.522-5.522s-2.473-5.523-5.522-5.523-5.522 2.473-5.522 5.523 2.472 5.522 5.522 5.522zm2.462-6.564a.52.52 0 0 0-.052-.73.52.52 0 0 0-.731.052l-2.563 2.958-.768-1.063a.52.52 0 0 0-.723-.117.52.52 0 0 0-.117.723l.768 1.063c.391.541 1.185.576 1.622.072l2.563-2.958z" class="F G"/><rect x="110.554" y="326.036" width="224.57" height="5.437" rx="2.718" class="H"/><path d="M98.129 356.366c3.049 0 5.522-2.472 5.522-5.522s-2.473-5.523-5.522-5.523-5.522 2.473-5.522 5.523 2.472 5.522 5.522 5.522zm2.462-6.564a.52.52 0 0 0-.052-.73.52.52 0 0 0-.731.052l-2.563 2.957-.768-1.063c-.167-.232-.491-.284-.723-.116s-.284.491-.117.722l.768 1.063c.391.542 1.185.577 1.622.072l2.563-2.957z" class="F G"/><rect x="110.554" y="348.125" width="224.57" height="5.437" rx="2.718" class="H"/></g></g><path d="M93.746 374.903l2.087 5.916h.082l2.087-5.916h.892l-2.581 7.028h-.879l-2.581-7.028h.892zm6.133 7.028v-5.271h.81v5.271h-.81zm.412-6.15c-.158 0-.294-.054-.408-.161a.52.52 0 0 1-.168-.388.52.52 0 0 1 .168-.388c.114-.107.25-.161.408-.161s.293.054.405.161.172.237.172.388-.058.28-.172.388-.247.161-.405.161zm4.092 6.26c-.508 0-.946-.112-1.315-.337s-.648-.542-.847-.947-.295-.881-.295-1.421.098-1.015.295-1.427.476-.737.83-.968.773-.35 1.249-.35c.275 0 .546.046.814.137s.511.241.731.446.394.474.525.81.195.751.195 1.243v.343h-4.063v-.7h3.24c0-.298-.06-.563-.179-.796s-.283-.418-.501-.553-.469-.202-.762-.202c-.322 0-.601.08-.837.24s-.413.364-.539.618a1.81 1.81 0 0 0-.189.816v.467c0 .398.069.736.206 1.012s.333.484.58.628a1.7 1.7 0 0 0 .862.213c.212 0 .405-.03.576-.089a1.23 1.23 0 0 0 .45-.275c.126-.123.223-.276.292-.459l.782.219a1.73 1.73 0 0 1-.415.7 2.03 2.03 0 0 1-.721.467c-.286.11-.607.165-.964.165zm4.609-.11l-1.606-5.271h.851l1.139 4.035h.055l1.126-4.035h.864l1.112 4.022h.055l1.14-4.022h.851l-1.606 5.271h-.797l-1.153-4.05h-.082l-1.153 4.05h-.796zm10.927.123a2.14 2.14 0 0 1-.91-.188 1.57 1.57 0 0 1-.649-.553c-.16-.242-.24-.535-.24-.878 0-.302.06-.547.179-.735s.278-.338.477-.446.418-.188.659-.24l.731-.131.779-.092c.201-.023.347-.061.439-.113s.141-.145.141-.275v-.027c0-.339-.093-.602-.278-.79s-.461-.281-.834-.281c-.387 0-.69.084-.91.254s-.374.35-.463.542l-.769-.275c.138-.32.321-.569.549-.748a2.07 2.07 0 0 1 .755-.377 3.15 3.15 0 0 1 .81-.11 3.23 3.23 0 0 1 .584.062c.222.039.436.12.641.243s.381.31.519.56.206.583.206 1.002v3.473h-.81v-.714h-.042c-.054.114-.146.237-.274.367s-.299.242-.511.333-.473.137-.779.137zm.123-.727c.32 0 .59-.063.81-.189s.389-.288.501-.487.172-.409.172-.628v-.741c-.035.041-.11.078-.227.113s-.247.06-.398.086l-.436.061-.34.042c-.21.027-.407.072-.59.133s-.327.15-.439.272-.165.281-.165.487c0 .281.104.494.312.638s.477.213.8.213zm4.581-6.424v7.028h-.81v-7.028h.81zm2.293 0v7.028h-.81v-7.028h.81zm4.188 7.028v-.618l2.32-2.539.672-.776c.176-.222.307-.43.391-.625s.131-.402.131-.617c0-.247-.06-.461-.179-.642s-.276-.32-.48-.419-.432-.147-.686-.147a1.43 1.43 0 0 0-.707.168 1.16 1.16 0 0 0-.464.463c-.107.199-.161.433-.161.7h-.81c0-.412.095-.773.285-1.084a1.98 1.98 0 0 1 .776-.728c.329-.174.698-.261 1.108-.261s.777.087 1.095.261.567.409.748.704.271.623.271.985c0 .258-.047.511-.141.758s-.251.518-.48.82-.541.666-.944 1.099l-1.579 1.688v.055h3.268v.755h-4.434zm5.535-1.441v-.701l3.089-4.886h.508v1.084h-.343l-2.334 3.693v.055h4.159v.755h-5.079zm3.308 1.441v-1.654-.326-5.048h.81v7.028h-.81zm7.93.11c-.494 0-.919-.117-1.276-.35s-.632-.555-.824-.965-.288-.877-.288-1.403c0-.536.098-1.008.295-1.418s.476-.733.831-.964a2.23 2.23 0 0 1 1.249-.35c.37 0 .704.069 1.002.206a1.92 1.92 0 0 1 .731.576c.19.248.308.536.353.865h-.81c-.061-.24-.199-.453-.411-.638s-.495-.281-.852-.281a1.42 1.42 0 0 0-.83.247c-.236.162-.42.392-.553.689s-.195.642-.195 1.04c0 .408.064.762.192 1.064s.313.537.549.704a1.42 1.42 0 0 0 .837.25c.211 0 .402-.036.574-.11s.316-.178.435-.315a1.21 1.21 0 0 0 .254-.495h.81a1.87 1.87 0 0 1-.339.841c-.179.247-.416.444-.711.591s-.634.216-1.023.216zm4.067-3.281v3.171h-.81v-7.028h.81v2.58h.069c.123-.272.309-.488.556-.648s.581-.244.995-.244c.359 0 .674.072.944.216s.479.361.628.656.226.665.226 1.118v3.35h-.81v-3.295c0-.418-.108-.742-.326-.971s-.513-.346-.895-.346c-.266 0-.504.056-.714.168s-.373.275-.494.49-.179.476-.179.783zm7.11 3.281c-.508 0-.946-.112-1.314-.337s-.649-.542-.848-.947-.295-.881-.295-1.421.098-1.015.295-1.427.476-.737.83-.968.774-.35 1.25-.35c.274 0 .545.046.813.137s.511.241.731.446.395.474.525.81.196.751.196 1.243v.343h-4.064v-.7h3.24c0-.298-.059-.563-.178-.796s-.284-.418-.501-.553-.469-.202-.762-.202c-.323 0-.602.08-.838.24s-.413.364-.538.618a1.81 1.81 0 0 0-.189.816v.467c0 .398.068.736.206 1.012a1.48 1.48 0 0 0 .58.628c.247.142.534.213.861.213a1.77 1.77 0 0 0 .577-.089c.173-.062.323-.153.449-.275s.223-.276.292-.459l.782.219a1.72 1.72 0 0 1-.415.7 2.02 2.02 0 0 1-.721.467c-.286.11-.607.165-.964.165zm5.556 0c-.494 0-.92-.117-1.276-.35s-.632-.555-.824-.965-.288-.877-.288-1.403c0-.536.098-1.008.295-1.418a2.34 2.34 0 0 1 .83-.964c.357-.233.774-.35 1.249-.35.371 0 .705.069 1.002.206s.542.329.731.576.308.536.354.865h-.81c-.062-.24-.199-.453-.412-.638s-.494-.281-.851-.281c-.316 0-.592.082-.83.247s-.42.392-.553.689-.195.642-.195 1.04c0 .408.064.762.192 1.064s.313.537.549.704a1.42 1.42 0 0 0 .837.25c.211 0 .402-.036.573-.11a1.18 1.18 0 0 0 .436-.315 1.21 1.21 0 0 0 .254-.495h.81a1.87 1.87 0 0 1-.34.841c-.178.247-.415.444-.71.591s-.634.216-1.023.216zm4.012-2.032l-.014-1.002h.165l2.306-2.347h1.002l-2.457 2.484h-.069l-.933.865zm-.755 1.922v-7.028h.81v7.028h-.81zm3.349 0l-2.059-2.608.577-.563 2.512 3.171h-1.03zm5.641-4.091l-.727.206c-.046-.121-.113-.239-.203-.353s-.206-.213-.357-.289-.344-.113-.579-.113c-.323 0-.592.074-.807.223s-.319.333-.319.56c0 .201.073.36.22.477s.375.213.686.291l.782.192c.472.115.823.29 1.054.526s.347.534.347.902c0 .302-.087.572-.261.81a1.73 1.73 0 0 1-.721.563c-.309.137-.668.206-1.078.206-.537 0-.982-.117-1.335-.35s-.575-.575-.669-1.023l.769-.192c.073.284.212.496.415.638s.475.213.807.213c.377 0 .677-.08.899-.24s.336-.357.336-.584c0-.183-.064-.336-.192-.46s-.325-.219-.59-.281l-.879-.206c-.483-.114-.837-.292-1.064-.532s-.336-.545-.336-.909c0-.298.083-.561.25-.79s.4-.408.69-.538.625-.196.996-.196c.521 0 .931.114 1.228.343s.513.531.638.906z" class="P"/><rect x="76.54" y="251.512" width="276.494" height="149.486" rx="2.261" stroke="#d9d9d9"/></g><g filter="url(#D)"><rect x="76.04" y="6.022" width="277.494" height="157.742" rx="2.906" class="C"/><g filter="url(#E)"><rect x="93.474" y="23.456" width="17.434" height="17.434" rx="2.179" class="M N"/><path d="M97.651 28.359c0-.802.65-1.453 1.453-1.453h6.174c.803 0 1.453.65 1.453 1.453v9.08h-9.08v-9.08z" class="B D Q"/><path d="M107.457 37.44H96.924" class="B D E Q"/><path d="M100.556 34.897c0-.802.651-1.453 1.453-1.453h.363c.803 0 1.453.651 1.453 1.453v2.543h-3.269v-2.543z" class="B D K Q"/><path d="M100.738 31.447c.401 0 .726-.325.726-.726s-.325-.726-.726-.726-.726.325-.726.726.325.726.726.726z" class="K"/><path d="M103.644 31.447c.401 0 .726-.325.726-.726s-.325-.726-.726-.726-.727.325-.727.726.326.726.727.726z" class="K"/></g><path d="M127.203 32.173c0 1.138-.213 2.113-.64 2.925s-1.001 1.427-1.733 1.857-1.557.645-2.482.645-1.754-.215-2.487-.645-1.307-1.054-1.733-1.862-.635-1.785-.635-2.92.212-2.112.635-2.92 1.004-1.433 1.733-1.863 1.562-.645 2.487-.645 1.753.215 2.482.645 1.31 1.051 1.733 1.863.64 1.782.64 2.92zm-1.924 0c0-.801-.126-1.477-.377-2.028s-.592-.972-1.032-1.254-.947-.428-1.522-.428-1.082.143-1.522.428-.786.7-1.037 1.254-.371 1.226-.371 2.028.123 1.479.371 2.033.597.968 1.037 1.254.948.423 1.522.423 1.082-.141 1.522-.423.784-.703 1.032-1.254.377-1.231.377-2.033zm3.651 5.283v-7.925h1.811v1.321h.083c.144-.457.392-.81.742-1.058s.759-.377 1.213-.377l.346.015a2.34 2.34 0 0 1 .325.036v1.718a1.99 1.99 0 0 0-.377-.072c-.169-.024-.332-.036-.49-.036-.341 0-.647.074-.919.222s-.479.346-.634.604-.232.556-.232.892v4.659h-1.868zm8.88 3.137c-.67 0-1.246-.091-1.728-.273s-.868-.42-1.161-.722a2.51 2.51 0 0 1-.609-1.006l1.682-.408a1.85 1.85 0 0 0 .331.459c.144.155.338.282.583.382s.558.155.933.155c.53 0 .969-.129 1.316-.387s.521-.674.521-1.259v-1.501h-.093c-.096.193-.237.39-.423.593s-.425.373-.727.511-.676.206-1.13.206c-.609 0-1.161-.143-1.656-.428s-.884-.719-1.177-1.29-.433-1.293-.433-2.157c0-.87.144-1.605.433-2.203s.687-1.058 1.182-1.367 1.047-.469 1.656-.469c.464 0 .846.079 1.145.237s.544.342.723.562.314.421.407.614h.103v-1.31h1.842v8.054c0 .678-.161 1.238-.485 1.682s-.765.776-1.326.996-1.197.33-1.909.33zm.016-4.716c.395 0 .733-.096 1.011-.289s.49-.47.635-.831.216-.795.216-1.3c0-.499-.072-.935-.216-1.31s-.351-.666-.63-.872-.614-.315-1.016-.315c-.416 0-.764.108-1.042.325s-.489.514-.63.893-.211.801-.211 1.279c0 .485.07.91.211 1.274s.356.643.635.846.628.299 1.037.299zm7.899 1.739c-.502 0-.955-.089-1.357-.268a2.21 2.21 0 0 1-.949-.805c-.231-.354-.346-.791-.346-1.311 0-.447.082-.817.248-1.109s.39-.526.675-.702.607-.308.965-.397.735-.16 1.12-.201l1.13-.129c.289-.041.498-.103.629-.186s.201-.218.201-.397v-.031c0-.389-.115-.69-.345-.903s-.563-.32-.996-.32c-.458 0-.82.1-1.089.299s-.443.435-.536.707l-1.744-.248c.137-.482.364-.884.681-1.207s.703-.571 1.161-.733.963-.248 1.517-.248c.381 0 .761.045 1.14.134a3.21 3.21 0 0 1 1.037.444c.313.203.564.48.753.831s.289.789.289 1.316v5.304h-1.796v-1.089h-.061a2.3 2.3 0 0 1-.48.619c-.203.189-.459.342-.769.459s-.666.17-1.078.17zm.485-1.372c.375 0 .7-.074.975-.222s.487-.351.634-.599a1.52 1.52 0 0 0 .227-.81v-.934c-.058.048-.158.093-.299.134a4.2 4.2 0 0 1-.464.108l-.511.083-.438.062a3.28 3.28 0 0 0-.749.186c-.22.086-.393.206-.521.361s-.191.347-.191.588c0 .344.126.604.377.779s.571.263.96.263zm7.445-3.431v4.643h-1.868v-7.925h1.785v1.347h.093c.182-.444.473-.796.872-1.058s.899-.392 1.491-.392c.547 0 1.023.117 1.429.351a2.36 2.36 0 0 1 .949 1.016c.227.444.339.982.336 1.615v5.046h-1.868v-4.757c0-.53-.138-.944-.413-1.243s-.648-.449-1.13-.449c-.326 0-.617.072-.872.217s-.448.346-.593.614-.211.593-.211.975zm6.985 4.643v-7.925h1.868v7.925h-1.868zm.939-9.049c-.296 0-.55-.098-.763-.294s-.32-.439-.32-.717.106-.521.32-.717.467-.299.763-.299a1.07 1.07 0 0 1 .764.299c.213.196.32.435.32.717s-.107.518-.32.717a1.08 1.08 0 0 1-.764.294zm2.746 9.049v-1.187l4.086-5.123v-.067h-3.952v-1.548h6.238v1.274l-3.89 5.035v.067h4.024v1.548h-6.506zm10.542.16c-.502 0-.955-.089-1.357-.268s-.715-.451-.949-.805-.346-.791-.346-1.311c0-.447.083-.817.248-1.109a1.91 1.91 0 0 1 .676-.702 3.41 3.41 0 0 1 .964-.397c.361-.093.735-.16 1.12-.201l1.13-.129c.289-.041.498-.103.629-.186s.201-.218.201-.397v-.031c0-.389-.115-.69-.345-.903s-.563-.32-.996-.32c-.457 0-.82.1-1.089.299a1.49 1.49 0 0 0-.536.707l-1.744-.248c.138-.482.365-.884.681-1.207s.703-.571 1.161-.733.963-.248 1.517-.248a4.94 4.94 0 0 1 1.14.134 3.21 3.21 0 0 1 1.037.444c.313.203.564.48.753.831s.289.789.289 1.316v5.304h-1.795v-1.089h-.062a2.3 2.3 0 0 1-.48.619c-.203.189-.459.342-.769.459s-.665.17-1.078.17zm.485-1.372c.375 0 .7-.074.975-.222s.487-.351.635-.599.227-.518.227-.81v-.934a.89.89 0 0 1-.3.134 4.2 4.2 0 0 1-.464.108l-.511.083-.438.062c-.279.038-.528.1-.748.186s-.394.206-.522.361-.19.347-.19.588c0 .344.125.604.376.779s.571.263.96.263zm9.534-6.712v1.445h-4.555v-1.445h4.555zm-3.431-1.899h1.868v7.44c0 .251.038.444.113.578s.183.22.31.268.268.072.423.072c.117 0 .224-.009.32-.026l.227-.046.315 1.46c-.1.034-.243.072-.429.113s-.405.065-.67.072c-.468.014-.889-.057-1.264-.212s-.673-.402-.893-.733-.323-.743-.32-1.238v-7.749zm4.993 9.823v-7.925h1.868v7.925h-1.868zm.939-9.049c-.296 0-.55-.098-.763-.294s-.32-.439-.32-.717.106-.521.32-.717.467-.299.763-.299a1.07 1.07 0 0 1 .764.299c.213.196.32.435.32.717s-.107.518-.32.717a1.08 1.08 0 0 1-.764.294zm6.306 9.204c-.774 0-1.445-.17-2.012-.511s-1.008-.817-1.321-1.429-.464-1.328-.464-2.146.155-1.536.464-2.151.753-1.094 1.321-1.434 1.238-.511 2.012-.511 1.445.17 2.012.511 1.006.819 1.316 1.434.469 1.333.469 2.151-.156 1.534-.469 2.146-.748 1.089-1.316 1.429-1.238.511-2.012.511zm.01-1.496c.42 0 .771-.115 1.053-.346s.492-.547.629-.939a3.85 3.85 0 0 0 .212-1.31c0-.485-.071-.924-.212-1.316s-.347-.71-.629-.944-.633-.351-1.053-.351c-.43 0-.787.117-1.073.351s-.493.549-.634.944-.207.831-.207 1.316.069.918.207 1.31.352.705.634.939.643.346 1.073.346zm7.24-3.302v4.643h-1.868v-7.925h1.786v1.347h.092a2.27 2.27 0 0 1 .872-1.058c.403-.261.9-.392 1.491-.392.547 0 1.024.117 1.429.351s.726.573.95 1.016.339.982.335 1.615v5.046h-1.868v-4.757c0-.53-.137-.944-.412-1.243s-.649-.449-1.13-.449c-.327 0-.618.072-.872.217a1.5 1.5 0 0 0-.593.614c-.141.268-.212.593-.212.975zm9.266 4.803c-.502 0-.954-.089-1.357-.268s-.715-.451-.949-.805-.346-.791-.346-1.311c0-.447.083-.817.248-1.109a1.91 1.91 0 0 1 .676-.702c.285-.175.607-.308.965-.397s.734-.16 1.119-.201l1.13-.129c.289-.041.499-.103.629-.186s.202-.218.202-.397v-.031c0-.389-.116-.69-.346-.903s-.562-.32-.996-.32c-.457 0-.82.1-1.088.299s-.444.435-.537.707l-1.744-.248c.138-.482.365-.884.681-1.207a2.97 2.97 0 0 1 1.161-.733c.458-.165.963-.248 1.517-.248a4.93 4.93 0 0 1 1.14.134 3.21 3.21 0 0 1 1.037.444c.313.203.564.48.753.831s.289.789.289 1.316v5.304h-1.795v-1.089h-.062a2.28 2.28 0 0 1-.48.619c-.203.189-.459.342-.769.459s-.665.17-1.078.17zm.485-1.372c.375 0 .7-.074.975-.222s.487-.351.635-.599.227-.518.227-.81v-.934c-.059.048-.158.093-.299.134s-.293.077-.465.108l-.511.083-.438.062c-.279.038-.528.1-.748.186a1.24 1.24 0 0 0-.521.361c-.128.151-.191.347-.191.588 0 .344.125.604.376.779s.571.263.96.263zm7.445-9.354v10.566h-1.868V26.89h1.868zm11.788 4.736l-1.703.186c-.048-.172-.132-.334-.253-.485s-.275-.273-.474-.366-.444-.139-.733-.139c-.389 0-.715.084-.98.253s-.391.387-.387.655c-.004.23.081.418.253.562s.464.263.866.356l1.352.289c.75.162 1.307.418 1.672.769s.553.81.557 1.377c-.004.499-.15.939-.439 1.321s-.682.674-1.192.887-1.093.32-1.754.32c-.97 0-1.75-.203-2.342-.609s-.944-.979-1.058-1.708l1.822-.175c.082.358.258.628.526.81s.617.273 1.047.273c.444 0 .8-.091 1.068-.273s.408-.408.408-.676c0-.227-.088-.414-.263-.562s-.441-.261-.805-.34l-1.352-.284c-.76-.158-1.322-.425-1.687-.8s-.545-.856-.542-1.434c-.003-.488.129-.912.397-1.269s.649-.64 1.13-.836 1.044-.299 1.677-.299c.929 0 1.66.198 2.193.593a2.5 2.5 0 0 1 .996 1.605zm5.218 5.985c-.794 0-1.481-.165-2.058-.495s-1.017-.805-1.326-1.414-.465-1.333-.465-2.162c0-.815.155-1.531.465-2.146s.749-1.101 1.31-1.445 1.219-.521 1.976-.521a4 4 0 0 1 1.383.237c.437.155.822.395 1.155.722a3.38 3.38 0 0 1 .795 1.249c.193.502.289 1.101.289 1.795v.573h-6.496v-1.259h4.706c-.004-.358-.081-.676-.232-.954a1.69 1.69 0 0 0-.635-.666c-.268-.162-.581-.242-.939-.242-.382 0-.717.093-1.006.279a1.92 1.92 0 0 0-.676.722c-.158.296-.239.621-.242.975v1.099c0 .461.084.856.252 1.187s.404.578.707.753.657.258 1.063.258c.272 0 .518-.038.738-.114a1.63 1.63 0 0 0 .572-.346 1.44 1.44 0 0 0 .367-.562l1.744.196c-.111.461-.32.863-.63 1.207s-.698.605-1.176.794-1.025.279-1.641.279zm8.561 0c-.791 0-1.471-.174-2.038-.521s-.999-.827-1.306-1.439c-.302-.616-.454-1.324-.454-2.126s.155-1.515.465-2.131a3.46 3.46 0 0 1 1.31-1.445c.568-.347 1.238-.521 2.012-.521.644 0 1.213.119 1.708.356s.896.566 1.192.996.464.925.505 1.496h-1.785c-.072-.382-.244-.7-.516-.955s-.627-.387-1.078-.387c-.382 0-.717.103-1.006.31s-.514.495-.676.877-.237.839-.237 1.372c0 .54.079 1.004.237 1.393s.38.683.666.893a1.7 1.7 0 0 0 1.016.309c.275 0 .521-.051.738-.155s.404-.26.552-.459.249-.442.304-.727h1.785c-.044.561-.209 1.058-.495 1.491s-.674.767-1.166 1.011-1.069.361-1.733.361zm9.979-3.488v-4.592h1.868v7.925h-1.811v-1.408h-.083c-.179.444-.473.806-.882 1.089s-.906.423-1.501.423c-.52 0-.979-.115-1.378-.346a2.41 2.41 0 0 1-.929-1.016c-.223-.447-.335-.987-.335-1.62v-5.046h1.868v4.757c0 .502.137.901.412 1.197s.637.444 1.084.444c.275 0 .542-.067.8-.201s.469-.334.634-.599.253-.604.253-1.006zm3.788 3.333v-7.925h1.811v1.321h.083c.144-.457.392-.81.743-1.058s.758-.377 1.212-.377l.346.015a2.34 2.34 0 0 1 .325.036v1.718c-.079-.027-.205-.052-.377-.072s-.332-.036-.49-.036c-.341 0-.647.074-.918.222a1.62 1.62 0 0 0-.635.604c-.155.258-.232.556-.232.892v4.659h-1.868zm5.761 0v-7.925h1.867v7.925h-1.867zm.938-9.049a1.09 1.09 0 0 1-.763-.294c-.213-.2-.32-.439-.32-.717s.107-.521.32-.717a1.08 1.08 0 0 1 .763-.299c.3 0 .554.1.764.299s.32.435.32.717-.107.518-.32.717-.464.294-.764.294zm6.807 1.125v1.445h-4.556v-1.445h4.556zm-3.431-1.899h1.868v7.44c0 .251.037.444.113.578a.61.61 0 0 0 .31.268c.127.048.268.072.423.072a1.83 1.83 0 0 0 .32-.026l.227-.046.314 1.46c-.099.034-.242.072-.428.113s-.406.065-.671.072c-.467.014-.889-.057-1.264-.212s-.672-.402-.892-.733-.324-.743-.32-1.238v-7.749zm6.154 12.795a3.78 3.78 0 0 1-.707-.062c-.213-.038-.384-.083-.511-.134l.433-1.455c.272.079.515.117.728.114a.89.89 0 0 0 .562-.201c.165-.127.305-.341.418-.64l.16-.428-2.874-8.09h1.982l1.826 5.985h.082l1.832-5.985h1.986l-3.173 8.884c-.148.42-.344.779-.588 1.078a2.39 2.39 0 0 1-.897.691c-.351.162-.771.242-1.259.242z" fill="#333"/><path d="M328.109 28.097l4.358 4.359-4.358 4.358" stroke-width="1.453" class="B E O"/><g clip-path="url(#J)"><g clip-path="url(#K)"><use xlink:href="#N" class="F G"/><rect x="112.361" y="61.995" width="223.739" height="5.417" rx="2.708" class="H"/><path d="M99.285 93.761c3.21 0 5.812-2.602 5.812-5.811s-2.602-5.811-5.812-5.811-5.811 2.602-5.811 5.811 2.602 5.811 5.811 5.811zm2.591-6.907c.197-.227.173-.572-.055-.769s-.571-.172-.768.055l-2.697 3.112-.808-1.119c-.176-.244-.517-.299-.761-.123s-.299.517-.123.761l.808 1.119a1.09 1.09 0 0 0 1.707.076l2.697-3.112z" class="F G"/><rect x="112.361" y="85.241" width="223.739" height="5.417" rx="2.708" class="H"/><path d="M99.285 117.006c3.21 0 5.812-2.602 5.812-5.811a5.81 5.81 0 0 0-11.623 0c0 3.209 2.602 5.811 5.811 5.811zm2.591-6.907c.197-.227.173-.571-.055-.768s-.571-.173-.768.054l-2.697 3.113-.808-1.119c-.176-.244-.517-.299-.761-.123s-.299.517-.123.761l.808 1.119a1.09 1.09 0 0 0 1.707.075l2.697-3.112z" class="F G"/><rect x="112.361" y="108.487" width="223.739" height="5.417" rx="2.708" class="H"/></g></g><path d="M94.673 137.047l2.196 6.226h.087l2.196-6.226h.939l-2.716 7.396h-.925l-2.716-7.396h.939zm6.453 7.396v-5.547h.853v5.547h-.853zm.434-6.472c-.166 0-.31-.056-.43-.17s-.177-.249-.177-.408.059-.295.177-.408.264-.17.43-.17.308.057.426.17a.54.54 0 0 1 .181.408.54.54 0 0 1-.181.408.59.59 0 0 1-.426.17zm4.306 6.587c-.535 0-.996-.118-1.384-.353s-.682-.571-.892-.997-.31-.927-.31-1.495.103-1.069.31-1.503.501-.775.874-1.018.814-.369 1.315-.369a2.64 2.64 0 0 1 .856.145 2.12 2.12 0 0 1 .769.469c.231.215.415.499.553.853s.206.789.206 1.307v.361h-4.276v-.737h3.409c0-.313-.063-.592-.188-.837a1.42 1.42 0 0 0-.527-.582 1.48 1.48 0 0 0-.802-.213c-.339 0-.633.084-.881.253s-.435.383-.567.65a1.9 1.9 0 0 0-.199.859v.492c0 .419.072.774.217 1.065s.35.509.61.661.562.224.907.224c.224 0 .426-.031.606-.094a1.3 1.3 0 0 0 .474-.289 1.31 1.31 0 0 0 .306-.484l.824.231a1.83 1.83 0 0 1-.437.737 2.14 2.14 0 0 1-.759.491c-.3.116-.639.173-1.014.173zm4.85-.115l-1.69-5.547h.895l1.199 4.247h.058l1.185-4.247h.91l1.17 4.232h.058l1.199-4.232h.895l-1.69 5.547h-.838l-1.213-4.262h-.087l-1.213 4.262h-.838zm11.499.13c-.352 0-.671-.066-.957-.199s-.514-.328-.683-.581-.253-.564-.253-.925c0-.318.063-.575.188-.773a1.33 1.33 0 0 1 .502-.469 2.64 2.64 0 0 1 .694-.253l.769-.137.82-.098c.212-.024.366-.063.462-.119s.148-.152.148-.289v-.029c0-.356-.097-.633-.292-.83s-.486-.296-.878-.296c-.407 0-.726.089-.957.267s-.394.368-.488.57l-.809-.288c.145-.338.337-.6.578-.788a2.17 2.17 0 0 1 .795-.397 3.3 3.3 0 0 1 .852-.116c.178 0 .383.022.614.065s.459.127.675.257.401.326.546.588.216.614.216 1.055v3.655h-.852v-.751h-.043c-.058.12-.154.249-.289.386s-.314.254-.538.35-.498.145-.82.145zm.13-.766c.337 0 .621-.066.852-.198s.409-.304.527-.513.181-.43.181-.661v-.78c-.036.043-.116.083-.238.119s-.26.064-.419.09l-.459.065-.357.044a3.27 3.27 0 0 0-.622.14c-.19.063-.344.158-.462.286s-.173.296-.173.513c0 .296.109.52.328.671s.502.224.842.224zm4.82-6.76v7.396h-.852v-7.396h.852zm2.414 0v7.396h-.853v-7.396h.853zm7.007 0v7.396h-.896v-6.457h-.043l-1.806 1.199v-.911l1.849-1.227h.896zm4.54 7.497c-.545 0-1.008-.148-1.391-.444s-.675-.731-.878-1.297-.303-1.254-.303-2.058.101-1.482.303-2.048.499-1.002.882-1.3.847-.452 1.387-.452 1 .151 1.383.452.679.732.881 1.3.307 1.248.307 2.048-.101 1.49-.303 2.058-.495.998-.878 1.297-.846.444-1.39.444zm0-.795c.539 0 .958-.26 1.256-.78s.448-1.261.448-2.224c0-.641-.068-1.186-.206-1.636s-.33-.794-.585-1.03a1.29 1.29 0 0 0-.913-.353c-.535 0-.953.263-1.254.79s-.451 1.268-.451 2.229c0 .64.067 1.184.202 1.632s.329.789.582 1.022.562.35.921.35zm9.072.809c-.52 0-.968-.122-1.344-.368s-.664-.584-.867-1.015-.303-.923-.303-1.477c0-.563.104-1.06.311-1.491a2.44 2.44 0 0 1 .874-1.015c.375-.246.813-.369 1.314-.369.39 0 .742.073 1.055.217s.569.347.769.607.324.563.372.91h-.852c-.065-.253-.21-.477-.434-.672s-.52-.296-.895-.296c-.333 0-.624.087-.874.26s-.442.413-.582.726-.206.675-.206 1.094c0 .429.068.802.203 1.12a1.71 1.71 0 0 0 .577.74c.251.176.544.264.882.264.221 0 .422-.039.603-.116a1.25 1.25 0 0 0 .458-.332c.126-.144.215-.318.268-.52h.852a1.97 1.97 0 0 1-.358.885c-.187.26-.437.467-.747.621s-.667.227-1.076.227zm4.279-3.452v3.337h-.852v-7.396h.852v2.715h.072c.13-.286.325-.514.585-.682s.612-.257 1.048-.257c.378 0 .709.076.993.228a1.53 1.53 0 0 1 .661.69c.159.308.238.7.238 1.177v3.525h-.852v-3.467c0-.441-.114-.781-.343-1.022s-.541-.365-.943-.365c-.279 0-.529.059-.751.177s-.392.29-.52.516-.188.501-.188.824zm7.482 3.452c-.534 0-.995-.118-1.383-.353s-.682-.571-.892-.997-.311-.927-.311-1.495.104-1.069.311-1.503.501-.775.874-1.018.814-.369 1.315-.369a2.64 2.64 0 0 1 .856.145 2.13 2.13 0 0 1 .769.469c.231.215.415.499.552.853s.206.789.206 1.307v.361h-4.276v-.737h3.409c0-.313-.062-.592-.187-.837s-.299-.44-.528-.582-.493-.213-.801-.213c-.34 0-.634.084-.882.253s-.434.383-.567.65-.198.554-.198.859v.492c0 .419.072.774.216 1.065s.351.509.611.661a1.79 1.79 0 0 0 .906.224c.224 0 .426-.031.607-.094a1.29 1.29 0 0 0 .473-.289 1.3 1.3 0 0 0 .307-.484l.824.231a1.84 1.84 0 0 1-.437.737 2.14 2.14 0 0 1-.759.491c-.301.116-.639.173-1.015.173zm5.847 0c-.52 0-.968-.122-1.343-.368a2.4 2.4 0 0 1-.867-1.015c-.202-.431-.303-.923-.303-1.477 0-.563.103-1.06.31-1.491s.501-.772.874-1.015.814-.369 1.315-.369c.39 0 .741.073 1.054.217a2.03 2.03 0 0 1 .77.607c.199.26.323.563.372.91h-.853a1.32 1.32 0 0 0-.433-.672c-.222-.197-.52-.296-.896-.296-.332 0-.623.087-.874.26s-.442.413-.581.726-.206.675-.206 1.094c0 .429.067.802.202 1.12s.33.564.578.74.544.264.881.264a1.52 1.52 0 0 0 .603-.116c.181-.077.334-.188.459-.332s.214-.318.267-.52h.853c-.049.327-.168.622-.358.885s-.437.467-.748.621-.666.227-1.076.227zm4.222-2.138l-.014-1.054h.173l2.427-2.47h1.054l-2.585 2.614h-.073l-.982.91zm-.794 2.023v-7.396h.852v7.396h-.852zm3.524 0l-2.167-2.745.607-.592 2.644 3.337h-1.084zm5.937-4.305l-.766.217c-.048-.128-.119-.252-.213-.372s-.217-.224-.376-.304-.362-.119-.61-.119c-.339 0-.622.078-.849.235s-.335.35-.335.589c0 .211.077.379.231.502s.395.225.722.307l.823.202c.496.12.866.304 1.109.552s.365.563.365.95c0 .318-.092.602-.275.852s-.433.448-.758.593-.703.216-1.134.216c-.566 0-1.034-.122-1.405-.368s-.605-.604-.704-1.076l.809-.202c.077.298.223.522.437.671s.499.224.849.224c.397 0 .712-.084.946-.253s.354-.375.354-.614c0-.192-.068-.353-.203-.483s-.341-.232-.621-.297l-.924-.216c-.508-.121-.881-.307-1.12-.56s-.354-.574-.354-.957c0-.313.088-.59.264-.831s.42-.43.726-.567a2.55 2.55 0 0 1 1.047-.206c.549 0 .98.121 1.293.362s.539.558.672.953z" class="P"/><rect x="76.492" y="6.475" width="276.588" height="156.836" rx="2.453" stroke="#d9d9d9" stroke-width=".906"/></g><g filter="url(#F)"><mask id="A" class="C"><rect x="16.04" y="96.111" width="306.356" height="174.149" rx="3.208"/></mask><rect x="16.04" y="96.111" width="306.356" height="174.149" rx="3.208" fill="#f8f4f3"/><g filter="url(#G)"><rect x="35.287" y="115.358" width="19.248" height="19.248" rx="2.406" class="M N"/><path d="M50.725 120.972c0 .886-2.714 1.805-5.814 1.805s-5.814-.919-5.814-1.805 2.714-1.804 5.814-1.804 5.814.918 5.814 1.804z" class="B D K R"/><path d="M50.725 124.982c0 .886-2.714 1.804-5.814 1.804s-5.814-.918-5.814-1.804" class="B D E R"/><path d="M50.725 120.972v8.02c0 .886-2.714 1.804-5.814 1.804s-5.814-.918-5.814-1.804v-8.02" class="B D E R"/></g><path d="M64.214 118.693v11.665h-2.113v-11.665h2.113zm4.259 6.539v5.126h-2.062v-8.749h1.971v1.487h.103a2.5 2.5 0 0 1 .963-1.168c.444-.288.993-.433 1.646-.433.604 0 1.13.129 1.578.388s.801.632 1.048 1.122.374 1.084.37 1.783v5.57h-2.062v-5.251c0-.585-.152-1.043-.456-1.373s-.716-.496-1.247-.496a1.91 1.91 0 0 0-.963.24c-.277.155-.496.381-.655.677s-.234.655-.234 1.077zm12.144-3.623v1.595h-5.172v-1.595h5.172zm-3.879 8.749v-9.575c0-.588.121-1.078.365-1.469s.577-.684.991-.877.873-.291 1.378-.291a4.75 4.75 0 0 1 .951.086l.615.153-.41 1.595c-.087-.026-.197-.053-.33-.079a1.96 1.96 0 0 0-.444-.046c-.383 0-.655.093-.814.279s-.234.444-.234.786v9.438h-2.068zm5.494 0v-8.749h1.999v1.458h.091c.159-.505.433-.894.82-1.167s.837-.416 1.338-.416l.382.017a2.63 2.63 0 0 1 .359.04v1.897c-.087-.031-.226-.057-.416-.08s-.367-.04-.541-.04a2.09 2.09 0 0 0-1.014.245c-.296.159-.53.382-.701.666a1.88 1.88 0 0 0-.256.986v5.143h-2.062zm8.72.177c-.554 0-1.054-.099-1.498-.296a2.45 2.45 0 0 1-1.048-.889c-.254-.391-.382-.873-.382-1.447 0-.493.091-.902.273-1.224a2.12 2.12 0 0 1 .746-.775 3.76 3.76 0 0 1 1.065-.439 8.8 8.8 0 0 1 1.236-.222l1.247-.142c.319-.046.551-.114.695-.205s.222-.241.222-.439v-.034c0-.429-.127-.761-.382-.997s-.621-.353-1.099-.353c-.505 0-.906.11-1.202.33s-.49.481-.592.781l-1.925-.274c.152-.531.402-.975.752-1.332s.777-.631 1.282-.809c.505-.183 1.063-.274 1.675-.274.421 0 .841.05 1.259.148s.799.262 1.145.49.623.53.832.917.319.872.319 1.453v5.855h-1.982v-1.202h-.068c-.125.243-.302.471-.53.684s-.507.378-.849.507-.735.188-1.19.188zm.535-1.515c.414 0 .773-.082 1.076-.245s.537-.388.701-.661.251-.572.251-.894v-1.031c-.064.053-.175.102-.33.148s-.323.085-.513.119l-.564.092-.484.068c-.308.042-.583.11-.826.205s-.435.228-.575.399-.211.383-.211.649c0 .38.139.666.416.86s.63.291 1.059.291zm13.073-5.098l-1.88.205c-.053-.19-.146-.368-.279-.536s-.304-.301-.524-.404-.49-.154-.809-.154c-.429 0-.79.093-1.082.279s-.431.428-.427.724c-.004.254.089.461.279.621s.512.29.957.393l1.492.319c.828.178 1.443.461 1.845.848s.612.895.616 1.521c-.004.551-.166 1.037-.485 1.458s-.753.744-1.315.98-1.208.353-1.937.353c-1.071 0-1.933-.224-2.586-.672a2.7 2.7 0 0 1-1.168-1.885l2.011-.194c.091.395.285.693.581.894s.682.302 1.156.302c.49 0 .883-.101 1.179-.302s.45-.45.45-.746c0-.251-.097-.458-.29-.621s-.486-.288-.889-.376l-1.492-.313c-.839-.175-1.46-.469-1.863-.883s-.602-.945-.598-1.583c-.004-.54.142-1.007.439-1.402s.716-.706 1.247-.922 1.153-.331 1.851-.331c1.026 0 1.833.219 2.421.655.593.437.959 1.028 1.1 1.772zm6.256-2.313v1.595h-5.029v-1.595h5.029zm-3.787-2.096h2.062v8.214c0 .277.041.49.125.638s.201.243.342.296a1.31 1.31 0 0 0 .467.08 2.01 2.01 0 0 0 .353-.029l.25-.051.348 1.612c-.11.038-.268.079-.473.125s-.448.072-.74.08c-.517.015-.982-.063-1.396-.234a2.16 2.16 0 0 1-.985-.809c-.239-.364-.357-.82-.353-1.367v-8.555zm5.512 10.845v-8.749h1.999v1.458h.091c.16-.505.433-.894.82-1.167.392-.277.838-.416 1.339-.416l.382.017a2.6 2.6 0 0 1 .358.04v1.897c-.087-.031-.225-.057-.415-.08a3.77 3.77 0 0 0-.541-.04 2.09 2.09 0 0 0-1.014.245c-.296.159-.53.382-.701.666a1.88 1.88 0 0 0-.256.986v5.143h-2.062zm11.936-3.679v-5.07h2.062v8.749h-2v-1.555h-.091c-.197.49-.522.891-.974 1.202s-1 .467-1.657.467c-.574 0-1.081-.127-1.521-.382s-.779-.632-1.025-1.122-.371-1.089-.371-1.788v-5.571h2.062v5.252c0 .554.152.995.456 1.321s.702.49 1.196.49c.304 0 .598-.074.883-.222s.518-.368.701-.661.279-.666.279-1.11zm7.998 3.85c-.873 0-1.623-.192-2.25-.575a3.84 3.84 0 0 1-1.441-1.589c-.334-.68-.501-1.462-.501-2.347s.171-1.673.513-2.353a3.82 3.82 0 0 1 1.446-1.594c.627-.384 1.367-.576 2.222-.576.71 0 1.338.131 1.885.393s.989.625 1.316 1.1.512 1.021.558 1.651h-1.971c-.08-.421-.269-.772-.569-1.053s-.693-.427-1.191-.427c-.421 0-.792.113-1.111.341s-.567.547-.746.969c-.174.421-.262.926-.262 1.515 0 .596.088 1.109.262 1.538s.42.753.735.985.693.342 1.122.342c.304 0 .575-.057.815-.171a1.64 1.64 0 0 0 .609-.507c.163-.22.275-.488.336-.803h1.971c-.049.619-.232 1.167-.547 1.646s-.744.847-1.287 1.116-1.181.399-1.914.399zm9.81-8.92v1.595h-5.03v-1.595h5.03zm-3.788-2.096h2.062v8.214c0 .277.042.49.125.638a.68.68 0 0 0 .342.296 1.31 1.31 0 0 0 .467.08 2.01 2.01 0 0 0 .353-.029l.251-.051.347 1.612c-.11.038-.267.079-.472.125s-.449.072-.741.08c-.516.015-.982-.063-1.395-.234s-.743-.444-.986-.809-.357-.82-.353-1.367v-8.555zm11.088 7.166v-5.07h2.062v8.749h-1.999v-1.555h-.091c-.197.49-.522.891-.974 1.202s-1.001.467-1.657.467c-.574 0-1.081-.127-1.521-.382a2.65 2.65 0 0 1-1.026-1.122c-.246-.493-.37-1.089-.37-1.788v-5.571h2.062v5.252c0 .554.152.995.456 1.321s.702.49 1.196.49c.304 0 .598-.074.883-.222s.518-.368.7-.661.279-.666.279-1.11zm4.183 3.679v-8.749h1.999v1.458h.091c.16-.505.433-.894.82-1.167a2.26 2.26 0 0 1 1.339-.416l.381.017c.145.008.264.021.359.04v1.897c-.087-.031-.226-.057-.416-.08a3.76 3.76 0 0 0-.541-.04c-.376 0-.714.082-1.013.245a1.79 1.79 0 0 0-.701.666 1.88 1.88 0 0 0-.256.986v5.143h-2.062zm9.872.171c-.877 0-1.635-.182-2.273-.547s-1.122-.888-1.463-1.56-.513-1.472-.513-2.387c0-.9.171-1.69.513-2.37s.827-1.215 1.446-1.594 1.346-.576 2.182-.576a4.43 4.43 0 0 1 1.526.262 3.44 3.44 0 0 1 1.276.798c.372.361.665.82.877 1.378s.319 1.215.319 1.982v.633h-7.171v-1.39h5.195c-.004-.395-.089-.746-.256-1.054a1.87 1.87 0 0 0-.701-.735c-.296-.178-.642-.267-1.037-.267-.421 0-.791.102-1.11.307a2.12 2.12 0 0 0-.747.798 2.3 2.3 0 0 0-.267 1.076v1.213c0 .509.093.946.279 1.31s.446.638.78.832.725.285 1.174.285a2.48 2.48 0 0 0 .814-.126c.243-.087.454-.214.632-.381a1.58 1.58 0 0 0 .405-.621l1.925.216a3 3 0 0 1-.695 1.333c-.338.376-.771.669-1.299.877s-1.131.308-1.811.308zm16.528-6.607l-1.88.205c-.053-.19-.146-.368-.279-.536s-.303-.301-.524-.404-.49-.154-.808-.154c-.43 0-.79.093-1.083.279-.288.186-.431.428-.427.724-.004.254.089.461.279.621s.513.29.957.393l1.492.319c.828.178 1.443.461 1.846.848s.611.895.615 1.521c-.004.551-.165 1.037-.484 1.458s-.754.744-1.316.98-1.207.353-1.936.353c-1.071 0-1.933-.224-2.586-.672a2.7 2.7 0 0 1-1.168-1.885l2.011-.194c.091.395.284.693.581.894s.681.302 1.156.302c.49 0 .883-.101 1.179-.302s.45-.45.45-.746c0-.251-.097-.458-.291-.621s-.486-.288-.888-.376l-1.492-.313c-.84-.175-1.461-.469-1.863-.883s-.602-.945-.598-1.583c-.004-.54.142-1.007.438-1.402s.716-.706 1.248-.922 1.152-.331 1.851-.331c1.025 0 1.832.219 2.421.655s.959 1.028 1.099 1.772zm5.761 6.607c-.877 0-1.634-.182-2.272-.547s-1.122-.888-1.464-1.56-.513-1.472-.513-2.387c0-.9.171-1.69.513-2.37s.828-1.215 1.447-1.594 1.346-.576 2.181-.576c.539 0 1.048.088 1.527.262s.907.437 1.276.798.664.82.877 1.378.319 1.215.319 1.982v.633h-7.171v-1.39h5.194c-.003-.395-.089-.746-.256-1.054a1.87 1.87 0 0 0-.701-.735 1.97 1.97 0 0 0-1.036-.267c-.422 0-.792.102-1.111.307a2.11 2.11 0 0 0-.746.798 2.29 2.29 0 0 0-.268 1.076v1.213c0 .509.093.946.279 1.31s.446.638.781.832.725.285 1.173.285a2.48 2.48 0 0 0 .814-.126 1.8 1.8 0 0 0 .633-.381 1.59 1.59 0 0 0 .404-.621l1.925.216a2.99 2.99 0 0 1-.695 1.333c-.338.376-.77.669-1.298.877s-1.132.308-1.812.308zm9.451 0c-.873 0-1.623-.192-2.249-.575s-1.104-.913-1.442-1.589-.501-1.462-.501-2.347.171-1.673.513-2.353.824-1.215 1.447-1.594 1.367-.576 2.221-.576c.71 0 1.339.131 1.885.393a3.22 3.22 0 0 1 1.316 1.1 3.24 3.24 0 0 1 .558 1.651h-1.971c-.079-.421-.269-.772-.569-1.053s-.693-.427-1.191-.427c-.421 0-.791.113-1.11.341s-.568.547-.746.969-.262.926-.262 1.515c0 .596.087 1.109.262 1.538s.419.753.734.985.693.342 1.122.342c.304 0 .576-.057.815-.171a1.64 1.64 0 0 0 .609-.507c.164-.22.276-.488.336-.803h1.971c-.049.619-.231 1.167-.547 1.646s-.744.847-1.287 1.116-1.181.399-1.914.399zm11.018-3.85v-5.07h2.062v8.749h-2v-1.555h-.091c-.197.49-.522.891-.974 1.202s-1 .467-1.657.467c-.574 0-1.081-.127-1.521-.382s-.779-.632-1.025-1.122-.371-1.089-.371-1.788v-5.571h2.062v5.252c0 .554.152.995.456 1.321s.702.49 1.196.49c.304 0 .598-.074.883-.222s.518-.368.701-.661.279-.666.279-1.11zm4.182 3.679v-8.749h1.999v1.458h.091c.16-.505.433-.894.82-1.167s.838-.416 1.339-.416l.382.017a2.6 2.6 0 0 1 .358.04v1.897c-.087-.031-.225-.057-.415-.08a3.77 3.77 0 0 0-.541-.04 2.09 2.09 0 0 0-1.014.245 1.79 1.79 0 0 0-.701.666 1.88 1.88 0 0 0-.256.986v5.143h-2.062zm6.359 0v-8.749h2.062v8.749h-2.062zm1.037-9.99c-.327 0-.608-.109-.843-.325s-.353-.484-.353-.792.118-.575.353-.792a1.19 1.19 0 0 1 .843-.33 1.18 1.18 0 0 1 .843.33c.235.217.353.481.353.792s-.118.572-.353.792-.513.325-.843.325zm7.514 1.241v1.595h-5.029v-1.595h5.029zm-3.788-2.096h2.062v8.214c0 .277.042.49.126.638s.201.243.341.296a1.32 1.32 0 0 0 .468.08c.129 0 .246-.01.353-.029l.25-.051.348 1.612c-.11.038-.268.079-.473.125s-.448.072-.741.08c-.516.015-.981-.063-1.395-.234a2.16 2.16 0 0 1-.985-.809c-.24-.364-.357-.82-.354-1.367v-8.555zm6.794 14.126a4.22 4.22 0 0 1-.78-.068c-.236-.042-.423-.092-.564-.148l.478-1.607a2.76 2.76 0 0 0 .804.126.98.98 0 0 0 .62-.223c.183-.14.336-.375.462-.706l.176-.473-3.172-8.931h2.187l2.016 6.608h.091l2.022-6.608h2.193l-3.503 9.809a3.91 3.91 0 0 1-.649 1.19 2.63 2.63 0 0 1-.991.763c-.387.179-.851.268-1.39.268z" fill="#333"/><path d="M294.327 120.546l4.812 4.812-4.812 4.812" stroke-width="1.604" class="B E O"/><g clip-path="url(#L)"><g clip-path="url(#M)"><path d="M41.703 167.438a6.42 6.42 0 0 0 6.416-6.416c0-3.544-2.873-6.416-6.416-6.416s-6.416 2.872-6.416 6.416a6.42 6.42 0 0 0 6.416 6.416zm2.86-7.626a.6.6 0 1 0-.909-.788l-2.978 3.436-.892-1.235a.6.6 0 1 0-.975.704l.892 1.235c.454.629 1.376.67 1.884.084l2.978-3.436z" class="F G"/><rect x="56.139" y="158.032" width="247.01" height="5.98" rx="2.99" class="H"/><path d="M41.703 193.101c3.543 0 6.416-2.872 6.416-6.416a6.42 6.42 0 0 0-6.416-6.416 6.42 6.42 0 0 0-6.416 6.416c0 3.544 2.872 6.416 6.416 6.416zm2.86-7.626a.6.6 0 1 0-.909-.788l-2.978 3.436-.892-1.235a.6.6 0 0 0-.975.705l.892 1.235c.454.628 1.376.669 1.884.083l2.978-3.436z" class="F G"/><rect x="56.139" y="183.695" width="247.01" height="5.98" rx="2.99" class="H"/><path d="M41.703 218.764c3.543 0 6.416-2.872 6.416-6.416s-2.873-6.415-6.416-6.415-6.416 2.872-6.416 6.415 2.872 6.416 6.416 6.416zm2.86-7.625a.6.6 0 1 0-.909-.788l-2.978 3.436-.892-1.235a.6.6 0 1 0-.975.704l.892 1.235c.454.629 1.376.67 1.884.083l2.978-3.435z" class="F G"/><rect x="56.139" y="209.358" width="247.01" height="5.98" rx="2.99" class="H"/></g></g><path d="M36.611 239.846l2.424 6.874h.096l2.424-6.874h1.037l-2.998 8.166h-1.021l-2.998-8.166h1.037zm7.125 8.166v-6.124h.941v6.124h-.941zm.479-7.145a.67.67 0 0 1-.474-.187c-.13-.125-.195-.276-.195-.451s.065-.326.195-.451a.67.67 0 0 1 .474-.187.66.66 0 0 1 .47.187c.133.125.199.276.199.451s-.066.326-.199.451a.66.66 0 0 1-.47.187zm4.754 7.272c-.59 0-1.099-.13-1.527-.39a2.62 2.62 0 0 1-.985-1.101c-.229-.473-.343-1.023-.343-1.65s.114-1.181.343-1.659.553-.856.965-1.124.898-.407 1.451-.407a2.91 2.91 0 0 1 .945.159 2.34 2.34 0 0 1 .849.519c.255.236.458.55.61.941s.227.872.227 1.443v.399h-4.721v-.814h3.764a2.01 2.01 0 0 0-.207-.925c-.136-.271-.33-.485-.582-.642s-.545-.235-.885-.235c-.375 0-.699.093-.973.279a1.84 1.84 0 0 0-.626.718c-.146.295-.219.611-.219.949v.542c0 .463.08.855.239 1.176a1.73 1.73 0 0 0 .674.73c.287.165.621.247 1.001.247.247 0 .471-.034.67-.104s.376-.178.522-.318.259-.322.339-.535l.909.255c-.096.309-.257.58-.482.814s-.505.412-.837.542-.706.191-1.12.191zm5.355-.127l-1.866-6.124h.989l1.324 4.688h.064l1.308-4.688h1.005l1.292 4.673h.064l1.324-4.673h.989l-1.866 6.124h-.925l-1.34-4.705h-.096l-1.34 4.705h-.925zm12.695.143a2.49 2.49 0 0 1-1.057-.219c-.316-.149-.567-.363-.754-.642s-.279-.622-.279-1.021c0-.35.069-.635.207-.853s.323-.393.554-.518.486-.218.766-.279l.849-.152.905-.107c.234-.027.404-.071.51-.132s.163-.167.163-.319v-.032c0-.393-.108-.699-.323-.917s-.536-.327-.969-.327c-.449 0-.801.099-1.057.295s-.434.407-.538.63l-.893-.319c.159-.372.372-.662.638-.869a2.4 2.4 0 0 1 .877-.439c.319-.085.633-.127.941-.127.197 0 .423.024.678.072s.506.139.746.283.443.36.602.65.239.677.239 1.164v4.035h-.941v-.829h-.048a1.66 1.66 0 0 1-.319.426c-.149.152-.347.281-.594.387s-.549.159-.905.159zm.144-.845c.372 0 .686-.073.941-.219s.452-.335.582-.566.199-.475.199-.73v-.861c-.04.048-.128.091-.263.131s-.287.071-.463.1l-.506.072-.395.048c-.245.032-.473.083-.686.155a1.18 1.18 0 0 0-.51.315c-.128.138-.191.327-.191.566 0 .327.121.574.363.742s.554.247.929.247zm5.322-7.464v8.166h-.941v-8.166h.941zm2.664 0v8.166h-.941v-8.166h.941zm4.865 8.166v-.718l2.695-2.95.782-.901c.205-.258.356-.5.454-.726a1.76 1.76 0 0 0 .151-.718c0-.287-.069-.535-.207-.745a1.35 1.35 0 0 0-.558-.487c-.237-.114-.502-.171-.797-.171-.314 0-.588.065-.821.195a1.35 1.35 0 0 0-.538.538 1.69 1.69 0 0 0-.187.814h-.941c0-.479.11-.899.331-1.26s.521-.643.901-.845.812-.303 1.288-.303.902.101 1.272.303.659.474.869.817.315.724.315 1.144a2.46 2.46 0 0 1-.163.881c-.106.285-.292.602-.558.953s-.629.774-1.097 1.276l-1.834 1.962v.064h3.796v.877h-5.151zm9.509.111c-.335-.005-.67-.069-1.005-.191a2.4 2.4 0 0 1-.917-.618c-.276-.292-.498-.687-.666-1.184s-.251-1.127-.251-1.882c0-.723.068-1.364.203-1.922s.332-1.032.59-1.415a2.65 2.65 0 0 1 .933-.877c.367-.2.78-.299 1.24-.299s.864.091 1.22.275a2.32 2.32 0 0 1 .877.757c.226.325.372.698.439 1.121h-.973a1.8 1.8 0 0 0-.526-.913c-.26-.242-.606-.363-1.037-.363-.633 0-1.131.275-1.495.825s-.544 1.322-.546 2.317h.064c.149-.226.326-.419.53-.579s.436-.287.686-.374a2.37 2.37 0 0 1 .793-.132 2.44 2.44 0 0 1 1.284.351c.388.231.699.552.933.961s.351.873.351 1.399c0 .505-.113.968-.339 1.388a2.59 2.59 0 0 1-.953.997c-.407.244-.885.364-1.435.358zm0-.877a1.65 1.65 0 0 0 .901-.251 1.79 1.79 0 0 0 .634-.674 1.9 1.9 0 0 0 .235-.941c0-.337-.076-.644-.227-.921s-.355-.501-.618-.666a1.64 1.64 0 0 0-.893-.247 1.66 1.66 0 0 0-.706.152c-.218.098-.409.234-.574.406s-.29.371-.383.595-.139.453-.139.697c0 .325.076.628.227.909a1.87 1.87 0 0 0 .63.682c.269.173.573.259.913.259zm9.957.893c-.574 0-1.069-.135-1.483-.406a2.65 2.65 0 0 1-.957-1.121c-.223-.475-.335-1.019-.335-1.63 0-.622.114-1.171.343-1.647s.553-.852.965-1.12.898-.407 1.451-.407c.431 0 .818.08 1.164.239s.629.383.849.67.358.622.411 1.005h-.941a1.46 1.46 0 0 0-.478-.742c-.245-.218-.575-.327-.989-.327-.367 0-.688.096-.965.287a1.87 1.87 0 0 0-.642.802c-.151.343-.227.745-.227 1.208 0 .473.075.885.223 1.236a1.89 1.89 0 0 0 .638.817 1.65 1.65 0 0 0 .973.291c.245 0 .466-.042.666-.127a1.38 1.38 0 0 0 .506-.367 1.42 1.42 0 0 0 .295-.574h.941c-.053.361-.185.687-.395.976s-.482.516-.825.686-.736.251-1.188.251zm4.724-3.811v3.684h-.941v-8.166h.941v2.999h.08a1.73 1.73 0 0 1 .646-.754c.29-.189.675-.283 1.156-.283a2.3 2.3 0 0 1 1.097.251 1.69 1.69 0 0 1 .729.762c.176.34.264.773.264 1.299v3.892h-.941v-3.828c0-.486-.127-.862-.379-1.128s-.597-.403-1.041-.403c-.308 0-.585.065-.829.196s-.433.32-.574.57-.208.553-.208.909zm8.261 3.811c-.59 0-1.099-.13-1.527-.39s-.754-.63-.985-1.101-.343-1.023-.343-1.65.114-1.181.343-1.659a2.7 2.7 0 0 1 .965-1.124c.414-.272.898-.407 1.451-.407a2.91 2.91 0 0 1 .945.159 2.34 2.34 0 0 1 .849.519c.255.236.459.55.61.941s.228.872.228 1.443v.399h-4.721v-.814h3.764a2 2 0 0 0-.208-.925c-.135-.271-.329-.485-.582-.642s-.545-.235-.885-.235c-.375 0-.699.093-.973.279a1.84 1.84 0 0 0-.626.718 2.11 2.11 0 0 0-.219.949v.542c0 .463.08.855.239 1.176a1.73 1.73 0 0 0 .674.73c.287.165.621.247 1.001.247.247 0 .47-.034.67-.104a1.43 1.43 0 0 0 .522-.318 1.46 1.46 0 0 0 .339-.535l.909.255a2.02 2.02 0 0 1-.483.814c-.226.231-.505.412-.837.542s-.706.191-1.12.191zm6.455 0c-.574 0-1.069-.135-1.483-.406s-.734-.645-.957-1.121-.335-1.019-.335-1.63c0-.622.114-1.171.343-1.647a2.7 2.7 0 0 1 .965-1.12c.414-.272.898-.407 1.451-.407a2.75 2.75 0 0 1 1.164.239c.346.16.629.383.849.67s.358.622.411 1.005h-.941a1.46 1.46 0 0 0-.478-.742c-.245-.218-.574-.327-.989-.327-.367 0-.689.096-.965.287s-.488.456-.642.802-.227.745-.227 1.208c0 .473.074.885.223 1.236s.364.623.638.817a1.65 1.65 0 0 0 .973.291c.244 0 .466-.042.666-.127a1.38 1.38 0 0 0 .506-.367c.138-.16.237-.351.295-.574h.941c-.053.361-.185.687-.395.976s-.482.516-.825.686-.736.251-1.188.251zm4.661-2.36l-.016-1.164h.191l2.68-2.727h1.164l-2.855 2.886h-.08l-1.084 1.005zm-.877 2.233v-8.166h.941v8.166h-.941zm3.891 0l-2.392-3.03.67-.654 2.918 3.684h-1.196zm6.554-4.753l-.845.239a1.6 1.6 0 0 0-.236-.41 1.14 1.14 0 0 0-.414-.335c-.176-.088-.4-.132-.674-.132-.375 0-.687.087-.937.259s-.371.387-.371.65c0 .234.085.419.255.555s.436.248.798.338l.909.224c.547.133.955.336 1.224.61s.403.62.403 1.048c0 .351-.101.665-.303.941s-.479.495-.838.654-.776.239-1.252.239c-.624 0-1.141-.135-1.551-.406s-.668-.667-.777-1.188l.893-.224c.085.33.246.577.482.742s.552.247.937.247c.439 0 .787-.093 1.045-.279s.391-.415.391-.678a.71.71 0 0 0-.224-.534c-.148-.146-.377-.255-.685-.327l-1.021-.239c-.561-.133-.973-.339-1.236-.618s-.391-.634-.391-1.057c0-.345.097-.651.291-.917s.464-.474.802-.626.725-.227 1.156-.227c.606 0 1.082.133 1.427.399s.596.616.742 1.052z" class="P"/><rect x="16.04" y="96.111" width="306.356" height="174.149" rx="3.208" stroke="#240642" stroke-width="7" mask="url(#A)"/></g><rect x="216.887" y="82.745" width="159.691" height="25.274" rx="12.637" fill="#09c639"/><g class="C"><circle cx="229.496" cy="95.383" r="3.736"/><path d="M248.097 90.372h1.152v6.297c0 .65-.153 1.231-.46 1.741s-.732.909-1.286 1.203-1.204.436-1.95.436-1.397-.145-1.951-.436-.984-.695-1.291-1.203-.455-1.091-.455-1.741v-6.297h1.152v6.204c0 .464.102.878.306 1.24s.496.642.873.85.836.306 1.366.306.984-.102 1.365-.306.672-.491.873-.85.306-.775.306-1.24v-6.204zm3.434 12.185V92.75h1.059v1.133h.13l.334-.474c.145-.195.353-.368.622-.52s.641-.232 1.105-.232c.601 0 1.13.15 1.588.451s.816.726 1.073 1.277.385 1.201.385 1.95c0 .755-.128 1.41-.385 1.964s-.613.978-1.068 1.282-.98.451-1.574.451c-.458 0-.825-.076-1.101-.228a2.05 2.05 0 0 1-.636-.525l-.343-.492h-.093v3.771h-1.096zm1.077-6.241c0 .539.079 1.014.237 1.425s.388.729.692.961.675.344 1.114.344c.458 0 .841-.121 1.147-.362s.542-.573.697-.984a3.86 3.86 0 0 0 .237-1.384c0-.502-.078-.954-.233-1.356s-.382-.726-.691-.961-.692-.358-1.157-.358c-.446 0-.82.113-1.123.339s-.533.536-.688.938-.232.865-.232 1.398zm9.715 3.715c-.594 0-1.119-.15-1.574-.451s-.811-.731-1.068-1.282-.385-1.209-.385-1.964c0-.749.128-1.399.385-1.95s.614-.977 1.073-1.277.987-.451 1.588-.451c.464 0 .831.077 1.1.232s.48.325.623.52l.338.474h.093v-3.511h1.096v9.51h-1.058v-1.096h-.131a7.02 7.02 0 0 1-.343.492 2.05 2.05 0 0 1-.636.525c-.276.152-.643.228-1.101.228zm.149-.985c.439 0 .811-.115 1.114-.344s.534-.553.692-.961.237-.887.237-1.425c0-.532-.077-.998-.232-1.398s-.384-.715-.687-.938-.678-.339-1.124-.339c-.465 0-.852.119-1.161.358s-.537.556-.692.961-.228.855-.228 1.356c0 .508.078.969.233 1.384s.39.74.696.984.694.362 1.152.362zm7.509 1.003c-.452 0-.862-.085-1.23-.255a2.11 2.11 0 0 1-.878-.748c-.217-.328-.325-.724-.325-1.189 0-.409.08-.74.241-.994a1.71 1.71 0 0 1 .646-.604c.269-.145.566-.254.891-.325l.99-.177 1.054-.125c.272-.031.47-.082.594-.153s.19-.195.19-.371v-.037c0-.458-.125-.814-.376-1.068s-.624-.381-1.128-.381c-.523 0-.934.115-1.231.344s-.506.474-.627.734l-1.04-.372c.186-.433.434-.771.743-1.012s.653-.415 1.022-.511.737-.149 1.096-.149a4.34 4.34 0 0 1 .789.084 2.52 2.52 0 0 1 .868.33 1.94 1.94 0 0 1 .702.757c.185.337.278.789.278 1.356v4.699h-1.096v-.966h-.055c-.075.155-.198.32-.372.497s-.404.327-.692.45-.639.185-1.054.185zm.167-.984c.434 0 .799-.085 1.096-.255s.526-.39.678-.659a1.68 1.68 0 0 0 .232-.85v-1.003c-.046.056-.148.107-.306.153a5.12 5.12 0 0 1-.539.116l-.59.084-.459.056c-.285.037-.551.097-.799.181s-.443.203-.594.367-.223.381-.223.659c0 .381.141.669.422.864s.646.288 1.082.288zm8.335-6.315v.929h-3.696v-.929h3.696zm-2.619-1.709h1.096v6.798c0 .309.045.542.135.697s.21.254.353.306a1.41 1.41 0 0 0 .459.074c.121 0 .22-.006.298-.019l.185-.037.223.985c-.074.028-.178.056-.311.084s-.302.046-.506.046c-.31 0-.613-.067-.91-.2a1.81 1.81 0 0 1-.734-.608c-.192-.272-.288-.616-.288-1.031v-7.095zm7.312 8.99c-.687 0-1.28-.152-1.778-.455s-.878-.734-1.147-1.282-.4-1.192-.4-1.922.134-1.374.4-1.932.644-.997 1.123-1.309 1.047-.474 1.691-.474c.371 0 .738.062 1.1.186s.692.325.989.604.534.641.711 1.096.265 1.015.265 1.681v.464h-5.498v-.947h4.383c0-.403-.08-.762-.241-1.077a1.82 1.82 0 0 0-.678-.748 1.9 1.9 0 0 0-1.031-.274c-.437 0-.814.108-1.133.325s-.559.492-.729.836-.256.712-.256 1.105v.632c0 .539.093.995.279 1.37s.45.655.785.85.723.288 1.165.288a2.37 2.37 0 0 0 .78-.121c.236-.084.438-.207.609-.371a1.69 1.69 0 0 0 .394-.622l1.059.297c-.111.359-.299.675-.562.947s-.588.48-.975.632-.822.223-1.305.223zm7.445 0c-.595 0-1.12-.15-1.575-.451s-.811-.731-1.068-1.282-.385-1.209-.385-1.964c0-.749.128-1.399.385-1.95s.615-.977 1.073-1.277.988-.451 1.588-.451c.465 0 .831.077 1.101.232s.48.325.622.52l.339.474h.093v-3.511h1.096v9.51h-1.059v-1.096h-.13c-.081.13-.195.294-.344.492s-.36.37-.636.525-.642.228-1.1.228zm.148-.985c.44 0 .811-.115 1.115-.344s.534-.553.692-.961.236-.887.236-1.425c0-.532-.077-.998-.232-1.398s-.384-.715-.687-.938-.678-.339-1.124-.339c-.464 0-.851.119-1.161.358s-.537.556-.692.961-.227.855-.227 1.356c0 .508.077.969.232 1.384s.39.74.697.984.693.362 1.151.362zm12.172.966c-.544 0-1.035-.108-1.472-.325s-.786-.514-1.049-.892-.407-.808-.432-1.291h1.115c.043.43.238.786.585 1.068s.767.418 1.253.418a1.98 1.98 0 0 0 1.041-.274c.306-.183.546-.433.719-.752s.265-.686.265-1.091c0-.415-.091-.785-.274-1.11s-.427-.587-.743-.775-.676-.285-1.082-.288c-.291-.003-.59.042-.896.135s-.559.206-.757.348l-1.077-.13.576-4.681h4.94v1.022h-3.975l-.334 2.805h.056c.195-.155.439-.283.733-.385s.601-.153.92-.153c.582 0 1.1.139 1.556.418a2.92 2.92 0 0 1 1.077 1.133c.263.48.395 1.028.395 1.644 0 .607-.137 1.149-.409 1.625s-.641.848-1.115 1.124-1.012.408-1.616.408zm8.942-.13V92.75h1.059v1.115h.093a1.79 1.79 0 0 1 .719-.887c.332-.214.729-.32 1.194-.32.47 0 .862.107 1.175.32s.561.506.738.887h.074a2.08 2.08 0 0 1 .822-.878c.365-.22.803-.33 1.314-.33.638 0 1.16.2 1.565.599s.608 1.014.608 1.853v4.774h-1.095v-4.774c0-.526-.144-.902-.432-1.128a1.6 1.6 0 0 0-1.017-.339c-.502 0-.89.152-1.166.455s-.413.681-.413 1.142v4.644h-1.115v-4.885c0-.405-.131-.732-.394-.98s-.602-.376-1.017-.376c-.285 0-.551.076-.799.227s-.443.362-.594.632a1.86 1.86 0 0 0-.223.924v4.458h-1.096zm11.496 0V92.75h1.096v7.133h-1.096zm.557-8.321c-.213 0-.398-.073-.552-.218a.7.7 0 0 1-.228-.525.7.7 0 0 1 .228-.525c.154-.145.339-.218.552-.218s.396.073.548.218.232.32.232.525-.077.379-.232.525-.334.218-.548.218zm3.773 4.031v4.291h-1.096V92.75h1.058v1.115h.093c.167-.362.421-.653.762-.873s.78-.334 1.319-.334c.483 0 .905.099 1.267.297s.644.492.845.892.302.898.302 1.505v4.532h-1.096v-4.458c0-.56-.145-.997-.436-1.309s-.69-.474-1.198-.474a1.91 1.91 0 0 0-.938.227c-.273.152-.488.373-.646.664s-.236.644-.236 1.059zm11.736-1.245l-.985.279c-.062-.164-.153-.323-.274-.478s-.278-.288-.483-.39-.465-.153-.784-.153c-.437 0-.801.101-1.092.302s-.431.45-.431.757a.78.78 0 0 0 .297.645c.198.158.507.289.929.395l1.058.26c.638.155 1.113.392 1.426.71s.469.723.469 1.221c0 .409-.118.774-.353 1.096s-.557.576-.975.762-.904.279-1.458.279c-.728 0-1.33-.158-1.807-.474s-.778-.777-.905-1.384l1.04-.26c.099.384.286.672.562.864s.642.288 1.091.288c.511 0 .916-.108 1.217-.325s.455-.483.455-.789a.83.83 0 0 0-.26-.622c-.174-.17-.44-.297-.799-.381l-1.189-.279c-.653-.155-1.133-.395-1.439-.72s-.455-.738-.455-1.231c0-.403.113-.758.339-1.068s.54-.553.933-.729.845-.265 1.347-.265c.706 0 1.26.155 1.662.464a2.5 2.5 0 0 1 .864 1.226zm7.818 5.702c-.452 0-.863-.085-1.231-.255s-.661-.423-.878-.748-.325-.724-.325-1.189c0-.409.081-.74.242-.994s.376-.458.645-.604.567-.254.892-.325l.989-.177 1.054-.125c.272-.031.471-.082.594-.153s.191-.195.191-.371v-.037c0-.458-.126-.814-.376-1.068s-.624-.381-1.129-.381c-.523 0-.933.115-1.23.344s-.506.474-.627.734l-1.04-.372c.185-.433.433-.771.743-1.012a2.78 2.78 0 0 1 1.021-.511 4.25 4.25 0 0 1 1.096-.149c.229 0 .492.028.79.084a2.53 2.53 0 0 1 .868.33c.282.167.515.419.701.757s.279.789.279 1.356v4.699h-1.096v-.966h-.056c-.074.155-.198.32-.371.497s-.404.327-.692.45-.64.185-1.054.185zm.167-.984c.433 0 .798-.085 1.096-.255s.526-.39.678-.659a1.69 1.69 0 0 0 .232-.85v-1.003c-.047.056-.149.107-.307.153a5.1 5.1 0 0 1-.538.116l-.59.084-.46.056c-.285.037-.551.097-.799.181a1.38 1.38 0 0 0-.594.367c-.148.161-.223.381-.223.659 0 .381.141.669.423.864s.645.288 1.082.288zm8.112 3.641c-.53 0-.985-.068-1.366-.205a2.9 2.9 0 0 1-.952-.529c-.25-.217-.45-.449-.599-.697l.873-.613.377.446c.151.17.359.318.622.441s.614.191 1.045.191c.575 0 1.051-.14 1.425-.418s.562-.715.562-1.31v-1.448h-.093c-.08.13-.195.291-.343.483s-.356.358-.632.506-.641.218-1.105.218c-.576 0-1.093-.136-1.551-.409s-.816-.669-1.082-1.189-.395-1.152-.395-1.895c0-.731.129-1.367.386-1.908s.614-.966 1.072-1.263.988-.451 1.588-.451c.465 0 .833.077 1.106.232s.486.325.631.52l.344.474h.111V92.75h1.059v7.337c0 .613-.139 1.111-.418 1.495a2.38 2.38 0 0 1-1.114.85c-.465.182-.982.274-1.551.274zm-.038-3.92c.44 0 .812-.101 1.115-.302a1.88 1.88 0 0 0 .692-.868c.158-.378.237-.83.237-1.356 0-.514-.078-.967-.233-1.361a2.03 2.03 0 0 0-.687-.924c-.303-.223-.678-.334-1.124-.334-.464 0-.851.118-1.16.353s-.538.551-.692.947-.228.836-.228 1.319c0 .495.078.933.232 1.314a2.01 2.01 0 0 0 .697.891c.309.214.693.32 1.151.32zm8.155 1.245c-.644 0-1.209-.153-1.695-.46s-.86-.735-1.133-1.286-.404-1.195-.404-1.932c0-.743.135-1.392.404-1.946s.651-.984 1.133-1.291 1.051-.46 1.695-.46 1.208.153 1.691.46.863.737 1.133 1.291.408 1.203.408 1.946c0 .737-.136 1.381-.408 1.932s-.647.98-1.133 1.286-1.047.46-1.691.46zm0-.985c.489 0 .892-.125 1.208-.376s.549-.581.701-.989a3.78 3.78 0 0 0 .227-1.328c0-.477-.075-.921-.227-1.333s-.386-.745-.701-.998-.719-.381-1.208-.381-.891.127-1.207.381-.549.587-.701.998-.228.856-.228 1.333a3.78 3.78 0 0 0 .228 1.328c.152.409.385.738.701.989s.718.376 1.207.376z"/></g><rect x="216.887" y="82.745" width="159.691" height="25.274" rx="12.637" stroke="#e3e4e5" stroke-width=".934"/><defs><filter id="B" x="62.639" y="245.269" width="304.296" height="177.288" filterUnits="userSpaceOnUse" class="I"><feFlood result="A" class="J"/><feColorMatrix in="SourceAlpha" values="0 0 0 0 0 0 0 0 0 0 0 0 0 0 0 0 0 0 127 0" result="B"/><feOffset dy="7.65761"/><feGaussianBlur stdDeviation="6.7"/><feComposite in2="B" operator="out"/><feColorMatrix values="0 0 0 0 0 0 0 0 0 0 0 0 0 0 0 0 0 0 0.15 0"/><feBlend in2="A"/><feBlend in="SourceGraphic"/></filter><filter id="C" x="92.606" y="267.578" width="16.567" height="16.567" filterUnits="userSpaceOnUse" class="I"><feFlood class="J"/><feBlend in="SourceGraphic" result="B"/><feColorMatrix in="SourceAlpha" values="0 0 0 0 0 0 0 0 0 0 0 0 0 0 0 0 0 0 127 0" result="C"/><feOffset/><feGaussianBlur stdDeviation=".69"/><feComposite in2="C" operator="arithmetic" k2="-1" k3="1"/><feColorMatrix values="0 0 0 0 0 0 0 0 0 0 0 0 0 0 0 0 0 0 0.06 0"/><feBlend in2="B"/></filter><filter id="D" x="62.639" y=".279" width="304.296" height="184.543" filterUnits="userSpaceOnUse" class="I"><feFlood result="A" class="J"/><feColorMatrix in="SourceAlpha" values="0 0 0 0 0 0 0 0 0 0 0 0 0 0 0 0 0 0 127 0" result="B"/><feOffset dy="7.65761"/><feGaussianBlur stdDeviation="6.7"/><feComposite in2="B" operator="out"/><feColorMatrix values="0 0 0 0 0 0 0 0 0 0 0 0 0 0 0 0 0 0 0.15 0"/><feBlend in2="A"/><feBlend in="SourceGraphic"/></filter><filter id="E" x="93.474" y="23.456" width="17.434" height="17.434" filterUnits="userSpaceOnUse" class="I"><feFlood class="J"/><feBlend in="SourceGraphic" result="B"/><feColorMatrix in="SourceAlpha" values="0 0 0 0 0 0 0 0 0 0 0 0 0 0 0 0 0 0 127 0" result="C"/><feOffset/><feGaussianBlur stdDeviation=".726"/><feComposite in2="C" operator="arithmetic" k2="-1" k3="1"/><feColorMatrix values="0 0 0 0 0 0 0 0 0 0 0 0 0 0 0 0 0 0 0.06 0"/><feBlend in2="B"/></filter><filter id="F" x="12.832" y="93.705" width="312.772" height="180.564" filterUnits="userSpaceOnUse" class="I"><feFlood result="A" class="J"/><feColorMatrix in="SourceAlpha" values="0 0 0 0 0 0 0 0 0 0 0 0 0 0 0 0 0 0 127 0"/><feOffset dy="0.80198"/><feGaussianBlur stdDeviation="1.604"/><feColorMatrix values="0 0 0 0 0.2 0 0 0 0 0.2 0 0 0 0 0.2 0 0 0 0.08 0"/><feBlend in2="A"/><feBlend in="SourceGraphic"/></filter><filter id="G" x="35.287" y="115.358" width="19.248" height="19.248" filterUnits="userSpaceOnUse" class="I"><feFlood class="J"/><feBlend in="SourceGraphic" result="B"/><feColorMatrix in="SourceAlpha" values="0 0 0 0 0 0 0 0 0 0 0 0 0 0 0 0 0 0 127 0" result="C"/><feOffset/><feGaussianBlur stdDeviation=".802"/><feComposite in2="C" operator="arithmetic" k2="-1" k3="1"/><feColorMatrix values="0 0 0 0 0 0 0 0 0 0 0 0 0 0 0 0 0 0 0.06 0"/><feBlend in2="B"/></filter><clipPath id="H"><path transform="translate(92.606 301.143)" d="M0 0h244.361v55.223H0z" class="C"/></clipPath><clipPath id="I"><path transform="translate(92.606 301.143)" d="M0 0h244.361v55.223H0z" class="C"/></clipPath><clipPath id="J"><path transform="translate(93.474 58.892)" d="M0 0h242.626v58.114H0z" class="C"/></clipPath><clipPath id="K"><path transform="translate(93.474 58.892)" d="M0 0h242.626v58.114H0z" class="C"/></clipPath><clipPath id="L"><path transform="translate(35.287 154.606)" d="M0 0h267.861v64.158H0z" class="C"/></clipPath><clipPath id="M"><path transform="translate(35.287 154.606)" d="M0 0h267.861v64.158H0z" class="C"/></clipPath><path id="N" d="M99.285 70.515c3.21 0 5.812-2.602 5.812-5.811s-2.602-5.811-5.812-5.811-5.811 2.602-5.811 5.811 2.602 5.811 5.811 5.811zm2.591-6.907c.197-.227.173-.572-.055-.769s-.571-.172-.768.055l-2.697 3.112-.808-1.119c-.176-.244-.517-.299-.761-.123s-.299.517-.123.761l.808 1.119a1.09 1.09 0 0 0 1.707.076l2.697-3.112z"/></defs></svg>