<svg width="2893" height="890" viewBox="0 0 2893 890" fill="none" xmlns="http://www.w3.org/2000/svg">
<mask id="mask0_2139_1004" style="mask-type:luminance" maskUnits="userSpaceOnUse" x="0" y="0" width="2893" height="890">
<path d="M-0.000835699 0.000244141L0 890L2893 890L2893 -2.1676e-05L-0.000835699 0.000244141Z" fill="white"/>
</mask>
<g mask="url(#mask0_2139_1004)">
<path d="M4898.07 2034.23C4898.07 2034.23 5123.96 1312.31 4494.07 920.193C3864.18 528.072 3815.33 -31.0224 3815.33 -31.0224C3815.33 -31.0224 3473.96 -2.81522 3465.06 209.424C3465.06 209.424 3160.06 -122.295 2916.95 199.183C2916.95 199.183 2539.81 -237.61 2057.01 222.64C1574.2 682.889 1186.08 305.161 1186.08 305.161C1186.08 305.161 1091.05 487.612 1124.16 638.16C1124.16 638.16 -5.75299 175.241 27.7275 1128.71L-245.465 2598.06L4743.02 3525.54C4743.02 3525.54 5622.06 2413.28 4898.07 2034.23Z" fill="#240642"/>
</g>
</svg>
