<svg width="300" height="155" viewBox="0 0 300 155" fill="none" xmlns="http://www.w3.org/2000/svg">
<rect x="0.318742" y="0.640275" width="299.363" height="153.057" rx="6.0561" fill="white" stroke="#C9C9C9" stroke-width="0.637484"/>
<g filter="url(#filter0_i_1011_33040)">
<g clip-path="url(#clip0_1011_33040)">
<rect x="20.6893" y="16.5776" width="17.9315" height="17.9315" rx="2.24144" fill="#785AFA" fill-opacity="0.08"/>
<path d="M31.7095 24.2377C30.8842 24.2377 30.2152 23.5687 30.2152 22.7434V20.1284L34.3246 24.2377H31.7095Z" fill="#5230D7"/>
<path d="M34.3246 24.2377V29.4677C34.3246 30.293 33.6556 30.962 32.8303 30.962H26.4795C25.6542 30.962 24.9852 30.293 24.9852 29.4677V21.6227C24.9852 20.7974 25.6542 20.1284 26.4795 20.1284H30.1969M34.3246 24.2377H31.7095C30.8842 24.2377 30.2152 23.5687 30.2152 22.7434V20.1284L34.3246 24.2377Z" stroke="#5230D7" stroke-width="1.12072" stroke-linecap="round" stroke-linejoin="round"/>
</g>
</g>
<path d="M49.3526 30.5776H45.6699V19.7101H49.4269C50.5059 19.7101 51.4327 19.9276 52.2074 20.3628C52.9857 20.7943 53.5836 21.4152 54.001 22.2253C54.4185 23.0354 54.6272 24.0047 54.6272 25.1332C54.6272 26.2653 54.4167 27.2381 53.9957 28.0518C53.5783 28.8654 52.9751 29.4898 52.1862 29.9249C51.4009 30.3601 50.4563 30.5776 49.3526 30.5776ZM47.6386 28.8743H49.2571C50.0141 28.8743 50.6456 28.7363 51.1515 28.4604C51.6573 28.1809 52.0376 27.7652 52.2924 27.2134C52.5471 26.658 52.6744 25.9646 52.6744 25.1332C52.6744 24.3019 52.5471 23.6121 52.2924 23.0637C52.0376 22.5119 51.6609 22.0997 51.1621 21.8273C50.6668 21.5514 50.0513 21.4134 49.3154 21.4134H47.6386V28.8743ZM59.9681 30.7368C59.1721 30.7368 58.4823 30.5617 57.8986 30.2115C57.3149 29.8613 56.8621 29.3713 56.5401 28.7416C56.2218 28.1119 56.0626 27.3761 56.0626 26.5341C56.0626 25.6922 56.2218 24.9546 56.5401 24.3214C56.8621 23.6881 57.3149 23.1964 57.8986 22.8462C58.4823 22.4959 59.1721 22.3208 59.9681 22.3208C60.7641 22.3208 61.4539 22.4959 62.0376 22.8462C62.6213 23.1964 63.0724 23.6881 63.3908 24.3214C63.7127 24.9546 63.8736 25.6922 63.8736 26.5341C63.8736 27.3761 63.7127 28.1119 63.3908 28.7416C63.0724 29.3713 62.6213 29.8613 62.0376 30.2115C61.4539 30.5617 60.7641 30.7368 59.9681 30.7368ZM59.9787 29.198C60.4103 29.198 60.7711 29.0795 61.0612 28.8424C61.3513 28.6019 61.5671 28.28 61.7086 27.8767C61.8537 27.4734 61.9262 27.0241 61.9262 26.5288C61.9262 26.03 61.8537 25.579 61.7086 25.1757C61.5671 24.7689 61.3513 24.4452 61.0612 24.2046C60.7711 23.9641 60.4103 23.8438 59.9787 23.8438C59.5365 23.8438 59.1686 23.9641 58.875 24.2046C58.5849 24.4452 58.3673 24.7689 58.2223 25.1757C58.0808 25.579 58.01 26.03 58.01 26.5288C58.01 27.0241 58.0808 27.4734 58.2223 27.8767C58.3673 28.28 58.5849 28.6019 58.875 28.8424C59.1686 29.0795 59.5365 29.198 59.9787 29.198ZM69.0594 30.7368C68.2457 30.7368 67.547 30.5582 66.9633 30.2009C66.3831 29.8436 65.9356 29.3501 65.6208 28.7204C65.3095 28.0872 65.1538 27.3584 65.1538 26.5341C65.1538 25.7063 65.313 24.9758 65.6314 24.3426C65.9498 23.7058 66.3991 23.2105 66.9792 22.8568C67.5629 22.4995 68.2528 22.3208 69.0487 22.3208C69.7103 22.3208 70.2957 22.4429 70.8052 22.687C71.3181 22.9275 71.7267 23.2689 72.031 23.7111C72.3352 24.1498 72.5085 24.6627 72.551 25.25H70.715C70.6407 24.8573 70.4638 24.5301 70.1843 24.2683C69.9084 24.003 69.5387 23.8703 69.0753 23.8703C68.6826 23.8703 68.3377 23.9764 68.0405 24.1887C67.7434 24.3974 67.5116 24.6981 67.3454 25.0908C67.1826 25.4835 67.1013 25.954 67.1013 26.5023C67.1013 27.0577 67.1826 27.5353 67.3454 27.935C67.5081 28.3312 67.7363 28.6373 68.0299 28.853C68.3271 29.0653 68.6755 29.1714 69.0753 29.1714C69.3583 29.1714 69.6112 29.1184 69.8341 29.0122C70.0605 28.9026 70.2498 28.7451 70.4019 28.54C70.554 28.3348 70.6584 28.0854 70.715 27.7918H72.551C72.505 28.3684 72.3352 28.8796 72.0416 29.3253C71.7479 29.7675 71.3482 30.1142 70.8423 30.3654C70.3364 30.613 69.7421 30.7368 69.0594 30.7368ZM79.3233 27.1497V22.427H81.2442V30.5776H79.3817V29.129H79.2968C79.1128 29.5853 78.8104 29.9586 78.3894 30.2486C77.9719 30.5387 77.4572 30.6838 76.8452 30.6838C76.311 30.6838 75.8388 30.5653 75.4284 30.3282C75.0216 30.0877 74.7032 29.7392 74.4732 29.2829C74.2433 28.823 74.1283 28.2676 74.1283 27.6166V22.427H76.0492V27.3195C76.0492 27.836 76.1908 28.2463 76.4738 28.5506C76.7568 28.8548 77.1282 29.0069 77.5881 29.0069C77.8711 29.0069 78.1453 28.9379 78.4106 28.8C78.6759 28.662 78.8935 28.4568 79.0633 28.1844C79.2366 27.9085 79.3233 27.5636 79.3233 27.1497ZM83.2196 30.5776V22.427H85.0556V23.8119H85.1511C85.3209 23.345 85.6022 22.9806 85.9948 22.7188C86.3875 22.4535 86.8562 22.3208 87.401 22.3208C87.9529 22.3208 88.4181 22.4553 88.7966 22.7241C89.1787 22.9894 89.4476 23.352 89.6032 23.8119H89.6881C89.8685 23.3591 90.1728 22.9983 90.6008 22.7294C91.0324 22.457 91.5436 22.3208 92.1344 22.3208C92.8844 22.3208 93.4964 22.5578 93.9704 23.0319C94.4444 23.5059 94.6815 24.1975 94.6815 25.1067V30.5776H92.7552V25.4039C92.7552 24.898 92.6208 24.5283 92.3519 24.2948C92.0831 24.0578 91.7541 23.9393 91.3649 23.9393C90.9015 23.9393 90.5389 24.0843 90.2771 24.3744C90.0189 24.661 89.8898 25.0342 89.8898 25.4941V30.5776H88.006V25.3243C88.006 24.9033 87.8786 24.5672 87.6239 24.316C87.3727 24.0649 87.0437 23.9393 86.6369 23.9393C86.361 23.9393 86.1098 24.01 85.8834 24.1515C85.657 24.2895 85.4766 24.4859 85.3421 24.7406C85.2077 24.9917 85.1405 25.2854 85.1405 25.6214V30.5776H83.2196ZM100.239 30.7368C99.4214 30.7368 98.7157 30.567 98.1214 30.2274C97.5306 29.8843 97.076 29.3996 96.7576 28.7734C96.4392 28.1438 96.28 27.4026 96.28 26.5501C96.28 25.7116 96.4392 24.9758 96.7576 24.3426C97.0795 23.7058 97.5288 23.2105 98.1054 22.8568C98.6821 22.4995 99.3595 22.3208 100.138 22.3208C100.64 22.3208 101.114 22.4022 101.56 22.5649C102.009 22.7241 102.405 22.9717 102.749 23.3078C103.095 23.6439 103.368 24.0719 103.566 24.592C103.764 25.1085 103.863 25.724 103.863 26.4386V27.0276H97.1821V25.7329H102.022C102.018 25.365 101.938 25.0377 101.783 24.7512C101.627 24.4611 101.41 24.2329 101.13 24.0666C100.854 23.9004 100.532 23.8172 100.164 23.8172C99.7717 23.8172 99.4267 23.9128 99.1296 24.1038C98.8324 24.2913 98.6007 24.5389 98.4344 24.8467C98.2717 25.1509 98.1886 25.4852 98.185 25.8496V26.9799C98.185 27.4539 98.2717 27.8607 98.445 28.2004C98.6184 28.5364 98.8607 28.7947 99.172 28.9751C99.4833 29.152 99.8477 29.2404 100.265 29.2404C100.545 29.2404 100.798 29.2015 101.024 29.1237C101.25 29.0423 101.447 28.9238 101.613 28.7681C101.779 28.6125 101.905 28.4197 101.99 28.1897L103.783 28.3914C103.67 28.8654 103.454 29.2793 103.136 29.6331C102.821 29.9833 102.418 30.2557 101.926 30.4503C101.434 30.6413 100.872 30.7368 100.239 30.7368ZM107.409 25.8018V30.5776H105.488V22.427H107.324V23.8119H107.42C107.607 23.3556 107.906 22.993 108.316 22.7241C108.73 22.4553 109.241 22.3208 109.85 22.3208C110.412 22.3208 110.902 22.4411 111.32 22.6817C111.741 22.9222 112.066 23.2707 112.296 23.727C112.53 24.1834 112.645 24.737 112.641 25.3879V30.5776H110.72V25.6851C110.72 25.1403 110.579 24.714 110.296 24.4063C110.016 24.0985 109.629 23.9446 109.134 23.9446C108.797 23.9446 108.499 24.0189 108.237 24.1675C107.978 24.3125 107.775 24.523 107.627 24.7989C107.481 25.0749 107.409 25.4092 107.409 25.8018ZM118.664 22.427V23.9128H113.978V22.427H118.664ZM115.135 20.4742H117.056V28.1261C117.056 28.3843 117.095 28.5824 117.173 28.7204C117.254 28.8548 117.36 28.9468 117.491 28.9963C117.622 29.0458 117.767 29.0706 117.926 29.0706C118.047 29.0706 118.156 29.0618 118.255 29.0441C118.358 29.0264 118.436 29.0105 118.489 28.9963L118.812 30.498C118.71 30.5334 118.563 30.5723 118.372 30.6148C118.185 30.6572 117.955 30.682 117.682 30.6891C117.201 30.7032 116.768 30.6307 116.382 30.4715C115.997 30.3088 115.691 30.0576 115.464 29.718C115.241 29.3784 115.132 28.9539 115.135 28.4445V20.4742ZM126.596 24.5814L124.845 24.7724C124.795 24.5955 124.708 24.4292 124.585 24.2736C124.464 24.1179 124.302 23.9924 124.096 23.8968C123.891 23.8013 123.64 23.7536 123.343 23.7536C122.943 23.7536 122.607 23.8402 122.335 24.0136C122.066 24.1869 121.933 24.4116 121.937 24.6875C121.933 24.9245 122.02 25.1173 122.197 25.2659C122.377 25.4145 122.674 25.5365 123.088 25.632L124.478 25.9292C125.25 26.0955 125.823 26.359 126.198 26.7199C126.576 27.0807 126.767 27.553 126.771 28.1367C126.767 28.6496 126.617 29.1024 126.32 29.4951C126.026 29.8843 125.618 30.1885 125.094 30.4078C124.57 30.6272 123.969 30.7368 123.29 30.7368C122.292 30.7368 121.489 30.5281 120.881 30.1107C120.272 29.6897 119.91 29.1042 119.793 28.3542L121.666 28.1738C121.751 28.5417 121.931 28.8194 122.207 29.0069C122.483 29.1944 122.842 29.2882 123.284 29.2882C123.741 29.2882 124.107 29.1944 124.383 29.0069C124.662 28.8194 124.802 28.5877 124.802 28.3118C124.802 28.0783 124.712 27.8855 124.531 27.7334C124.355 27.5813 124.079 27.4645 123.704 27.3832L122.313 27.0913C121.532 26.9286 120.953 26.6544 120.578 26.2688C120.203 25.8797 120.017 25.3879 120.021 24.7936C120.017 24.2913 120.154 23.8562 120.43 23.4882C120.709 23.1168 121.096 22.8302 121.592 22.6286C122.091 22.4234 122.665 22.3208 123.316 22.3208C124.271 22.3208 125.023 22.5242 125.572 22.9311C126.123 23.3379 126.465 23.888 126.596 24.5814Z" fill="#333333"/>
<g clip-path="url(#clip1_1011_33040)">
<path d="M273.146 28.9397L276.508 25.5775L273.146 22.2154" stroke="#63676D" stroke-width="1.12072" stroke-linecap="round" stroke-linejoin="round"/>
</g>
<rect x="20.6893" y="106.726" width="258.621" height="8.867" rx="4.4335" fill="#E3E1F4"/>
<rect x="20.6893" y="106.726" width="203.941" height="8.867" rx="4.4335" fill="#09C639"/>
<path d="M22.9706 93.6204L31.6056 76.5435V76.3986H21.6184V73.839H34.6965V76.4856L26.0904 93.6204H22.9706ZM44.5171 93.9488C42.991 93.9423 41.6871 93.5399 40.6053 92.7414C39.5235 91.9429 38.696 90.7807 38.1229 89.2546C37.5498 87.7285 37.2633 85.8901 37.2633 83.7394C37.2633 81.5951 37.5498 79.7631 38.1229 78.2435C38.7025 76.7238 39.5331 75.5648 40.6149 74.7663C41.7032 73.9678 43.0039 73.5686 44.5171 73.5686C46.0303 73.5686 47.3278 73.971 48.4096 74.7759C49.4914 75.5744 50.3188 76.7335 50.8919 78.2531C51.4715 79.7664 51.7612 81.5951 51.7612 83.7394C51.7612 85.8965 51.4747 87.7381 50.9016 89.2642C50.3285 90.7839 49.5011 91.9462 48.4193 92.7511C47.3375 93.5495 46.0368 93.9488 44.5171 93.9488ZM44.5171 91.3698C45.8565 91.3698 46.9028 90.7163 47.6562 89.4091C48.416 88.1019 48.796 86.212 48.796 83.7394C48.796 82.0974 48.6221 80.7097 48.2744 79.5764C47.9331 78.4367 47.4405 77.5738 46.7966 76.9878C46.1591 76.3954 45.3993 76.0992 44.5171 76.0992C43.1842 76.0992 42.1378 76.756 41.378 78.0696C40.6181 79.3832 40.235 81.2731 40.2286 83.7394C40.2286 85.3878 40.3992 86.7819 40.7405 87.9216C41.0882 89.0549 41.5808 89.9146 42.2183 90.5006C42.8558 91.0801 43.622 91.3698 44.5171 91.3698ZM65.513 89.9114V88.8682C65.513 88.1213 65.6676 87.4387 65.9766 86.8205C66.2922 86.1959 66.7493 85.6969 67.3482 85.3234C67.9535 84.9435 68.6843 84.7535 69.5408 84.7535C70.4165 84.7535 71.1506 84.9403 71.743 85.3138C72.3354 85.6872 72.7829 86.1863 73.0856 86.8109C73.3946 87.4355 73.5492 88.1213 73.5492 88.8682V89.9114C73.5492 90.6583 73.3946 91.3441 73.0856 91.9687C72.7765 92.5869 72.3225 93.0859 71.7237 93.4658C71.1312 93.8393 70.4036 94.026 69.5408 94.026C68.6715 94.026 67.9374 93.8393 67.3385 93.4658C66.7397 93.0859 66.2857 92.5869 65.9766 91.9687C65.6676 91.3441 65.513 90.6583 65.513 89.9114ZM67.7635 88.8682V89.9114C67.7635 90.4651 67.8955 90.9674 68.1595 91.4181C68.4235 91.8689 68.884 92.0943 69.5408 92.0943C70.1911 92.0943 70.6451 91.8689 70.9027 91.4181C71.1602 90.9674 71.289 90.4651 71.289 89.9114V88.8682C71.289 88.3144 71.1634 87.8122 70.9123 87.3614C70.6676 86.9107 70.2104 86.6853 69.5408 86.6853C68.8968 86.6853 68.4396 86.9107 68.1692 87.3614C67.8987 87.8122 67.7635 88.3144 67.7635 88.8682ZM55.5644 78.5912V77.548C55.5644 76.8011 55.7189 76.1153 56.028 75.4907C56.3435 74.8661 56.8007 74.3671 57.3996 73.9936C58.0049 73.6201 58.7357 73.4334 59.5921 73.4334C60.4679 73.4334 61.2019 73.6201 61.7944 73.9936C62.3868 74.3671 62.8343 74.8661 63.1369 75.4907C63.4396 76.1153 63.5909 76.8011 63.5909 77.548V78.5912C63.5909 79.3381 63.4364 80.0239 63.1273 80.6485C62.8246 81.2667 62.3739 81.7657 61.775 82.1457C61.1826 82.5191 60.455 82.7059 59.5921 82.7059C58.7164 82.7059 57.9791 82.5191 57.3803 82.1457C56.7879 81.7657 56.3371 81.2667 56.028 80.6485C55.7189 80.0239 55.5644 79.3381 55.5644 78.5912ZM57.8246 77.548V78.5912C57.8246 79.145 57.9534 79.6472 58.2109 80.098C58.4749 80.5487 58.9353 80.7741 59.5921 80.7741C60.2361 80.7741 60.6868 80.5487 60.9444 80.098C61.2084 79.6472 61.3404 79.145 61.3404 78.5912V77.548C61.3404 76.9943 61.2148 76.492 60.9637 76.0413C60.7126 75.5905 60.2554 75.3651 59.5921 75.3651C58.9482 75.3651 58.491 75.5905 58.2206 76.0413C57.9566 76.492 57.8246 76.9943 57.8246 77.548ZM56.482 93.6204L70.0816 73.839H72.3901L58.7905 93.6204H56.482Z" fill="#212121"/>
<rect x="20.6893" y="127.415" width="39.9015" height="7.38916" rx="3.69458" fill="#E1E1E1"/>
<rect x="239.409" y="127.415" width="39.9015" height="7.38916" rx="3.69458" fill="#E1E1E1"/>
<defs>
<filter id="filter0_i_1011_33040" x="20.6893" y="16.5776" width="17.9315" height="17.9314" filterUnits="userSpaceOnUse" color-interpolation-filters="sRGB">
<feFlood flood-opacity="0" result="BackgroundImageFix"/>
<feBlend mode="normal" in="SourceGraphic" in2="BackgroundImageFix" result="shape"/>
<feColorMatrix in="SourceAlpha" type="matrix" values="0 0 0 0 0 0 0 0 0 0 0 0 0 0 0 0 0 0 127 0" result="hardAlpha"/>
<feOffset/>
<feGaussianBlur stdDeviation="0.747146"/>
<feComposite in2="hardAlpha" operator="arithmetic" k2="-1" k3="1"/>
<feColorMatrix type="matrix" values="0 0 0 0 0 0 0 0 0 0 0 0 0 0 0 0 0 0 0.06 0"/>
<feBlend mode="normal" in2="shape" result="effect1_innerShadow_1011_33040"/>
</filter>
<clipPath id="clip0_1011_33040">
<rect x="20.6893" y="16.5776" width="17.9315" height="17.9315" rx="2.24144" fill="white"/>
</clipPath>
<clipPath id="clip1_1011_33040">
<rect width="8.96575" height="8.96575" fill="white" transform="translate(270.344 21.0947)"/>
</clipPath>
</defs>
</svg>
