<svg width="78" height="103" viewBox="0 0 78 103" fill="none" xmlns="http://www.w3.org/2000/svg">
<path d="M2.42051 23.0753C6.35168 24.8934 10.7251 25.8762 15.0985 26.0237C19.5703 26.1711 24.0174 25.6305 28.268 24.0335C32.5923 22.4365 36.4743 19.1441 38.1696 14.7707C39.1524 12.0434 39.7667 9.21789 39.0787 6.24494C38.3416 2.73145 34.951 -0.38892 31.1672 0.692153C26.4007 2.43661 26.155 8.82477 29.2753 12.1663C29.865 12.8051 30.9952 12.3137 30.9215 11.4292C30.8724 10.6675 30.8724 9.88127 30.9707 9.14418C31.1427 7.96482 31.4866 5.90096 32.838 5.77811L32.6168 5.85182C32.4694 5.92553 32.5186 5.90096 32.5923 5.97467C34.5333 7.30144 33.6979 10.9378 32.9117 13.1736C32.1009 15.1884 30.5038 16.9082 28.7348 18.1613C26.7938 19.4635 24.5579 20.2743 22.3221 20.9377C16.0568 22.6576 9.39834 22.805 3.03475 21.3554C2.61707 21.2571 2.15024 21.4537 1.95368 21.8714C1.75712 22.3136 1.95368 22.8542 2.42051 23.0753Z" fill="#AC55FF"/>
<path d="M77.9969 61.9226C77.6775 46.6156 77.4073 29.7361 76.9404 14.4537C76.9896 10.8665 72.1493 9.95741 70.8963 13.2252C68.0216 21.0876 59.2747 24.8467 51.1667 24.3799C46.8178 24.0851 42.0021 23.0286 38.7835 19.9573C37.9481 19.122 36.695 20.2767 37.383 21.1613C41.1913 25.9278 48.7588 27.918 54.631 27.9671C60.7489 28.0408 67.0388 25.7804 71.4122 21.4807C71.0437 34.1587 70.8471 49.4166 70.5523 61.9472C70.0855 71.8734 46.9161 90.3499 38.8818 96.4678C38.7589 96.5661 38.1938 96.9838 37.9727 97.1558C28.759 90.8168 4.99995 73.6916 3.3292 62.9546C3.23092 62.2912 2.78867 32.6354 2.73953 30.8418C2.66582 29.6379 0.945926 29.6379 0.872217 30.8418L0.38082 59.4902C0.38082 60.0553 0.331681 61.6278 0.331681 62.1683C0.257971 66.4926 2.73953 70.3501 5.09823 73.667C7.99747 77.6228 11.3635 81.1608 14.877 84.576C20.9949 90.4482 27.5059 95.829 34.2381 100.94L34.9506 101.48L35.0489 101.554L35.098 101.603C35.5157 101.898 35.9579 102.119 36.4248 102.291C38.071 102.881 39.9874 102.487 41.3633 101.431L42.1004 100.915C43.55 99.9076 45.1225 98.8265 46.5476 97.77C55.8841 90.915 74.7292 76.7382 77.6038 65.5098C77.8987 64.4288 78.0215 63.102 77.9969 61.9226ZM38.1201 97.2049L38.071 97.1558C38.0955 97.1558 38.1447 97.1804 38.1692 97.2049C38.1692 97.2295 38.1447 97.2049 38.1201 97.2049Z" fill="#AC55FF"/>
<path d="M19.0779 57.5964L29.0041 70.9624C30.4537 72.928 33.4267 72.6332 34.5569 70.4956L57.112 35.3116C57.7263 34.3042 56.3749 33.3706 55.6132 34.206L30.896 63.3949L20.3801 56.2697C19.4956 55.68 18.4636 56.7365 19.0779 57.5964Z" fill="#AC55FF"/>
</svg>
